{
.appVersion = "911";
copyright = "Digitized data Copyright (c) 2011-2013, vernon adams.";
customParameters = (
{
name = openTypeNameLicense;
value = "Copyright (c) 2013.\012\012This Font Software is licensed under the SIL Open Font License, Version 1.1.\012This license is copied below, and is also available with a FAQ at:\012http://scripts.sil.org/OFL\012";
},
{
name = openTypeNameLicenseURL;
value = "http://scripts.sil.org/OFL";
},
{
name = vendorID;
value = NeWT;
},
{
name = trademark;
value = "Rokkitt is a trademark of Vernon Adams and may be registered in certain jurisdictions.";
},
{
name = license;
value = "This Font Software is licensed under the SIL Open Font License, Version 1.1. This license is available with a FAQ at: http://scripts.sil.org/OFL";
},
{
name = licenseURL;
value = "http://scripts.sil.org/OFL";
},
{
name = fsType;
value = (
);
}
);
date = "2016-08-04 09:56:17 +0000";
designer = "Vernon Adams";
designerURL = "http://www.newtypography.co.uk";
familyName = Rokkitt;
featurePrefixes = (
{

glyphs = (
{
glyphname = A;
lastChange = "2016-08-04 10:04:12 +0000";
layers = (
{
anchors = (
{
name = top;
position = "{338, 563}";
}
);
layerId = "98C086B7-81AA-4491-8494-0C6A76849168";
paths = (
{
closed = 1;
nodes = (
"233 256 LINE",
"336 538 LINE",
"338 538 LINE",
"441 256 LINE"
);
},
{
closed = 1;
nodes = (
"42 0 LINE",
"221 0 LINE",
"221 22 LINE",
"148 22 LINE",
"227 235 LINE",
"448 235 LINE",
"526 22 LINE",
"454 22 LINE",
"454 0 LINE",
"633 0 LINE",
"633 22 LINE",
"558 22 LINE",
"365 541 LINE",
"438 541 LINE",
"438 563 LINE",
"240 563 LINE",
"240 541 LINE",
"311 541 LINE",
"118 22 LINE",
"42 22 LINE"
);
}
);
width = 675;
},
{
associatedMasterId = "98C086B7-81AA-4491-8494-0C6A76849168";
layerId = "D7E554E2-12AE-47C0-93F2-4A82AEFA7302";
name = b;
width = 675;
},
{
anchors = (
{
name = top;
position = "{338, 563}";
}
);
layerId = "BE4F947C-73D7-4684-AEED-17801393DA53";
paths = (
{
closed = 1;
nodes = (
"247 270 LINE",
"331 509 LINE",
"337 509 LINE",
"419 270 LINE"
);
},
{
closed = 1;
nodes = (
"28 0 LINE",
"250 0 LINE",
"250 53 LINE",
"175 53 LINE",
"231 217 LINE",
"435 217 LINE",
"492 53 LINE",
"417 53 LINE",
"417 0 LINE",
"646 0 LINE",
"646 53 LINE",
"578 53 LINE",
"410 510 LINE",
"475 510 LINE",
"475 563 LINE",
"200 563 LINE",
"200 510 LINE",
"263 510 LINE",
"100 53 LINE",
"28 53 LINE"
);
}
);
width = 675;
},
{
anchors = (
{
name = ogonek;
position = "{624, 0}";
},
{
name = top;
position = "{397, 563}";
}
);
layerId = "EFCDB4D9-E20B-4A8D-9DB5-150AD166B0AE";
paths = (
{
closed = 1;
nodes = (
"25 109 LINE",
"25 0 LINE",
"334 0 LINE",
"334 109 LINE",
"252 109 LINE",
"285 201 LINE",
"465 201 LINE",
"496 109 LINE",
"403 109 LINE",
"403 0 LINE",
"803 0 LINE",
"803 109 LINE",
"724 109 LINE",
"578 453 LINE",
"649 453 LINE",
"649 563 LINE",
"172 563 LINE",
"172 453 LINE",
"252 453 LINE",
"103 109 LINE"
);
},
{
closed = 1;
nodes = (
"439 278 LINE",
"308 278 LINE",
"374 443 LINE",
"379 443 LINE"
);
}
);
width = 829;
}
);
unicode = 0041;
userData = {
com.typemytype.robofont.layerData = {
b = {
anchors = (
);
components = (
);
contours = (
);
lib = {
};
name = A;
unicodes = (
);
width = 1383;
};
};
org.robofab.postScriptHintData = {
};
};
},
{
glyphname = AE;
lastChange = "2016-08-04 10:04:12 +0000";
layers = (
{
anchors = (
{
name = top;
position = "{609, 563}";
}
);
layerId = "98C086B7-81AA-4491-8494-0C6A76849168";
paths = (
{
closed = 1;
nodes = (
"76 0 LINE",
"269 0 LINE",
"269 22 LINE",
"197 22 LINE",
"303 212 LINE",
"537 212 LINE",
"566 22 LINE",
"487 22 LINE",
"487 0 LINE",
"983 0 LINE",
"954 191 LINE",
"929 191 LINE",
"954 22 LINE",
"597 22 LINE",
"561 266 LINE",
"775 266 LINE",
"792 171 LINE",
"813 171 LINE",
"779 372 LINE",
"758 372 LINE",
"771 288 LINE",
"558 288 LINE",
"521 541 LINE",
"852 541 LINE",
"877 371 LINE",
"902 371 LINE",
"875 563 LINE",
"389 563 LINE",
"389 541 LINE",
"457 541 LINE",
"162 22 LINE",
"76 22 LINE"
);
},
{
closed = 1;
nodes = (
"315 233 LINE",
"485 541 LINE",
"490 541 LINE",
"535 233 LINE"
);
}
);
width = 1077;
},
{
associatedMasterId = "98C086B7-81AA-4491-8494-0C6A76849168";
layerId = "EDDC02CD-CF2E-4670-9D9C-FA8AD2329010";
name = b;
width = 1095;
},
{
anchors = (
{
name = top;
position = "{580, 563}";
}
);
layerId = "BE4F947C-73D7-4684-AEED-17801393DA53";
paths = (
{
closed = 1;
nodes = (
"22 0 LINE",
"252 0 LINE",
"252 53 LINE",
"184 53 LINE",
"271 205 LINE",
"476 205 LINE",
"485 53 LINE",
"409 53 LINE",
"409 0 LINE",
"912 0 LINE",
"902 179 LINE",
"840 179 LINE",
"848 53 LINE",
"566 53 LINE",
"554 259 LINE",
"732 259 LINE",
"738 191 LINE",
"779 191 LINE",
"767 381 LINE",
"727 381 LINE",
"731 315 LINE",
"553 315 LINE",
"541 510 LINE",
"813 510 LINE",
"822 385 LINE",
"884 385 LINE",
"875 563 LINE",
"317 563 LINE",
"317 510 LINE",
"378 510 LINE",
"98 53 LINE",
"22 53 LINE"
);
},
{
closed = 1;
nodes = (
"297 255 LINE",
"451 510 LINE",
"460 510 LINE",
"475 255 LINE"
);
}
);
width = 970;
},
{
anchors = (
{
name = top;
position = "{624, 563}";
}
);
layerId = "EFCDB4D9-E20B-4A8D-9DB5-150AD166B0AE";
paths = (
{
closed = 1;
nodes = (
"19 0 LINE",
"322 0 LINE",
"322 109 LINE",
"285 109 LINE",
"329 202 LINE",
"470 202 LINE",
"470 109 LINE",
"405 109 LINE",
"405 0 LINE",
"957 0 LINE",
"957 191 LINE",
"858 191 LINE",
"858 109 LINE",
"673 109 LINE",
"673 256 LINE",
"734 256 LINE",
"734 183 LINE",
"801 183 LINE",
"801 385 LINE",
"734 385 LINE",
"734 305 LINE",
"673 305 LINE",
"673 453 LINE",
"857 453 LINE",
"857 375 LINE",
"956 375 LINE",
"956 563 LINE",
"231 563 LINE",
"231 453 LINE",
"289 453 LINE",
"102 109 LINE",
"19 109 LINE"
);
},
{
closed = 1;
nodes = (
"361 266 LINE",
"458 453 LINE",
"470 453 LINE",
"470 266 LINE"
);
}
);
width = 979;
}
);
unicode = 00C6;
userData = {
com.typemytype.robofont.layerData = {
b = {
anchors = (
);
components = (
);
contours = (
);
lib = {
};
name = AE;
unicodes = (
);
width = 2243;
};
};
org.robofab.postScriptHintData = {
};
};
},
{
glyphname = B;
lastChange = "2016-08-04 10:04:12 +0000";
layers = (
{
anchors = (
{
name = top;
position = "{285, 563}";
}
);
layerId = "98C086B7-81AA-4491-8494-0C6A76849168";
paths = (
{
closed = 1;
nodes = (
"378 563 CURVE SMOOTH",
"60 563 LINE",
"60 541 LINE",
"145 541 LINE",
"145 22 LINE",
"60 22 LINE",
"60 0 LINE",
"424 0 LINE SMOOTH",
"520 0 OFFCURVE",
"577 64 OFFCURVE",
"577 154 CURVE SMOOTH",
"577 217 OFFCURVE",
"550 282 OFFCURVE",
"458 298 CURVE",
"511 308 OFFCURVE",
"543 358 OFFCURVE",
"543 426 CURVE SMOOTH",
"543 517 OFFCURVE",
"485 563 OFFCURVE"
);
},
{
closed = 1;
nodes = (
"375 541 LINE",
"466 541 OFFCURVE",
"515 506 OFFCURVE",
"515 425 CURVE SMOOTH",
"515 357 OFFCURVE",
"484 307 OFFCURVE",
"406 307 CURVE SMOOTH",
"175 307 LINE",
"175 541 LINE"
);
},
{
closed = 1;
nodes = (
"175 285 LINE",
"408 285 LINE SMOOTH",
"505 285 OFFCURVE",
"548 228 OFFCURVE",
"548 155 CURVE SMOOTH",
"548 75 OFFCURVE",
"500 22 OFFCURVE",
"422 22 CURVE SMOOTH",
"175 22 LINE"
);
}
);
width = 633;
},
{
associatedMasterId = "98C086B7-81AA-4491-8494-0C6A76849168";
layerId = "166D4EAB-D3CF-4FAC-98E7-8FCD624FEF55";
name = b;
paths = (
{
closed = 1;
nodes = (
"172 535 LINE",
"361 535 LINE SMOOTH",
"448 535 OFFCURVE",
"490 480 OFFCURVE",
"490 424 CURVE SMOOTH",
"490 367 OFFCURVE",
"453 310 OFFCURVE",
"383 310 CURVE SMOOTH",
"172 310 LINE"
);
},
{
closed = 1;
nodes = (
"172 280 LINE",
"387 280 LINE SMOOTH",
"478 280 OFFCURVE",
"523 214 OFFCURVE",
"523 156 CURVE SMOOTH",
"523 91 OFFCURVE",
"481 28 OFFCURVE",
"394 28 CURVE SMOOTH",
"172 28 LINE"
);
},
{
closed = 1;
nodes = (
"394 0 LINE SMOOTH",
"503 0 OFFCURVE",
"560 77 OFFCURVE",
"560 154 CURVE SMOOTH",
"560 214 OFFCURVE",
"524 277 OFFCURVE",
"449 298 CURVE",
"502 327 OFFCURVE",
"527 375 OFFCURVE",
"527 425 CURVE SMOOTH",
"527 494 OFFCURVE",
"471 563 OFFCURVE",
"361 563 CURVE SMOOTH",
"60 563 LINE",
"60 535 LINE",
"136 535 LINE",
"136 28 LINE",
"66 28 LINE",
"66 0 LINE"
);
}
);
width = 661;
},
{
anchors = (
{
name = top;
position = "{255, 563}";
}
);
layerId = "BE4F947C-73D7-4684-AEED-17801393DA53";
paths = (
{
closed = 1;
nodes = (
"318 563 CURVE SMOOTH",
"39 563 LINE",
"39 510 LINE",
"117 510 LINE",
"117 53 LINE",
"39 53 LINE",
"39 0 LINE",
"339 0 LINE SMOOTH",
"489 0 OFFCURVE",
"541 79 OFFCURVE",
"541 159 CURVE SMOOTH",
"541 227 OFFCURVE",
"502 281 OFFCURVE",
"426 300 CURVE",
"477 317 OFFCURVE",
"511 361 OFFCURVE",
"511 423 CURVE SMOOTH",
"511 515 OFFCURVE",
"443 563 OFFCURVE"
);
},
{
closed = 1;
nodes = (
"295 510 LINE",
"390 510 OFFCURVE",
"430 486 OFFCURVE",
"430 420 CURVE SMOOTH",
"430 360 OFFCURVE",
"396 323 OFFCURVE",
"313 323 CURVE SMOOTH",
"199 323 LINE",
"199 510 LINE"
);
},
{
closed = 1;
nodes = (
"199 268 LINE",
"322 268 LINE SMOOTH",
"415 268 OFFCURVE",
"458 225 OFFCURVE",
"458 162 CURVE SMOOTH",
"458 94 OFFCURVE",
"419 53 OFFCURVE",
"325 53 CURVE SMOOTH",
"199 53 LINE"
);
}
);
width = 580;
},
{
anchors = (
{
name = top;
position = "{314, 563}";
}
);
layerId = "EFCDB4D9-E20B-4A8D-9DB5-150AD166B0AE";
paths = (
{
closed = 1;
nodes = (
"20 0 LINE",
"402 0 LINE SMOOTH",
"631 0 OFFCURVE",
"689 80 OFFCURVE",
"689 174 CURVE SMOOTH",
"689 225 OFFCURVE",
"666 295 OFFCURVE",
"541 311 CURVE",
"624 323 OFFCURVE",
"659 368 OFFCURVE",
"659 438 CURVE SMOOTH",
"659 503 OFFCURVE",
"595 563 OFFCURVE",
"438 563 CURVE SMOOTH",
"20 563 LINE",
"20 453 LINE",
"104 453 LINE",
"104 109 LINE",
"20 109 LINE"
);
},
{
closed = 1;
nodes = (
"306 110 LINE",
"306 260 LINE",
"389 260 LINE SMOOTH",
"478 260 OFFCURVE",
"480 215 OFFCURVE",
"480 186 CURVE SMOOTH",
"480 149 OFFCURVE",
"461 110 OFFCURVE",
"391 110 CURVE SMOOTH"
);
},
{
closed = 1;
nodes = (
"306 354 LINE",
"306 453 LINE",
"396 455 LINE SMOOTH",
"436 453 OFFCURVE",
"454 436 OFFCURVE",
"454 407 CURVE SMOOTH",
"454 367 OFFCURVE",
"433 354 OFFCURVE",
"384 354 CURVE SMOOTH"
);
}
);
width = 730;
}
);
unicode = 0042;
userData = {
com.typemytype.robofont.layerData = {
b = {
anchors = (
);
components = (
);
contours = (
{
points = (
{
segmentType = line;
smooth = 0;
x = 353;
y = 1095;
},
{
segmentType = line;
smooth = 1;
x = 740;
y = 1095;
},
{
smooth = 0;
x = 917;
y = 1095;
},
{
smooth = 0;
x = 1004;
y = 983;
},
{
segmentType = curve;
smooth = 1;
x = 1004;
y = 868;
},
{
smooth = 0;
x = 1004;
y = 751;
},
{
smooth = 0;
x = 928;
y = 634;
},
{
segmentType = curve;
smooth = 1;
x = 784;
y = 634;
},
{
segmentType = line;
smooth = 0;
x = 353;
y = 634;
}
);
},
{
points = (
{
segmentType = line;
smooth = 0;
x = 353;
y = 573;
},
{
segmentType = line;
smooth = 1;
x = 793;
y = 573;
},
{
smooth = 0;
x = 979;
y = 573;
},
{
smooth = 0;
x = 1072;
y = 439;
},
{
segmentType = curve;
smooth = 1;
x = 1072;
y = 320;
},
{
smooth = 0;
x = 1072;
y = 187;
},
{
smooth = 0;
x = 985;
y = 58;
},
{
segmentType = curve;
smooth = 1;
x = 807;
y = 58;
},
{
segmentType = line;
smooth = 0;
x = 353;
y = 58;
}
);
},
{
points = (
{
segmentType = line;
smooth = 1;
x = 807;
y = 0;
},
{
smooth = 0;
x = 1031;
y = 0;
},
{
smooth = 0;
x = 1146;
y = 158;
},
{
segmentType = curve;
smooth = 1;
x = 1146;
y = 316;
},
{
smooth = 0;
x = 1146;
y = 439;
},
{
smooth = 0;
x = 1074;
y = 568;
},
{
segmentType = curve;
smooth = 0;
x = 919;
y = 611;
},
{
smooth = 0;
x = 1029;
y = 669;
},
{
smooth = 0;
x = 1079;
y = 769;
},
{
segmentType = curve;
smooth = 1;
x = 1079;
y = 870;
},
{
smooth = 0;
x = 1079;
y = 1012;
},
{
smooth = 0;
x = 964;
y = 1154;
},
{
segmentType = curve;
smooth = 1;
x = 740;
y = 1154;
},
{
segmentType = line;
smooth = 0;
x = 122;
y = 1154;
},
{
segmentType = line;
smooth = 0;
x = 122;
y = 1095;
},
{
segmentType = line;
smooth = 0;
x = 278;
y = 1095;
},
{
segmentType = line;
smooth = 0;
x = 278;
y = 58;
},
{
segmentType = line;
smooth = 0;
x = 135;
y = 58;
},
{
segmentType = line;
smooth = 0;
x = 135;
y = 0;
}
);
}
);
lib = {
};
name = B;
unicodes = (
);
width = 1354;
};
};
org.robofab.postScriptHintData = {
};
};
},
{
glyphname = C;
lastChange = "2016-08-04 10:04:12 +0000";
layers = (
{
anchors = (
{
name = bot;
position = "{350, 0}";
},
{
name = top;
position = "{352, 563}";
}
);
layerId = "98C086B7-81AA-4491-8494-0C6A76849168";
paths = (
{
closed = 1;
nodes = (
"348 -11 CURVE SMOOTH",
"458 -11 OFFCURVE",
"547 26 OFFCURVE",
"606 125 CURVE",
"587 138 LINE",
"532 42 OFFCURVE",
"438 13 OFFCURVE",
"349 13 CURVE SMOOTH",
"222 13 OFFCURVE",
"88 101 OFFCURVE",
"88 283 CURVE SMOOTH",
"88 422 OFFCURVE",
"182 549 OFFCURVE",
"349 549 CURVE SMOOTH",
"472 549 OFFCURVE",
"534 500 OFFCURVE",
"584 399 CURVE",
"605 406 LINE",
"605 563 LINE",
"578 563 LINE",
"578 448 LINE",
"534 525 OFFCURVE",
"472 572 OFFCURVE",
"349 572 CURVE SMOOTH",
"175 572 OFFCURVE",
"58 444 OFFCURVE",
"58 284 CURVE SMOOTH",
"58 80 OFFCURVE",
"212 -11 OFFCURVE"
);
}
);
width = 686;
},
{
associatedMasterId = "98C086B7-81AA-4491-8494-0C6A76849168";
layerId = "25609C3F-2295-4DB1-B32F-98BB4D71B28B";
name = b;
width = 689;
},
{
anchors = (
{
name = bot;
position = "{337, 0}";
},
{
name = top;
position = "{349, 563}";
}
);
layerId = "BE4F947C-73D7-4684-AEED-17801393DA53";
paths = (
{
closed = 1;
nodes = (
"344 -11 CURVE SMOOTH",
"458 -10 OFFCURVE",
"560 30 OFFCURVE",
"608 152 CURVE",
"548 182 LINE",
"514 85 OFFCURVE",
"433 49 OFFCURVE",
"349 49 CURVE SMOOTH",
"224 49 OFFCURVE",
"131 141 OFFCURVE",
"131 283 CURVE SMOOTH",
"131 412 OFFCURVE",
"215 513 OFFCURVE",
"349 513 CURVE SMOOTH",
"438 513 OFFCURVE",
"500 477 OFFCURVE",
"542 391 CURVE",
"596 393 LINE",
"596 563 LINE",
"536 563 LINE",
"536 486 LINE",
"493 539 OFFCURVE",
"434 573 OFFCURVE",
"344 573 CURVE SMOOTH",
"165 573 OFFCURVE",
"49 450 OFFCURVE",
"49 282 CURVE SMOOTH",
"49 109 OFFCURVE",
"168 -10 OFFCURVE"
);
}
);
width = 665;
},
{
anchors = (
{
name = bot;
position = "{368, 0}";
},
{
name = top;
position = "{371, 563}";
}
);
layerId = "EFCDB4D9-E20B-4A8D-9DB5-150AD166B0AE";
paths = (
{
closed = 1;
nodes = (
"378 -11 CURVE SMOOTH",
"579 -11 OFFCURVE",
"674 89 OFFCURVE",
"695 216 CURVE",
"546 251 LINE",
"528 150 OFFCURVE",
"459 120 OFFCURVE",
"386 120 CURVE SMOOTH",
"295 120 OFFCURVE",
"238 183 OFFCURVE",
"238 281 CURVE SMOOTH",
"238 380 OFFCURVE",
"289 442 OFFCURVE",
"383 442 CURVE SMOOTH",
"462 442 OFFCURVE",
"512 414 OFFCURVE",
"544 339 CURVE",
"683 339 LINE",
"683 562 LINE",
"560 562 LINE",
"560 503 LINE",
"560 509 OFFCURVE",
"508 573 OFFCURVE",
"379 573 CURVE SMOOTH",
"186 573 OFFCURVE",
"39 464 OFFCURVE",
"39 276 CURVE SMOOTH",
"39 90 OFFCURVE",
"185 -11 OFFCURVE"
);
}
);
width = 735;
}
);
unicode = 0043;
userData = {
com.typemytype.robofont.layerData = {
b = {
anchors = (
);
components = (
);
contours = (
);
lib = {
};
name = C;
unicodes = (
);
width = 1411;
};
};
org.robofab.postScriptHintData = {
};
};
},
{
glyphname = D;
lastChange = "2016-08-04 10:04:12 +0000";
layers = (
{
anchors = (
{
name = top;
position = "{316, 563}";
}
);
layerId = "98C086B7-81AA-4491-8494-0C6A76849168";
paths = (
{
closed = 1;
nodes = (
"395 563 CURVE SMOOTH",
"60 563 LINE",
"60 541 LINE",
"145 541 LINE",
"145 22 LINE",
"60 22 LINE",
"60 0 LINE",
"398 0 LINE SMOOTH",
"558 0 OFFCURVE",
"637 152 OFFCURVE",
"637 280 CURVE SMOOTH",
"637 405 OFFCURVE",
"562 563 OFFCURVE"
);
},
{
closed = 1;
nodes = (
"175 541 LINE",
"396 541 LINE SMOOTH",
"537 541 OFFCURVE",
"608 401 OFFCURVE",
"608 279 CURVE SMOOTH",
"608 156 OFFCURVE",
"537 22 OFFCURVE",
"393 22 CURVE SMOOTH",
"175 22 LINE"
);
}
);
width = 698;
},
{
associatedMasterId = "98C086B7-81AA-4491-8494-0C6A76849168";
layerId = "CD5EB39D-E643-4C9A-BBE0-5176269617E9";
name = b;
width = 700;
},
{
anchors = (
{
name = top;
position = "{292, 563}";
}
);
layerId = "BE4F947C-73D7-4684-AEED-17801393DA53";
paths = (
{
closed = 1;
nodes = (
"346 563 CURVE SMOOTH",
"40 563 LINE",
"40 510 LINE",
"118 510 LINE",
"118 53 LINE",
"40 53 LINE",
"40 0 LINE",
"347 0 LINE SMOOTH",
"539 0 OFFCURVE",
"635 121 OFFCURVE",
"635 287 CURVE SMOOTH",
"635 424 OFFCURVE",
"542 563 OFFCURVE"
);
},
{
closed = 1;
nodes = (
"200 510 LINE",
"342 510 LINE SMOOTH",
"487 510 OFFCURVE",
"551 399 OFFCURVE",
"551 285 CURVE SMOOTH",
"551 156 OFFCURVE",
"489 53 OFFCURVE",
"339 53 CURVE SMOOTH",
"200 53 LINE"
);
}
);
width = 684;
},
{
anchors = (
{
name = mid;
position = "{210, 288}";
},
{
name = top;
position = "{399, 561}";
}
);
layerId = "EFCDB4D9-E20B-4A8D-9DB5-150AD166B0AE";
paths = (
{
closed = 1;
nodes = (
"21 563 LINE",
"21 453 LINE",
"105 453 LINE",
"105 109 LINE",
"21 109 LINE",
"21 0 LINE",
"413 0 LINE SMOOTH",
"629 0 OFFCURVE",
"736 112 OFFCURVE",
"736 281 CURVE SMOOTH",
"736 442 OFFCURVE",
"628 563 OFFCURVE",
"413 563 CURVE SMOOTH"
);
},
{
closed = 1;
nodes = (
"307 109 LINE",
"307 453 LINE",
"415 453 LINE SMOOTH",
"483 453 OFFCURVE",
"520 385 OFFCURVE",
"520 281 CURVE SMOOTH",
"520 174 OFFCURVE",
"482 109 OFFCURVE",
"415 109 CURVE SMOOTH"
);
}
);
width = 772;
}
);
unicode = 0044;
userData = {
com.typemytype.robofont.layerData = {
b = {
anchors = (
);
components = (
);
contours = (
);
lib = {
};
name = D;
unicodes = (
);
width = 1434;
};
};
org.robofab.postScriptHintData = {
};
};
},
{
glyphname = E;
lastChange = "2016-08-04 10:04:12 +0000";
layers = (
{
anchors = (
{
name = bot;
position = "{316, 0}";
},
{
name = top;
position = "{327, 563}";
}
);
layerId = "98C086B7-81AA-4491-8494-0C6A76849168";
paths = (
{
closed = 1;
nodes = (
"493 402 LINE",
"519 402 LINE",
"519 563 LINE",
"60 563 LINE",
"60 541 LINE",
"145 541 LINE",
"145 22 LINE",
"60 22 LINE",
"60 0 LINE",
"531 0 LINE",
"531 163 LINE",
"505 163 LINE",
"505 22 LINE",
"175 22 LINE",
"175 276 LINE",
"381 276 LINE",
"381 187 LINE",
"403 187 LINE",
"403 381 LINE",
"380 381 LINE",
"380 298 LINE",
"175 298 LINE",
"175 541 LINE",
"493 541 LINE"
);
}
);
width = 597;
},
{
associatedMasterId = "98C086B7-81AA-4491-8494-0C6A76849168";
layerId = "60ECEE92-5140-4CA8-8660-9E0EC6F69E78";
name = b;
width = 599;
},
{
anchors = (
{
name = bot;
position = "{309, 0}";
},
{
name = top;
position = "{310, 563}";
}
);
layerId = "BE4F947C-73D7-4684-AEED-17801393DA53";
paths = (
{
closed = 1;
nodes = (
"466 396 LINE",
"529 396 LINE",
"529 563 LINE",
"39 563 LINE",
"39 510 LINE",
"117 510 LINE",
"117 53 LINE",
"39 53 LINE",
"39 0 LINE",
"534 0 LINE",
"534 170 LINE",
"471 170 LINE",
"471 53 LINE",
"199 53 LINE",
"199 264 LINE",
"374 264 LINE",
"374 197 LINE",
"415 197 LINE",
"415 385 LINE",
"374 385 LINE",
"374 319 LINE",
"199 319 LINE",
"199 510 LINE",
"466 510 LINE"
);
}
);
width = 582;
},
{
anchors = (
{
name = bot;
position = "{302, 0}";
},
{
name = ogonek;
position = "{431, 0}";
},
{
name = top;
position = "{342, 563}";
}
);
layerId = "EFCDB4D9-E20B-4A8D-9DB5-150AD166B0AE";
paths = (
{
closed = 1;
nodes = (
"475 218 LINE",
"475 110 LINE",
"307 110 LINE",
"307 242 LINE",
"374 242 LINE",
"374 191 LINE",
"425 191 LINE",
"425 407 LINE",
"373 407 LINE",
"373 347 LINE",
"307 347 LINE",
"307 451 LINE",
"474 453 LINE",
"474 370 LINE",
"613 370 LINE",
"613 563 LINE",
"21 563 LINE",
"21 453 LINE",
"106 453 LINE",
"106 109 LINE",
"21 109 LINE",
"21 0 LINE",
"617 0 LINE",
"617 218 LINE"
);
}
);
width = 646;
}
);
unicode = 0045;
userData = {
com.typemytype.robofont.layerData = {
b = {
anchors = (
);
components = (
);
contours = (
);
lib = {
};
name = E;
unicodes = (
);
width = 1227;
};
};
org.robofab.postScriptHintData = {
};
};
},
{
glyphname = F;
lastChange = "2016-08-04 10:04:12 +0000";
layers = (
{
anchors = (
{
name = top;
position = "{314, 563}";
}
);
layerId = "98C086B7-81AA-4491-8494-0C6A76849168";
paths = (
{
closed = 1;
nodes = (
"500 389 LINE",
"524 389 LINE",
"524 563 LINE",
"60 563 LINE",
"60 541 LINE",
"145 541 LINE",
"145 22 LINE",
"60 22 LINE",
"60 0 LINE",
"260 0 LINE",
"260 22 LINE",
"175 22 LINE",
"175 278 LINE",
"409 278 LINE",
"409 191 LINE",
"430 191 LINE",
"430 377 LINE",
"409 377 LINE",
"409 301 LINE",
"175 301 LINE",
"175 541 LINE",
"500 541 LINE"
);
}
);
width = 570;
},
{
associatedMasterId = "98C086B7-81AA-4491-8494-0C6A76849168";
layerId = "3ECFE09A-00F6-461D-8ABC-E519FD610BC2";
name = b;
paths = (
{
closed = 1;
nodes = (
"483 530 LINE",
"483 392 LINE",
"519 392 LINE",
"519 563 LINE",
"60 563 LINE",
"60 530 LINE",
"140 530 LINE",
"140 507 LINE",
"177 507 LINE",
"177 530 LINE"
);
},
{
closed = 1;
nodes = (
"140 507 LINE",
"140 331 LINE",
"177 331 LINE",
"177 507 LINE"
);
},
{
closed = 1;
nodes = (
"140 331 LINE",
"140 32 LINE",
"60 32 LINE",
"60 0 LINE",
"270 0 LINE",
"270 32 LINE",
"177 32 LINE",
"177 263 LINE",
"402 263 LINE",
"402 185 LINE",
"433 185 LINE",
"433 373 LINE",
"402 373 LINE",
"402 293 LINE",
"177 293 LINE",
"177 331 LINE"
);
}
);
width = 575;
},
{
anchors = (
{
name = top;
position = "{299, 563}";
}
);
layerId = "BE4F947C-73D7-4684-AEED-17801393DA53";
paths = (
{
closed = 1;
nodes = (
"457 392 LINE",
"520 392 LINE",
"520 563 LINE",
"39 563 LINE",
"39 510 LINE",
"117 510 LINE",
"117 53 LINE",
"39 53 LINE",
"39 0 LINE",
"277 0 LINE",
"277 53 LINE",
"199 53 LINE",
"199 264 LINE",
"369 264 LINE",
"369 199 LINE",
"411 199 LINE",
"411 382 LINE",
"369 382 LINE",
"369 321 LINE",
"199 321 LINE",
"199 510 LINE",
"457 510 LINE"
);
}
);
width = 542;
},
{
anchors = (
{
name = top;
position = "{325, 563}";
}
);
layerId = "EFCDB4D9-E20B-4A8D-9DB5-150AD166B0AE";
paths = (
{
closed = 1;
nodes = (
"21 563 LINE",
"21 453 LINE",
"106 453 LINE",
"106 109 LINE",
"21 109 LINE",
"21 0 LINE",
"392 0 LINE",
"392 109 LINE",
"307 109 LINE",
"307 242 LINE",
"391 242 LINE",
"391 191 LINE",
"451 191 LINE",
"451 373 LINE",
"390 373 LINE",
"390 322 LINE",
"307 322 LINE",
"307 453 LINE",
"488 453 LINE",
"488 374 LINE",
"602 374 LINE",
"602 563 LINE"
);
}
);
width = 631;
}
);
unicode = 0046;
userData = {
com.typemytype.robofont.layerData = {
b = {
anchors = (
);
components = (
);
contours = (
{
points = (
{
segmentType = line;
smooth = 0;
x = 990;
y = 1086;
},
{
segmentType = line;
smooth = 0;
x = 990;
y = 802;
},
{
segmentType = line;
smooth = 0;
x = 1062;
y = 802;
},
{
segmentType = line;
smooth = 0;
x = 1062;
y = 1152;
},
{
segmentType = line;
smooth = 0;
x = 122;
y = 1152;
},
{
segmentType = line;
smooth = 0;
x = 122;
y = 1086;
},
{
segmentType = line;
smooth = 0;
x = 286;
y = 1086;
},
{
segmentType = line;
smooth = 0;
x = 286;
y = 1039;
},
{
segmentType = line;
smooth = 0;
x = 363;
y = 1039;
},
{
segmentType = line;
smooth = 0;
x = 363;
y = 1086;
}
);
},
{
points = (
{
segmentType = line;
smooth = 0;
x = 286;
y = 1039;
},
{
segmentType = line;
smooth = 0;
x = 286;
y = 677;
},
{
segmentType = line;
smooth = 0;
x = 363;
y = 677;
},
{
segmentType = line;
smooth = 0;
x = 363;
y = 1039;
}
);
},
{
points = (
{
segmentType = line;
smooth = 0;
x = 286;
y = 677;
},
{
segmentType = line;
smooth = 0;
x = 286;
y = 65;
},
{
segmentType = line;
smooth = 0;
x = 122;
y = 65;
},
{
segmentType = line;
smooth = 0;
x = 122;
y = 0;
},
{
segmentType = line;
smooth = 0;
x = 552;
y = 0;
},
{
segmentType = line;
smooth = 0;
x = 552;
y = 65;
},
{
segmentType = line;
smooth = 0;
x = 363;
y = 65;
},
{
segmentType = line;
smooth = 0;
x = 363;
y = 539;
},
{
segmentType = line;
smooth = 0;
x = 824;
y = 539;
},
{
segmentType = line;
smooth = 0;
x = 824;
y = 378;
},
{
segmentType = line;
smooth = 0;
x = 886;
y = 378;
},
{
segmentType = line;
smooth = 0;
x = 886;
y = 764;
},
{
segmentType = line;
smooth = 0;
x = 824;
y = 764;
},
{
segmentType = line;
smooth = 0;
x = 824;
y = 601;
},
{
segmentType = line;
smooth = 0;
x = 363;
y = 601;
},
{
segmentType = line;
smooth = 0;
x = 363;
y = 677;
}
);
}
);
lib = {
};
name = F;
unicodes = (
);
width = 1177;
};
};
org.robofab.postScriptHintData = {
};
};
},
{
glyphname = G;
lastChange = "2016-08-04 10:04:12 +0000";
layers = (
{
anchors = (
{
name = bot;
position = "{347, 0}";
},
{
name = top;
position = "{346, 563}";
}
);
layerId = "98C086B7-81AA-4491-8494-0C6A76849168";
paths = (
{
closed = 1;
nodes = (
"347 -11 CURVE SMOOTH",
"449 -11 OFFCURVE",
"612 34 OFFCURVE",
"612 268 CURVE",
"459 268 LINE",
"459 246 LINE",
"583 246 LINE",
"581 61 OFFCURVE",
"437 13 OFFCURVE",
"347 13 CURVE SMOOTH",
"188 13 OFFCURVE",
"87 118 OFFCURVE",
"87 285 CURVE SMOOTH",
"87 448 OFFCURVE",
"188 550 OFFCURVE",
"347 550 CURVE SMOOTH",
"446 550 OFFCURVE",
"531 500 OFFCURVE",
"568 412 CURVE",
"590 412 LINE",
"590 563 LINE",
"563 563 LINE",
"563 466 LINE",
"518 535 OFFCURVE",
"436 573 OFFCURVE",
"347 573 CURVE SMOOTH",
"169 573 OFFCURVE",
"57 462 OFFCURVE",
"57 285 CURVE SMOOTH",
"57 104 OFFCURVE",
"169 -11 OFFCURVE"
);
}
);
width = 681;
},
{
associatedMasterId = "98C086B7-81AA-4491-8494-0C6A76849168";
layerId = "C7BF5333-7E92-4656-94F3-4CF4B1BB9EBD";
name = b;
width = 681;
},
{
anchors = (
{
name = bot;
position = "{347, 0}";
},
{
name = top;
position = "{351, 563}";
}
);
layerId = "BE4F947C-73D7-4684-AEED-17801393DA53";
paths = (
{
closed = 1;
nodes = (
"356 -10 CURVE SMOOTH",
"512 -10 OFFCURVE",
"638 65 OFFCURVE",
"639 284 CURVE",
"440 284 LINE",
"440 228 LINE",
"559 228 LINE",
"556 104 OFFCURVE",
"468 52 OFFCURVE",
"359 50 CURVE SMOOTH",
"222 50 OFFCURVE",
"136 142 OFFCURVE",
"136 288 CURVE SMOOTH",
"136 427 OFFCURVE",
"221 514 OFFCURVE",
"357 514 CURVE SMOOTH",
"447 514 OFFCURVE",
"518 470 OFFCURVE",
"554 389 CURVE",
"612 389 LINE",
"612 564 LINE",
"547 564 LINE",
"547 492 LINE",
"503 542 OFFCURVE",
"438 573 OFFCURVE",
"355 573 CURVE SMOOTH",
"174 573 OFFCURVE",
"48 463 OFFCURVE",
"48 288 CURVE SMOOTH",
"48 105 OFFCURVE",
"170 -10 OFFCURVE"
);
}
);
width = 684;
},
{
anchors = (
{
name = bot;
position = "{399, 0}";
},
{
name = top;
position = "{407, 563}";
}
);
layerId = "EFCDB4D9-E20B-4A8D-9DB5-150AD166B0AE";
paths = (
{
closed = 1;
nodes = (
"392 -11 CURVE SMOOTH",
"596 -11 OFFCURVE",
"694 81 OFFCURVE",
"697 295 CURVE",
"412 295 LINE",
"412 190 LINE",
"521 190 LINE",
"514 143 OFFCURVE",
"472 119 OFFCURVE",
"396 120 CURVE SMOOTH",
"322 120 OFFCURVE",
"243 168 OFFCURVE",
"243 277 CURVE SMOOTH",
"243 388 OFFCURVE",
"301 442 OFFCURVE",
"400 442 CURVE SMOOTH",
"467 442 OFFCURVE",
"524 415 OFFCURVE",
"562 345 CURVE",
"688 345 LINE",
"688 569 LINE",
"555 569 LINE",
"555 496 LINE",
"551 529 OFFCURVE",
"455 573 OFFCURVE",
"383 573 CURVE SMOOTH",
"188 573 OFFCURVE",
"46 453 OFFCURVE",
"46 277 CURVE SMOOTH",
"46 99 OFFCURVE",
"160 -11 OFFCURVE"
);
}
);
width = 762;
}
);
unicode = 0047;
userData = {
com.typemytype.robofont.layerData = {
b = {
anchors = (
);
components = (
);
contours = (
);
lib = {
};
name = G;
unicodes = (
);
width = 1394;
};
};
org.robofab.postScriptHintData = {
};
};
},
{
glyphname = H;
lastChange = "2016-08-04 10:04:12 +0000";
layers = (
{
anchors = (
{
name = bot;
position = "{364, 0}";
},
{
name = top;
position = "{364, 563}";
}
);
layerId = "98C086B7-81AA-4491-8494-0C6A76849168";
paths = (
{
closed = 1;
nodes = (
"60 0 LINE",
"260 0 LINE",
"260 22 LINE",
"175 22 LINE",
"175 273 LINE",
"555 273 LINE",
"555 22 LINE",
"470 22 LINE",
"470 0 LINE",
"669 0 LINE",
"669 22 LINE",
"584 22 LINE",
"584 541 LINE",
"669 541 LINE",
"669 563 LINE",
"470 563 LINE",
"470 541 LINE",
"555 541 LINE",
"555 296 LINE",
"175 296 LINE",
"175 541 LINE",
"260 541 LINE",
"260 563 LINE",
"60 563 LINE",
"60 541 LINE",
"145 541 LINE",
"145 22 LINE",
"60 22 LINE"
);
}
);
width = 730;
},
{
associatedMasterId = "98C086B7-81AA-4491-8494-0C6A76849168";
layerId = "1AF83A5C-D8F8-468E-85DE-118B24ECD71C";
name = b;
width = 735;
},
{
anchors = (
{
name = bot;
position = "{347, 0}";
},
{
name = top;
position = "{352, 563}";
}
);
layerId = "BE4F947C-73D7-4684-AEED-17801393DA53";
paths = (
{
closed = 1;
nodes = (
"39 0 LINE",
"277 0 LINE",
"277 53 LINE",
"199 53 LINE",
"199 261 LINE",
"499 261 LINE",
"499 53 LINE",
"420 53 LINE",
"420 0 LINE",
"658 0 LINE",
"658 53 LINE",
"580 53 LINE",
"580 510 LINE",
"658 510 LINE",
"658 563 LINE",
"420 563 LINE",
"420 510 LINE",
"499 510 LINE",
"499 318 LINE",
"199 318 LINE",
"199 510 LINE",
"277 510 LINE",
"277 563 LINE",
"39 563 LINE",
"39 510 LINE",
"117 510 LINE",
"117 53 LINE",
"39 53 LINE"
);
}
);
width = 697;
},
{
anchors = (
{
name = bot;
position = "{414, 0}";
},
{
name = top;
position = "{413, 563}";
}
);
layerId = "EFCDB4D9-E20B-4A8D-9DB5-150AD166B0AE";
paths = (
{
closed = 1;
nodes = (
"799 453 LINE",
"799 563 LINE",
"428 563 LINE",
"428 453 LINE",
"513 453 LINE",
"513 334 LINE",
"307 334 LINE",
"307 453 LINE",
"392 453 LINE",
"392 563 LINE",
"21 563 LINE",
"21 453 LINE",
"106 453 LINE",
"106 109 LINE",
"21 109 LINE",
"21 0 LINE",
"392 0 LINE",
"392 109 LINE",
"307 109 LINE",
"307 231 LINE",
"513 231 LINE",
"513 109 LINE",
"428 109 LINE",
"428 0 LINE",
"799 0 LINE",
"799 109 LINE",
"714 109 LINE",
"714 453 LINE"
);
}
);
width = 820;
}
);
unicode = 0048;
userData = {
com.typemytype.robofont.layerData = {
b = {
anchors = (
);
components = (
);
contours = (
);
lib = {
};
name = H;
unicodes = (
);
width = 1506;
};
};
org.robofab.postScriptHintData = {
};
};
},
{
glyphname = I;
lastChange = "2016-08-04 10:04:12 +0000";
layers = (
{
anchors = (
{
name = top;
position = "{157, 563}";
}
);
layerId = "98C086B7-81AA-4491-8494-0C6A76849168";
paths = (
{
closed = 1;
nodes = (
"55 0 LINE",
"255 0 LINE",
"255 22 LINE",
"170 22 LINE",
"170 541 LINE",
"255 541 LINE",
"255 563 LINE",
"55 563 LINE",
"55 541 LINE",
"140 541 LINE",
"140 22 LINE",
"55 22 LINE"
);
}
);
width = 311;
},
{
associatedMasterId = "98C086B7-81AA-4491-8494-0C6A76849168";
layerId = "DACE4A57-ED08-4CFE-9D0D-C36DFDEF4634";
name = b;
width = 306;
},
{
anchors = (
{
name = top;
position = "{170, 563}";
}
);
layerId = "BE4F947C-73D7-4684-AEED-17801393DA53";
paths = (
{
closed = 1;
nodes = (
"50 0 LINE",
"289 0 LINE",
"289 53 LINE",
"210 53 LINE",
"210 510 LINE",
"289 510 LINE",
"289 563 LINE",
"50 563 LINE",
"50 510 LINE",
"128 510 LINE",
"128 53 LINE",
"50 53 LINE"
);
}
);
width = 339;
},
{
anchors = (
{
name = ogonek;
position = "{184, 0}";
},
{
name = top;
position = "{198, 561}";
}
);
layerId = "EFCDB4D9-E20B-4A8D-9DB5-150AD166B0AE";
paths = (
{
closed = 1;
nodes = (
"16 109 LINE",
"16 0 LINE",
"387 0 LINE",
"387 109 LINE",
"302 109 LINE",
"302 453 LINE",
"387 453 LINE",
"387 563 LINE",
"16 563 LINE",
"16 453 LINE",
"101 453 LINE",
"101 109 LINE"
);
}
);
width = 403;
}
);
unicode = 0049;
userData = {
com.typemytype.robofont.layerData = {
b = {
anchors = (
);
components = (
);
contours = (
);
lib = {
};
name = I;
unicodes = (
);
width = 626;
};
};
org.robofab.postScriptHintData = {
};
};
},
{
glyphname = J;
lastChange = "2016-08-04 10:04:12 +0000";
layers = (
{
anchors = (
{
name = top;
position = "{172, 563}";
}
);
layerId = "98C086B7-81AA-4491-8494-0C6A76849168";
paths = (
{
closed = 1;
nodes = (
"49 -32 LINE",
"104 -32 LINE",
"159 -32 OFFCURVE",
"185 -17 OFFCURVE",
"185 73 CURVE SMOOTH",
"185 541 LINE",
"246 541 LINE",
"246 563 LINE",
"89 563 LINE",
"89 541 LINE",
"154 541 LINE",
"154 78 LINE SMOOTH",
"154 16 OFFCURVE",
"149 -9 OFFCURVE",
"109 -9 CURVE SMOOTH",
"49 -9 LINE"
);
}
);
width = 277;
},
{
associatedMasterId = "98C086B7-81AA-4491-8494-0C6A76849168";
layerId = "DAAAB9ED-565D-4E7A-8536-677C7F804F15";
name = b;
width = 269;
},
{
anchors = (
{
name = top;
position = "{191, 563}";
}
);
layerId = "BE4F947C-73D7-4684-AEED-17801393DA53";
paths = (
{
closed = 1;
nodes = (
"33 -106 LINE",
"106 -106 LINE",
"198 -106 OFFCURVE",
"231 -57 OFFCURVE",
"231 41 CURVE SMOOTH",
"231 510 LINE",
"304 510 LINE",
"304 563 LINE",
"73 563 LINE",
"73 510 LINE",
"150 510 LINE",
"150 40 LINE SMOOTH",
"150 -10 OFFCURVE",
"142 -42 OFFCURVE",
"93 -42 CURVE SMOOTH",
"33 -42 LINE"
);
}
);
width = 326;
},
{
anchors = (
{
name = top;
position = "{208, 563}";
}
);
layerId = "EFCDB4D9-E20B-4A8D-9DB5-150AD166B0AE";
paths = (
{
closed = 1;
nodes = (
"12 -13 LINE",
"12 -159 LINE",
"107 -159 LINE SMOOTH",
"294 -159 OFFCURVE",
"317 -44 OFFCURVE",
"317 117 CURVE SMOOTH",
"317 453 LINE",
"411 453 LINE",
"411 563 LINE",
"13 563 LINE",
"13 453 LINE",
"118 453 LINE",
"118 91 LINE SMOOTH",
"118 44 OFFCURVE",
"106 -13 OFFCURVE",
"54 -13 CURVE SMOOTH"
);
}
);
width = 426;
}
);
unicode = 004A;
userData = {
com.typemytype.robofont.layerData = {
b = {
anchors = (
);
components = (
);
contours = (
);
lib = {
};
name = J;
unicodes = (
);
width = 551;
};
};
org.robofab.postScriptHintData = {
};
};
},
{
glyphname = K;
lastChange = "2016-08-04 10:04:12 +0000";
layers = (
{
anchors = (
{
name = bot;
position = "{332, 0}";
},
{
name = top;
position = "{323, 563}";
}
);
guideLines = (
{
position = "{228, 290}";
}
);
layerId = "98C086B7-81AA-4491-8494-0C6A76849168";
paths = (
{
closed = 1;
nodes = (
"404 0 LINE",
"595 0 LINE",
"595 22 LINE",
"516 22 LINE",
"211 287 LINE",
"496 541 LINE",
"579 541 LINE",
"579 563 LINE",
"385 563 LINE",
"385 541 LINE",
"461 541 LINE",
"175 289 LINE",
"175 541 LINE",
"260 541 LINE",
"260 563 LINE",
"60 563 LINE",
"60 541 LINE",
"145 541 LINE",
"145 22 LINE",
"60 22 LINE",
"60 0 LINE",
"260 0 LINE",
"260 22 LINE",
"175 22 LINE",
"175 284 LINE",
"479 22 LINE",
"404 22 LINE"
);
}
);
width = 636;
},
{
associatedMasterId = "98C086B7-81AA-4491-8494-0C6A76849168";
layerId = "E21F7AEE-743B-4BDC-B398-DB9489CC4474";
name = b;
width = 637;
},
{
anchors = (
{
name = bot;
position = "{317, 0}";
},
{
name = top;
position = "{317, 563}";
}
);
guideLines = (
{
position = "{228, 290}";
}
);
layerId = "BE4F947C-73D7-4684-AEED-17801393DA53";
paths = (
{
closed = 1;
nodes = (
"364 0 LINE",
"605 0 LINE",
"605 53 LINE",
"530 53 LINE",
"282 284 LINE",
"526 510 LINE",
"600 510 LINE",
"600 563 LINE",
"367 563 LINE",
"367 510 LINE",
"431 510 LINE",
"199 295 LINE",
"199 510 LINE",
"277 510 LINE",
"277 563 LINE",
"39 563 LINE",
"39 510 LINE",
"117 510 LINE",
"117 53 LINE",
"39 53 LINE",
"39 0 LINE",
"277 0 LINE",
"277 53 LINE",
"199 53 LINE",
"199 267 LINE",
"430 53 LINE",
"364 53 LINE"
);
}
);
width = 633;
},
{
anchors = (
{
name = bot;
position = "{427, 0}";
},
{
name = top;
position = "{425, 563}";
}
);
guideLines = (
{
position = "{228, 290}";
}
);
layerId = "EFCDB4D9-E20B-4A8D-9DB5-150AD166B0AE";
paths = (
{
closed = 1;
nodes = (
"739 109 LINE",
"524 325 LINE",
"687 453 LINE",
"784 453 LINE",
"784 563 LINE",
"438 563 LINE",
"438 453 LINE",
"524 453 LINE",
"307 297 LINE",
"307 453 LINE",
"392 453 LINE",
"392 563 LINE",
"21 563 LINE",
"21 453 LINE",
"106 453 LINE",
"106 109 LINE",
"21 109 LINE",
"21 0 LINE",
"392 0 LINE",
"392 109 LINE",
"307 109 LINE",
"307 295 LINE",
"483 109 LINE",
"438 109 LINE",
"438 0 LINE",
"793 0 LINE",
"793 109 LINE"
);
}
);
width = 813;
}
);
unicode = 004B;
userData = {
com.typemytype.robofont.guides = (
{
angle = 0;
isGlobal = 0;
magnetic = 5;
x = 467;
y = 593;
}
);
com.typemytype.robofont.layerData = {
b = {
anchors = (
);
components = (
);
contours = (
);
lib = {
};
name = K;
unicodes = (
);
width = 1304;
};
};
org.robofab.postScriptHintData = {
};
};
},
{
glyphname = L;
lastChange = "2016-08-04 10:04:12 +0000";
layers = (
{
anchors = (
{
name = bot;
position = "{313, 0}";
},
{
name = caron.alt;
position = "{260, 393}";
},
{
name = top;
position = "{350, 563}";
}
);
layerId = "98C086B7-81AA-4491-8494-0C6A76849168";
paths = (
{
closed = 1;
nodes = (
"175 22 LINE",
"175 541 LINE",
"260 541 LINE",
"260 563 LINE",
"60 563 LINE",
"60 541 LINE",
"145 541 LINE",
"145 22 LINE",
"60 22 LINE",
"60 0 LINE",
"491 0 LINE",
"491 182 LINE",
"466 182 LINE",
"466 22 LINE"
);
}
);
width = 517;
},
{
associatedMasterId = "98C086B7-81AA-4491-8494-0C6A76849168";
layerId = "9D454392-E1FE-4228-8A29-7CFB70DD62E7";
name = b;
width = 515;
},
{
anchors = (
{
name = bot;
position = "{276, 0}";
},
{
name = caron.alt;
position = "{326, 393}";
},
{
name = top;
position = "{362, 563}";
}
);
layerId = "BE4F947C-73D7-4684-AEED-17801393DA53";
paths = (
{
closed = 1;
nodes = (
"199 53 LINE",
"199 510 LINE",
"277 510 LINE",
"277 563 LINE",
"39 563 LINE",
"39 510 LINE",
"117 510 LINE",
"117 53 LINE",
"39 53 LINE",
"39 0 LINE",
"499 0 LINE",
"499 226 LINE",
"433 226 LINE",
"433 53 LINE"
);
}
);
width = 525;
},
{
anchors = (
{
name = bot;
position = "{337, 0}";
},
{
name = caron.alt;
position = "{354, 457}";
},
{
name = mid;
position = "{166, 303}";
},
{
name = top;
position = "{182, 563}";
}
);
layerId = "EFCDB4D9-E20B-4A8D-9DB5-150AD166B0AE";
paths = (
{
closed = 1;
nodes = (
"478 286 LINE",
"478 109 LINE",
"307 109 LINE",
"307 453 LINE",
"392 453 LINE",
"392 563 LINE",
"21 563 LINE",
"21 453 LINE",
"106 453 LINE",
"106 109 LINE",
"21 109 LINE",
"21 0 LINE",
"638 0 LINE",
"638 286 LINE"
);
}
);
width = 672;
}
);
unicode = 004C;
userData = {
com.typemytype.robofont.layerData = {
b = {
anchors = (
);
components = (
);
contours = (
);
lib = {
};
name = L;
unicodes = (
);
width = 1055;
};
};
org.robofab.postScriptHintData = {
};
};
},
{
glyphname = Lslash;
lastChange = "2016-08-04 10:04:12 +0000";
layers = (
{
components = (
{
name = L;
}
);
layerId = "98C086B7-81AA-4491-8494-0C6A76849168";
paths = (
{
closed = 1;
nodes = (
"58 210 LINE",
"261 337 LINE",
"261 366 LINE",
"58 237 LINE"
);
}
);
width = 604;
},
{
associatedMasterId = "98C086B7-81AA-4491-8494-0C6A76849168";
layerId = "BA1BE605-30D4-47C1-A7F6-2C92B3CCB92C";
name = b;
width = 607;
},
{
components = (
{
name = L;
}
);
layerId = "BE4F947C-73D7-4684-AEED-17801393DA53";
paths = (
{
closed = 1;
nodes = (
"44 199 LINE",
"293 337 LINE",
"293 391 LINE",
"44 250 LINE"
);
}
);
width = 588;
},
{
components = (
{
name = L;
}
);
layerId = "EFCDB4D9-E20B-4A8D-9DB5-150AD166B0AE";
paths = (
{
closed = 1;
nodes = (
"14 170 LINE",
"415 331 LINE",
"415 409 LINE",
"14 251 LINE"
);
}
);
width = 645;
}
);
unicode = 0141;
userData = {
com.typemytype.robofont.layerData = {
b = {
anchors = (
);
components = (
);
contours = (
);
lib = {
};
name = Lslash;
unicodes = (
);
width = 1243;
};
};
org.robofab.postScriptHintData = {
};
};
},
{
glyphname = M;
lastChange = "2016-08-04 10:04:12 +0000";
layers = (
{
anchors = (
{
name = top;
position = "{391, 563}";
}
);
layerId = "98C086B7-81AA-4491-8494-0C6A76849168";
paths = (
{
closed = 1;
nodes = (
"67 0 LINE",
"245 0 LINE",
"245 22 LINE",
"169 22 LINE",
"169 514 LINE",
"398 48 LINE",
"404 48 LINE",
"622 514 LINE",
"622 22 LINE",
"545 22 LINE",
"545 0 LINE",
"726 0 LINE",
"726 22 LINE",
"651 22 LINE",
"651 541 LINE",
"726 541 LINE",
"726 563 LINE",
"615 563 LINE",
"402 104 LINE",
"176 563 LINE",
"67 563 LINE",
"67 541 LINE",
"142 541 LINE",
"142 22 LINE",
"67 22 LINE"
);
}
);
width = 790;
},
{
associatedMasterId = "98C086B7-81AA-4491-8494-0C6A76849168";
layerId = "8003861B-37E0-46C3-A351-46ECCC712170";
name = b;
width = 784;
},
{
anchors = (
{
name = top;
position = "{410, 563}";
}
);
layerId = "BE4F947C-73D7-4684-AEED-17801393DA53";
paths = (
{
closed = 1;
nodes = (
"41 0 LINE",
"251 0 LINE",
"251 53 LINE",
"178 53 LINE",
"178 496 LINE",
"393 29 LINE",
"419 29 LINE",
"631 496 LINE",
"631 53 LINE",
"558 53 LINE",
"558 0 LINE",
"785 0 LINE",
"785 53 LINE",
"709 53 LINE",
"709 510 LINE",
"785 510 LINE",
"785 563 LINE",
"591 563 LINE",
"416 168 LINE",
"232 563 LINE",
"41 563 LINE",
"41 510 LINE",
"117 510 LINE",
"117 53 LINE",
"41 53 LINE"
);
}
);
width = 824;
},
{
anchors = (
{
name = top;
position = "{499, 563}";
}
);
layerId = "EFCDB4D9-E20B-4A8D-9DB5-150AD166B0AE";
paths = (
{
closed = 1;
nodes = (
"21 109 LINE",
"21 0 LINE",
"312 0 LINE",
"312 109 LINE",
"237 109 LINE",
"237 441 LINE",
"416 11 LINE",
"507 11 LINE",
"688 441 LINE",
"688 109 LINE",
"606 109 LINE",
"606 0 LINE",
"976 0 LINE",
"976 109 LINE",
"883 109 LINE",
"883 453 LINE",
"974 453 LINE",
"974 563 LINE",
"630 563 LINE",
"499 261 LINE",
"368 563 LINE",
"21 563 LINE",
"21 453 LINE",
"107 453 LINE",
"107 109 LINE"
);
}
);
width = 998;
}
);
unicode = 004D;
userData = {
com.typemytype.robofont.layerData = {
b = {
anchors = (
);
components = (
);
contours = (
);
lib = {
};
name = M;
unicodes = (
);
width = 1606;
};
};
org.robofab.postScriptHintData = {
};
};
},
{
glyphname = N;
lastChange = "2016-08-04 10:04:12 +0000";
layers = (
{
anchors = (
{
name = bot;
position = "{348, 0}";
},
{
name = top;
position = "{352, 563}";
}
);
layerId = "98C086B7-81AA-4491-8494-0C6A76849168";
paths = (
{
closed = 1;
nodes = (
"64 0 LINE",
"237 0 LINE",
"237 22 LINE",
"164 22 LINE",
"164 518 LINE",
"574 0 LINE",
"604 0 LINE",
"604 541 LINE",
"667 541 LINE",
"667 563 LINE",
"502 563 LINE",
"502 541 LINE",
"577 541 LINE",
"577 42 LINE",
"164 563 LINE",
"64 563 LINE",
"64 541 LINE",
"136 541 LINE",
"136 22 LINE",
"64 22 LINE"
);
}
);
width = 705;
},
{
associatedMasterId = "98C086B7-81AA-4491-8494-0C6A76849168";
layerId = "A7199EE0-4705-4F4D-B08B-49BF6298EE89";
name = b;
width = 705;
},
{
anchors = (
{
name = bot;
position = "{351, 0}";
},
{
name = top;
position = "{351, 563}";
}
);
layerId = "BE4F947C-73D7-4684-AEED-17801393DA53";
paths = (
{
closed = 1;
nodes = (
"41 0 LINE",
"263 0 LINE",
"263 53 LINE",
"183 53 LINE",
"183 479 LINE",
"519 0 LINE",
"600 0 LINE",
"600 510 LINE",
"678 510 LINE",
"678 563 LINE",
"457 563 LINE",
"457 510 LINE",
"537 510 LINE",
"537 108 LINE",
"215 563 LINE",
"41 563 LINE",
"41 510 LINE",
"121 510 LINE",
"121 53 LINE",
"41 53 LINE"
);
}
);
width = 704;
},
{
anchors = (
{
name = bot;
position = "{478, 0}";
},
{
name = top;
position = "{450, 563}";
}
);
layerId = "EFCDB4D9-E20B-4A8D-9DB5-150AD166B0AE";
paths = (
{
closed = 1;
nodes = (
"21 109 LINE",
"21 0 LINE",
"324 0 LINE",
"324 109 LINE",
"239 109 LINE",
"239 374 LINE",
"576 0 LINE",
"737 0 LINE",
"737 453 LINE",
"832 453 LINE",
"832 563 LINE",
"525 563 LINE",
"525 453 LINE",
"607 453 LINE",
"607 269 LINE",
"323 563 LINE",
"21 563 LINE",
"21 453 LINE",
"112 453 LINE",
"112 109 LINE"
);
}
);
width = 850;
}
);
unicode = 004E;
userData = {
com.typemytype.robofont.layerData = {
b = {
anchors = (
);
components = (
);
contours = (
);
lib = {
};
name = N;
unicodes = (
);
width = 1444;
};
};
org.robofab.postScriptHintData = {
};
};
},
{
glyphname = Eng;
lastChange = "2016-08-04 10:04:12 +0000";
layers = (
{
layerId = "98C086B7-81AA-4491-8494-0C6A76849168";
paths = (
{
closed = 1;
nodes = (
"502 563 LINE",
"502 541 LINE",
"577 541 LINE",
"577 42 LINE",
"164 563 LINE",
"64 563 LINE",
"64 541 LINE",
"136 541 LINE",
"136 22 LINE",
"64 22 LINE",
"64 0 LINE",
"237 0 LINE",
"237 22 LINE",
"164 22 LINE",
"164 518 LINE",
"577 -2 LINE",
"577 -92 OFFCURVE",
"533 -152 OFFCURVE",
"420 -152 CURVE",
"420 -176 LINE",
"534 -176 OFFCURVE",
"604 -122 OFFCURVE",
"604 -1 CURVE SMOOTH",
"604 541 LINE",
"667 541 LINE",
"667 563 LINE"
);
}
);
width = 705;
},
{
layerId = "BE4F947C-73D7-4684-AEED-17801393DA53";
paths = (
{
closed = 1;
nodes = (
"457 563 LINE",
"457 510 LINE",
"537 510 LINE",
"537 108 LINE",
"215 563 LINE",
"41 563 LINE",
"41 510 LINE",
"121 510 LINE",
"121 53 LINE",
"41 53 LINE",
"41 0 LINE",
"263 0 LINE",
"263 53 LINE",
"183 53 LINE",
"183 479 LINE",
"537 -14 LINE",
"538 -93 OFFCURVE",
"488 -130 OFFCURVE",
"393 -130 CURVE",
"393 -184 LINE",
"508 -184 OFFCURVE",
"600 -139 OFFCURVE",
"600 -11 CURVE SMOOTH",
"600 510 LINE",
"678 510 LINE",
"678 563 LINE"
);
}
);
width = 704;
},
{
layerId = "EFCDB4D9-E20B-4A8D-9DB5-150AD166B0AE";
paths = (
{
closed = 1;
nodes = (
"832 453 LINE",
"832 563 LINE",
"525 563 LINE",
"525 453 LINE",
"607 453 LINE",
"607 269 LINE",
"323 563 LINE",
"21 563 LINE",
"21 453 LINE",
"112 453 LINE",
"112 109 LINE",
"21 109 LINE",
"21 0 LINE",
"324 0 LINE",
"324 109 LINE",
"239 109 LINE",
"239 374 LINE",
"608 9 LINE",
"608 -93 OFFCURVE",
"517 -90 OFFCURVE",
"458 -90 CURVE",
"458 -182 LINE",
"594 -182 OFFCURVE",
"737 -200 OFFCURVE",
"737 2 CURVE SMOOTH",
"737 453 LINE"
);
}
);
width = 860;
}
);
unicode = 014A;
userData = {
org.robofab.postScriptHintData = {
};
};
},
{
glyphname = O;
lastChange = "2016-08-04 10:04:12 +0000";
layers = (
{
anchors = (
{
name = top;
position = "{354, 563}";
}
);
layerId = "98C086B7-81AA-4491-8494-0C6A76849168";
paths = (
{
closed = 1;
nodes = (
"355 13 CURVE SMOOTH",
"172 13 OFFCURVE",
"91 147 OFFCURVE",
"91 279 CURVE SMOOTH",
"91 406 OFFCURVE",
"174 550 OFFCURVE",
"355 550 CURVE SMOOTH",
"535 550 OFFCURVE",
"620 406 OFFCURVE",
"620 279 CURVE SMOOTH",
"620 151 OFFCURVE",
"535 13 OFFCURVE"
);
},
{
closed = 1;
nodes = (
"354 -11 CURVE SMOOTH",
"557 -11 OFFCURVE",
"650 138 OFFCURVE",
"650 279 CURVE SMOOTH",
"650 419 OFFCURVE",
"556 573 OFFCURVE",
"355 573 CURVE SMOOTH",
"155 573 OFFCURVE",
"61 419 OFFCURVE",
"61 279 CURVE SMOOTH",
"61 140 OFFCURVE",
"153 -11 OFFCURVE"
);
}
);
width = 710;
},
{
associatedMasterId = "98C086B7-81AA-4491-8494-0C6A76849168";
layerId = "D20D7D24-1F55-413C-89DE-FC1F3C203A3E";
name = b;
width = 711;
},
{
anchors = (
{
name = top;
position = "{353, 563}";
}
);
layerId = "BE4F947C-73D7-4684-AEED-17801393DA53";
paths = (
{
closed = 1;
nodes = (
"354 49 CURVE SMOOTH",
"216 49 OFFCURVE",
"137 151 OFFCURVE",
"137 279 CURVE SMOOTH",
"137 408 OFFCURVE",
"216 514 OFFCURVE",
"354 514 CURVE SMOOTH",
"491 514 OFFCURVE",
"572 408 OFFCURVE",
"572 280 CURVE SMOOTH",
"572 153 OFFCURVE",
"491 49 OFFCURVE"
);
},
{
closed = 1;
nodes = (
"354 -11 CURVE SMOOTH",
"540 -11 OFFCURVE",
"659 122 OFFCURVE",
"659 280 CURVE SMOOTH",
"659 438 OFFCURVE",
"539 573 OFFCURVE",
"354 573 CURVE SMOOTH",
"169 573 OFFCURVE",
"49 438 OFFCURVE",
"49 280 CURVE SMOOTH",
"49 123 OFFCURVE",
"169 -11 OFFCURVE"
);
}
);
width = 709;
},
{
anchors = (
{
name = ogonek;
position = "{406, 0}";
},
{
name = top;
position = "{379, 561}";
}
);
layerId = "EFCDB4D9-E20B-4A8D-9DB5-150AD166B0AE";
paths = (
{
closed = 1;
nodes = (
"384 -11 CURVE SMOOTH",
"592 -14 OFFCURVE",
"729 100 OFFCURVE",
"729 279 CURVE SMOOTH",
"729 457 OFFCURVE",
"592 573 OFFCURVE",
"384 573 CURVE SMOOTH",
"176 573 OFFCURVE",
"39 457 OFFCURVE",
"39 278 CURVE SMOOTH",
"39 100 OFFCURVE",
"176 -14 OFFCURVE"
);
},
{
closed = 1;
nodes = (
"384 120 CURVE SMOOTH",
"294 120 OFFCURVE",
"236 186 OFFCURVE",
"236 285 CURVE SMOOTH",
"236 384 OFFCURVE",
"294 444 OFFCURVE",
"384 442 CURVE SMOOTH",
"474 444 OFFCURVE",
"532 384 OFFCURVE",
"532 285 CURVE SMOOTH",
"532 186 OFFCURVE",
"474 120 OFFCURVE"
);
}
);
width = 768;
}
);
unicode = 004F;
userData = {
com.typemytype.robofont.layerData = {
b = {
anchors = (
);
components = (
);
contours = (
);
lib = {
};
name = O;
unicodes = (
);
width = 1456;
};
};
org.robofab.postScriptHintData = {
};
};
},
{
glyphname = Oslash;
lastChange = "2016-08-04 10:04:12 +0000";
layers = (
{
components = (
{
name = O;
transform = "{1, 0, 0, 1, 3, -4}";
}
);
layerId = "98C086B7-81AA-4491-8494-0C6A76849168";
paths = (
{
closed = 1;
nodes = (
"132 -35 LINE",
"606 582 LINE",
"591 593 LINE",
"115 -23 LINE"
);
}
);
width = 773;
},
{
associatedMasterId = "98C086B7-81AA-4491-8494-0C6A76849168";
layerId = "1F2BFBB2-A292-4E8B-BBD8-D7EAE9DDF1C5";
name = b;
width = 780;
},
{
components = (
{
name = O;
transform = "{1, 0, 0, 1, 1, -1}";
}
);
layerId = "BE4F947C-73D7-4684-AEED-17801393DA53";
paths = (
{
closed = 1;
nodes = (
"142 -37 LINE",
"617 569 LINE",
"579 595 LINE",
"104 -10 LINE"
);
}
);
width = 729;
},
{
components = (
{
name = O;
}
);
layerId = "EFCDB4D9-E20B-4A8D-9DB5-150AD166B0AE";
paths = (
{
closed = 1;
nodes = (
"196 -55 LINE",
"665 566 LINE",
"591 618 LINE",
"123 -3 LINE"
);
}
);
width = 787;
}
);
unicode = 00D8;
userData = {
com.typemytype.robofont.layerData = {
b = {
anchors = (
);
components = (
);
contours = (
);
lib = {
};
name = Oslash;
unicodes = (
);
width = 1598;
};
};
org.robofab.postScriptHintData = {
};
};
},
{
glyphname = OE;
lastChange = "2016-08-04 10:04:12 +0000";
layers = (
{
layerId = "98C086B7-81AA-4491-8494-0C6A76849168";
paths = (
{
closed = 1;
nodes = (
"383 0 CURVE SMOOTH",
"892 0 LINE",
"892 190 LINE",
"866 190 LINE",
"866 24 LINE",
"521 24 LINE",
"521 264 LINE",
"751 264 LINE",
"751 171 LINE",
"773 171 LINE",
"773 372 LINE",
"751 372 LINE",
"751 288 LINE",
"521 288 LINE",
"521 538 LINE",
"853 538 LINE",
"853 384 LINE",
"878 384 LINE",
"878 563 LINE",
"383 563 LINE SMOOTH",
"185 563 OFFCURVE",
"65 457 OFFCURVE",
"64 279 CURVE SMOOTH",
"65 104 OFFCURVE",
"185 0 OFFCURVE"
);
},
{
closed = 1;
nodes = (
"384 24 LINE",
"205 24 OFFCURVE",
"94 121 OFFCURVE",
"94 279 CURVE SMOOTH",
"94 443 OFFCURVE",
"207 538 OFFCURVE",
"384 538 CURVE SMOOTH",
"491 538 LINE",
"491 24 LINE"
);
}
);
width = 958;
},
{
associatedMasterId = "98C086B7-81AA-4491-8494-0C6A76849168";
layerId = "6ED7BE39-3096-4A6D-91AA-535D6DED8F53";
name = b;
width = 954;
},
{
layerId = "BE4F947C-73D7-4684-AEED-17801393DA53";
paths = (
{
closed = 1;
nodes = (
"389 0 CURVE SMOOTH",
"930 0 LINE",
"930 174 LINE",
"867 174 LINE",
"867 52 LINE",
"596 52 LINE",
"596 259 LINE",
"773 259 LINE",
"773 193 LINE",
"814 193 LINE",
"814 378 LINE",
"773 378 LINE",
"773 313 LINE",
"596 313 LINE",
"596 510 LINE",
"862 510 LINE",
"862 394 LINE",
"925 394 LINE",
"925 563 LINE",
"388 563 LINE SMOOTH",
"195 563 OFFCURVE",
"75 456 OFFCURVE",
"75 283 CURVE SMOOTH",
"75 108 OFFCURVE",
"195 0 OFFCURVE"
);
},
{
closed = 1;
nodes = (
"395 52 LINE",
"251 52 OFFCURVE",
"162 141 OFFCURVE",
"162 282 CURVE SMOOTH",
"162 424 OFFCURVE",
"252 510 OFFCURVE",
"394 510 CURVE SMOOTH",
"515 510 LINE",
"515 52 LINE"
);
}
);
width = 985;
},
{
layerId = "EFCDB4D9-E20B-4A8D-9DB5-150AD166B0AE";
paths = (
{
closed = 1;
nodes = (
"576 0 CURVE SMOOTH",
"1156 0 LINE",
"1156 188 LINE",
"1012 188 LINE",
"1012 99 LINE",
"831 99 LINE",
"831 257 LINE",
"920 257 LINE",
"920 215 LINE",
"972 215 LINE",
"972 399 LINE",
"920 399 LINE",
"920 376 LINE",
"834 376 LINE",
"834 461 LINE",
"1013 461 LINE",
"1013 375 LINE",
"1149 375 LINE",
"1149 563 LINE",
"575 563 LINE SMOOTH",
"288 564 OFFCURVE",
"136 492 OFFCURVE",
"134 297 CURVE SMOOTH",
"136 83 OFFCURVE",
"289 0 OFFCURVE"
);
},
{
closed = 1;
nodes = (
"532 99 LINE",
"417 96 OFFCURVE",
"351 163 OFFCURVE",
"349 292 CURVE SMOOTH",
"351 405 OFFCURVE",
"437 460 OFFCURVE",
"542 461 CURVE SMOOTH",
"630 463 LINE",
"630 103 LINE"
);
}
);
width = 1206;
}
);
unicode = 0152;
userData = {
com.typemytype.robofont.layerData = {
b = {
anchors = (
);
components = (
);
contours = (
);
lib = {
};
name = OE;
unicodes = (
);
width = 1953;
};
};
org.robofab.postScriptHintData = {
};
};
},
{
glyphname = P;
lastChange = "2016-08-04 10:04:12 +0000";
layers = (
{
anchors = (
{
name = top;
position = "{326, 563}";
}
);
layerId = "98C086B7-81AA-4491-8494-0C6A76849168";
paths = (
{
closed = 1;
nodes = (
"60 0 LINE",
"260 0 LINE",
"260 22 LINE",
"175 22 LINE",
"175 541 LINE",
"362 541 LINE SMOOTH",
"446 541 OFFCURVE",
"495 494 OFFCURVE",
"495 413 CURVE SMOOTH",
"495 319 OFFCURVE",
"447 264 OFFCURVE",
"365 264 CURVE SMOOTH",
"222 264 LINE",
"221 243 LINE",
"365 243 LINE SMOOTH",
"466 243 OFFCURVE",
"525 306 OFFCURVE",
"525 414 CURVE SMOOTH",
"525 508 OFFCURVE",
"465 563 OFFCURVE",
"361 563 CURVE SMOOTH",
"60 563 LINE",
"60 541 LINE",
"145 541 LINE",
"145 22 LINE",
"60 22 LINE"
);
}
);
width = 593;
},
{
associatedMasterId = "98C086B7-81AA-4491-8494-0C6A76849168";
layerId = "0A99DEE9-4221-46D3-8A42-95E309669A94";
name = b;
paths = (
{
closed = 1;
nodes = (
"172 535 LINE",
"371 535 LINE SMOOTH",
"457 535 OFFCURVE",
"500 469 OFFCURVE",
"500 402 CURVE SMOOTH",
"500 333 OFFCURVE",
"456 266 OFFCURVE",
"371 266 CURVE SMOOTH",
"172 266 LINE"
);
},
{
closed = 1;
nodes = (
"66 0 LINE",
"250 0 LINE",
"250 28 LINE",
"172 28 LINE",
"172 236 LINE",
"371 236 LINE SMOOTH",
"480 236 OFFCURVE",
"536 320 OFFCURVE",
"536 403 CURVE SMOOTH",
"536 483 OFFCURVE",
"480 563 OFFCURVE",
"371 563 CURVE SMOOTH",
"60 563 LINE",
"60 535 LINE",
"136 535 LINE",
"136 28 LINE",
"66 28 LINE"
);
}
);
width = 599;
},
{
anchors = (
{
name = top;
position = "{291, 563}";
}
);
layerId = "BE4F947C-73D7-4684-AEED-17801393DA53";
paths = (
{
closed = 1;
nodes = (
"39 0 LINE",
"277 0 LINE",
"277 53 LINE",
"199 53 LINE",
"199 510 LINE",
"326 510 LINE SMOOTH",
"402 510 OFFCURVE",
"444 472 OFFCURVE",
"444 402 CURVE SMOOTH",
"444 327 OFFCURVE",
"396 286 OFFCURVE",
"309 286 CURVE SMOOTH",
"237 286 LINE",
"237 233 LINE",
"312 233 LINE SMOOTH",
"452 233 OFFCURVE",
"528 293 OFFCURVE",
"528 403 CURVE SMOOTH",
"528 507 OFFCURVE",
"454 563 OFFCURVE",
"317 563 CURVE SMOOTH",
"39 563 LINE",
"39 510 LINE",
"117 510 LINE",
"117 53 LINE",
"39 53 LINE"
);
}
);
width = 563;
},
{
anchors = (
{
name = top;
position = "{302, 563}";
}
);
layerId = "EFCDB4D9-E20B-4A8D-9DB5-150AD166B0AE";
paths = (
{
closed = 1;
nodes = (
"346 322 LINE",
"346 220 LINE",
"355 220 LINE SMOOTH",
"604 220 OFFCURVE",
"646 272 OFFCURVE",
"646 394 CURVE SMOOTH",
"646 529 OFFCURVE",
"558 563 OFFCURVE",
"396 563 CURVE SMOOTH",
"21 563 LINE",
"21 453 LINE",
"106 453 LINE",
"106 109 LINE",
"21 109 LINE",
"21 0 LINE",
"392 0 LINE",
"392 109 LINE",
"307 109 LINE",
"307 453 LINE",
"394 453 LINE SMOOTH",
"416 453 OFFCURVE",
"447 438 OFFCURVE",
"447 395 CURVE SMOOTH",
"447 348 OFFCURVE",
"436 322 OFFCURVE",
"369 322 CURVE SMOOTH"
);
}
);
width = 665;
}
);
unicode = 0050;
userData = {
com.typemytype.robofont.layerData = {
b = {
anchors = (
);
components = (
);
contours = (
{
points = (
{
segmentType = line;
smooth = 0;
x = 353;
y = 1095;
},
{
segmentType = line;
smooth = 1;
x = 759;
y = 1095;
},
{
smooth = 0;
x = 936;
y = 1095;
},
{
smooth = 0;
x = 1024;
y = 960;
},
{
segmentType = curve;
smooth = 1;
x = 1024;
y = 823;
},
{
smooth = 0;
x = 1024;
y = 683;
},
{
smooth = 0;
x = 934;
y = 544;
},
{
segmentType = curve;
smooth = 1;
x = 759;
y = 544;
},
{
segmentType = line;
smooth = 0;
x = 353;
y = 544;
}
);
},
{
points = (
{
segmentType = line;
smooth = 0;
x = 135;
y = 0;
},
{
segmentType = line;
smooth = 0;
x = 512;
y = 0;
},
{
segmentType = line;
smooth = 0;
x = 512;
y = 58;
},
{
segmentType = line;
smooth = 0;
x = 353;
y = 58;
},
{
segmentType = line;
smooth = 0;
x = 353;
y = 483;
},
{
segmentType = line;
smooth = 1;
x = 759;
y = 483;
},
{
smooth = 0;
x = 984;
y = 483;
},
{
smooth = 0;
x = 1098;
y = 656;
},
{
segmentType = curve;
smooth = 1;
x = 1098;
y = 826;
},
{
smooth = 0;
x = 1098;
y = 989;
},
{
smooth = 0;
x = 984;
y = 1154;
},
{
segmentType = curve;
smooth = 1;
x = 759;
y = 1154;
},
{
segmentType = line;
smooth = 0;
x = 122;
y = 1154;
},
{
segmentType = line;
smooth = 0;
x = 122;
y = 1095;
},
{
segmentType = line;
smooth = 0;
x = 278;
y = 1095;
},
{
segmentType = line;
smooth = 0;
x = 278;
y = 58;
},
{
segmentType = line;
smooth = 0;
x = 135;
y = 58;
}
);
}
);
lib = {
};
name = P;
unicodes = (
);
width = 1226;
};
};
org.robofab.postScriptHintData = {
};
};
},
{
glyphname = Thorn;
lastChange = "2016-08-04 10:04:12 +0000";
layers = (
{
components = (
{
name = I;
}
);
layerId = "98C086B7-81AA-4491-8494-0C6A76849168";
paths = (
{
closed = 1;
nodes = (
"222 166 LINE",
"358 166 LINE SMOOTH",
"457 166 OFFCURVE",
"515 222 OFFCURVE",
"515 317 CURVE SMOOTH",
"515 398 OFFCURVE",
"455 446 OFFCURVE",
"353 446 CURVE SMOOTH",
"154 446 LINE",
"154 425 LINE",
"353 425 LINE SMOOTH",
"436 425 OFFCURVE",
"484 385 OFFCURVE",
"485 317 CURVE SMOOTH",
"485 235 OFFCURVE",
"438 187 OFFCURVE",
"359 187 CURVE SMOOTH",
"222 187 LINE"
);
}
);
width = 592;
},
{
associatedMasterId = "98C086B7-81AA-4491-8494-0C6A76849168";
layerId = "14B42727-008A-42B0-A22A-E34271F2BC05";
name = b;
width = 599;
},
{
components = (
{
name = I;
}
);
layerId = "BE4F947C-73D7-4684-AEED-17801393DA53";
paths = (
{
closed = 1;
nodes = (
"240 160 LINE",
"333 160 LINE SMOOTH",
"453 160 OFFCURVE",
"520 211 OFFCURVE",
"520 306 CURVE SMOOTH",
"520 394 OFFCURVE",
"452 446 OFFCURVE",
"331 446 CURVE SMOOTH",
"158 446 LINE",
"158 394 LINE",
"331 394 LINE SMOOTH",
"400 394 OFFCURVE",
"442 361 OFFCURVE",
"442 306 CURVE SMOOTH",
"442 241 OFFCURVE",
"401 208 OFFCURVE",
"333 208 CURVE SMOOTH",
"240 208 LINE"
);
}
);
width = 550;
},
{
layerId = "EFCDB4D9-E20B-4A8D-9DB5-150AD166B0AE";
paths = (
{
closed = 1;
nodes = (
"332 234 LINE",
"332 164 LINE",
"334 164 LINE SMOOTH",
"606 164 OFFCURVE",
"664 206 OFFCURVE",
"664 290 CURVE SMOOTH",
"664 389 OFFCURVE",
"576 410 OFFCURVE",
"408 410 CURVE SMOOTH",
"306 410 LINE",
"306 453 LINE",
"391 453 LINE",
"391 563 LINE",
"20 563 LINE",
"20 453 LINE",
"104 453 LINE",
"104 109 LINE",
"20 109 LINE",
"20 0 LINE",
"391 0 LINE",
"391 109 LINE",
"306 109 LINE",
"306 337 LINE",
"401 337 LINE SMOOTH",
"424 337 OFFCURVE",
"456 326 OFFCURVE",
"456 290 CURVE SMOOTH",
"456 258 OFFCURVE",
"442 234 OFFCURVE",
"370 234 CURVE SMOOTH"
);
}
);
width = 671;
}
);
unicode = 00DE;
userData = {
com.typemytype.robofont.layerData = {
b = {
anchors = (
);
components = (
);
contours = (
);
lib = {
};
name = Thorn;
unicodes = (
);
width = 1226;
};
};
org.robofab.postScriptHintData = {
};
};
},
{
glyphname = Q;
lastChange = "2016-08-04 10:04:12 +0000";
layers = (
{
layerId = "98C086B7-81AA-4491-8494-0C6A76849168";
paths = (
{
closed = 1;
nodes = (
"566 -91 CURVE",
"562 -71 LINE",
"540 -78 OFFCURVE",
"522 -82 OFFCURVE",
"506 -82 CURVE SMOOTH",
"458 -82 OFFCURVE",
"428 -52 OFFCURVE",
"378 -10 CURVE",
"565 0 OFFCURVE",
"650 144 OFFCURVE",
"650 279 CURVE SMOOTH",
"650 419 OFFCURVE",
"556 573 OFFCURVE",
"355 573 CURVE SMOOTH",
"155 573 OFFCURVE",
"61 419 OFFCURVE",
"61 279 CURVE SMOOTH",
"61 142 OFFCURVE",
"150 -7 OFFCURVE",
"347 -11 CURVE",
"411 -65 OFFCURVE",
"448 -103 OFFCURVE",
"505 -103 CURVE SMOOTH",
"523 -103 OFFCURVE",
"542 -99 OFFCURVE"
);
},
{
closed = 1;
nodes = (
"355 13 CURVE SMOOTH",
"172 13 OFFCURVE",
"91 147 OFFCURVE",
"91 279 CURVE SMOOTH",
"91 406 OFFCURVE",
"174 550 OFFCURVE",
"355 550 CURVE SMOOTH",
"535 550 OFFCURVE",
"620 406 OFFCURVE",
"620 279 CURVE SMOOTH",
"620 151 OFFCURVE",
"535 13 OFFCURVE"
);
}
);
width = 703;
},
{
associatedMasterId = "98C086B7-81AA-4491-8494-0C6A76849168";
layerId = "52282A1A-0BF6-4A3B-A542-D68AE1C4237C";
name = b;
width = 702;
},
{
layerId = "BE4F947C-73D7-4684-AEED-17801393DA53";
paths = (
{
closed = 1;
nodes = (
"583 -125 CURVE",
"582 -72 LINE",
"561 -77 OFFCURVE",
"542 -80 OFFCURVE",
"525 -80 CURVE SMOOTH",
"466 -80 OFFCURVE",
"432 -48 OFFCURVE",
"398 -8 CURVE",
"560 11 OFFCURVE",
"659 135 OFFCURVE",
"659 280 CURVE SMOOTH",
"659 438 OFFCURVE",
"539 573 OFFCURVE",
"354 573 CURVE SMOOTH",
"169 573 OFFCURVE",
"49 438 OFFCURVE",
"49 280 CURVE SMOOTH",
"49 131 OFFCURVE",
"156 2 OFFCURVE",
"327 -9 CURVE",
"378 -86 OFFCURVE",
"443 -134 OFFCURVE",
"525 -134 CURVE SMOOTH",
"543 -134 OFFCURVE",
"563 -131 OFFCURVE"
);
},
{
closed = 1;
nodes = (
"354 49 CURVE SMOOTH",
"216 49 OFFCURVE",
"137 151 OFFCURVE",
"137 279 CURVE SMOOTH",
"137 408 OFFCURVE",
"216 514 OFFCURVE",
"354 514 CURVE SMOOTH",
"491 514 OFFCURVE",
"572 408 OFFCURVE",
"572 280 CURVE SMOOTH",
"572 153 OFFCURVE",
"491 49 OFFCURVE"
);
}
);
width = 706;
},
{
anchors = (
{
name = ogonek;
position = "{406, 0}";
},
{
name = top;
position = "{379, 561}";
}
);
layerId = "EFCDB4D9-E20B-4A8D-9DB5-150AD166B0AE";
paths = (
{
closed = 1;
nodes = (
"686 -174 CURVE",
"686 -48 LINE",
"599 -77 OFFCURVE",
"491 -93 OFFCURVE",
"454 -7 CURVE",
"622 13 OFFCURVE",
"729 120 OFFCURVE",
"729 279 CURVE SMOOTH",
"729 457 OFFCURVE",
"592 573 OFFCURVE",
"384 573 CURVE SMOOTH",
"176 573 OFFCURVE",
"39 457 OFFCURVE",
"39 278 CURVE SMOOTH",
"39 132 OFFCURVE",
"130 30 OFFCURVE",
"278 -1 CURVE",
"329 -215 OFFCURVE",
"554 -214 OFFCURVE"
);
},
{
closed = 1;
nodes = (
"384 120 CURVE SMOOTH",
"294 120 OFFCURVE",
"236 186 OFFCURVE",
"236 285 CURVE SMOOTH",
"236 384 OFFCURVE",
"294 444 OFFCURVE",
"384 442 CURVE SMOOTH",
"474 444 OFFCURVE",
"532 384 OFFCURVE",
"532 285 CURVE SMOOTH",
"532 186 OFFCURVE",
"474 120 OFFCURVE"
);
}
);
width = 768;
}
);
unicode = 0051;
userData = {
com.typemytype.robofont.layerData = {
b = {
anchors = (
);
components = (
);
contours = (
);
lib = {
};
name = Q;
unicodes = (
);
width = 1438;
};
};
org.robofab.postScriptHintData = {
};
};
},
{
glyphname = R;
lastChange = "2016-08-04 10:04:12 +0000";
layers = (
{
anchors = (
{
name = bot;
position = "{347, 0}";
},
{
name = top;
position = "{317, 563}";
}
);
layerId = "98C086B7-81AA-4491-8494-0C6A76849168";
paths = (
{
closed = 1;
nodes = (
"483 0 LINE",
"586 0 LINE",
"586 22 LINE",
"503 22 LINE",
"352 264 LINE",
"486 266 OFFCURVE",
"526 340 OFFCURVE",
"526 413 CURVE SMOOTH",
"526 487 OFFCURVE",
"481 563 OFFCURVE",
"366 563 CURVE SMOOTH",
"60 563 LINE",
"60 541 LINE",
"145 541 LINE",
"145 22 LINE",
"60 22 LINE",
"60 0 LINE",
"260 0 LINE",
"260 22 LINE",
"175 22 LINE",
"175 541 LINE",
"368 541 LINE SMOOTH",
"465 541 OFFCURVE",
"497 474 OFFCURVE",
"497 413 CURVE SMOOTH",
"497 356 OFFCURVE",
"469 285 OFFCURVE",
"340 285 CURVE SMOOTH",
"209 285 LINE",
"209 263 LINE",
"320 263 LINE"
);
}
);
width = 631;
},
{
associatedMasterId = "98C086B7-81AA-4491-8494-0C6A76849168";
layerId = "AD679A57-3218-49CD-BD34-4CA76B9861A3";
name = b;
paths = (
{
closed = 1;
nodes = (
"66 0 LINE",
"250 0 LINE",
"250 28 LINE",
"172 28 LINE",
"172 263 LINE",
"313 263 LINE",
"469 0 LINE",
"575 0 LINE",
"575 28 LINE",
"496 28 LINE",
"352 263 LINE",
"461 263 OFFCURVE",
"517 340 OFFCURVE",
"517 414 CURVE SMOOTH",
"517 488 OFFCURVE",
"461 563 OFFCURVE",
"352 563 CURVE SMOOTH",
"60 563 LINE",
"60 535 LINE",
"136 535 LINE",
"136 28 LINE",
"66 28 LINE"
);
},
{
closed = 1;
nodes = (
"172 535 LINE",
"352 535 LINE SMOOTH",
"438 535 OFFCURVE",
"481 474 OFFCURVE",
"481 413 CURVE SMOOTH",
"481 353 OFFCURVE",
"438 293 OFFCURVE",
"352 293 CURVE SMOOTH",
"172 293 LINE"
);
}
);
width = 633;
},
{
anchors = (
{
name = bot;
position = "{324, 0}";
},
{
name = top;
position = "{292, 563}";
}
);
layerId = "BE4F947C-73D7-4684-AEED-17801393DA53";
paths = (
{
closed = 1;
nodes = (
"454 0 LINE",
"593 0 LINE",
"593 53 LINE",
"510 53 LINE",
"381 266 LINE",
"485 282 OFFCURVE",
"526 338 OFFCURVE",
"526 416 CURVE SMOOTH",
"526 514 OFFCURVE",
"453 563 OFFCURVE",
"335 563 CURVE SMOOTH",
"39 563 LINE",
"39 510 LINE",
"117 510 LINE",
"117 53 LINE",
"39 53 LINE",
"39 0 LINE",
"277 0 LINE",
"277 53 LINE",
"199 53 LINE",
"199 510 LINE",
"336 510 LINE SMOOTH",
"412 510 OFFCURVE",
"445 467 OFFCURVE",
"445 415 CURVE SMOOTH",
"445 366 OFFCURVE",
"420 313 OFFCURVE",
"322 313 CURVE SMOOTH",
"234 313 LINE",
"234 258 LINE",
"303 258 LINE"
);
}
);
width = 619;
},
{
anchors = (
{
name = bot;
position = "{382, 0}";
},
{
name = top;
position = "{297, 563}";
}
);
layerId = "EFCDB4D9-E20B-4A8D-9DB5-150AD166B0AE";
paths = (
{
closed = 1;
nodes = (
"656 110 LINE",
"577 251 LINE",
"616 263 OFFCURVE",
"696 284 OFFCURVE",
"696 407 CURVE SMOOTH",
"696 541 OFFCURVE",
"592 563 OFFCURVE",
"457 563 CURVE SMOOTH",
"21 563 LINE",
"21 453 LINE",
"106 453 LINE",
"106 109 LINE",
"21 109 LINE",
"21 0 LINE",
"392 0 LINE",
"392 109 LINE",
"307 109 LINE",
"307 453 LINE",
"425 453 LINE SMOOTH",
"476 453 OFFCURVE",
"496 426 OFFCURVE",
"496 396 CURVE SMOOTH",
"496 356 OFFCURVE",
"477 334 OFFCURVE",
"416 334 CURVE SMOOTH",
"348 334 LINE",
"348 233 LINE",
"385 233 LINE",
"507 0 LINE",
"736 0 LINE",
"736 110 LINE"
);
}
);
width = 766;
}
);
unicode = 0052;
userData = {
com.typemytype.robofont.layerData = {
b = {
anchors = (
);
components = (
);
contours = (
{
points = (
{
segmentType = line;
smooth = 0;
x = 135;
y = 0;
},
{
segmentType = line;
smooth = 0;
x = 512;
y = 0;
},
{
segmentType = line;
smooth = 0;
x = 512;
y = 58;
},
{
segmentType = line;
smooth = 0;
x = 353;
y = 58;
},
{
segmentType = line;
smooth = 0;
x = 353;
y = 539;
},
{
segmentType = line;
smooth = 0;
x = 641;
y = 539;
},
{
segmentType = line;
smooth = 0;
x = 961;
y = 0;
},
{
segmentType = line;
smooth = 0;
x = 1178;
y = 0;
},
{
segmentType = line;
smooth = 0;
x = 1178;
y = 58;
},
{
segmentType = line;
smooth = 0;
x = 1015;
y = 58;
},
{
segmentType = line;
smooth = 0;
x = 721;
y = 539;
},
{
smooth = 0;
x = 945;
y = 539;
},
{
smooth = 0;
x = 1059;
y = 696;
},
{
segmentType = curve;
smooth = 1;
x = 1059;
y = 848;
},
{
smooth = 0;
x = 1059;
y = 1000;
},
{
smooth = 0;
x = 945;
y = 1154;
},
{
segmentType = curve;
smooth = 1;
x = 721;
y = 1154;
},
{
segmentType = line;
smooth = 0;
x = 122;
y = 1154;
},
{
segmentType = line;
smooth = 0;
x = 122;
y = 1095;
},
{
segmentType = line;
smooth = 0;
x = 278;
y = 1095;
},
{
segmentType = line;
smooth = 0;
x = 278;
y = 58;
},
{
segmentType = line;
smooth = 0;
x = 135;
y = 58;
}
);
},
{
points = (
{
segmentType = line;
smooth = 0;
x = 353;
y = 1095;
},
{
segmentType = line;
smooth = 1;
x = 721;
y = 1095;
},
{
smooth = 0;
x = 898;
y = 1095;
},
{
smooth = 0;
x = 985;
y = 971;
},
{
segmentType = curve;
smooth = 1;
x = 985;
y = 845;
},
{
smooth = 0;
x = 985;
y = 723;
},
{
smooth = 0;
x = 896;
y = 600;
},
{
segmentType = curve;
smooth = 1;
x = 721;
y = 600;
},
{
segmentType = line;
smooth = 0;
x = 353;
y = 600;
}
);
}
);
lib = {
};
name = R;
unicodes = (
);
width = 1296;
};
};
org.robofab.postScriptHintData = {
};
};
},
{
glyphname = S;
lastChange = "2016-08-04 10:04:12 +0000";
layers = (
{
anchors = (
{
name = bot;
position = "{313, 0}";
},
{
name = top;
position = "{283, 563}";
}
);
layerId = "98C086B7-81AA-4491-8494-0C6A76849168";
paths = (
{
closed = 1;
nodes = (
"311 -11 CURVE SMOOTH",
"472 -11 OFFCURVE",
"500 92 OFFCURVE",
"500 144 CURVE SMOOTH",
"500 275 OFFCURVE",
"405 285 OFFCURVE",
"298 296 CURVE SMOOTH",
"200 306 OFFCURVE",
"113 317 OFFCURVE",
"113 418 CURVE SMOOTH",
"113 491 OFFCURVE",
"162 550 OFFCURVE",
"279 550 CURVE SMOOTH",
"373 550 OFFCURVE",
"437 507 OFFCURVE",
"440 466 CURVE SMOOTH",
"439 412 LINE",
"467 412 LINE",
"467 563 LINE",
"439 563 LINE",
"439 509 LINE",
"415 551 OFFCURVE",
"332 573 OFFCURVE",
"276 573 CURVE SMOOTH",
"170 573 OFFCURVE",
"85 524 OFFCURVE",
"85 419 CURVE SMOOTH",
"85 293 OFFCURVE",
"191 280 OFFCURVE",
"293 271 CURVE SMOOTH",
"401 262 OFFCURVE",
"472 246 OFFCURVE",
"472 147 CURVE SMOOTH",
"472 80 OFFCURVE",
"432 13 OFFCURVE",
"311 13 CURVE SMOOTH",
"194 13 OFFCURVE",
"133 45 OFFCURVE",
"114 115 CURVE",
"114 189 LINE",
"86 189 LINE",
"86 0 LINE",
"114 0 LINE",
"114 72 LINE",
"140 12 OFFCURVE",
"214 -11 OFFCURVE"
);
}
);
width = 553;
},
{
associatedMasterId = "98C086B7-81AA-4491-8494-0C6A76849168";
layerId = "1E46E045-873A-41D6-8967-D550FD9CC2B7";
name = b;
paths = (
{
closed = 1;
nodes = (
"311 -11 CURVE SMOOTH",
"454 -11 OFFCURVE",
"501 83 OFFCURVE",
"501 144 CURVE SMOOTH",
"501 265 OFFCURVE",
"405 292 OFFCURVE",
"296 304 CURVE SMOOTH",
"198 314 OFFCURVE",
"131 326 OFFCURVE",
"131 416 CURVE SMOOTH",
"131 487 OFFCURVE",
"176 539 OFFCURVE",
"280 539 CURVE SMOOTH",
"351 539 OFFCURVE",
"432 500 OFFCURVE",
"432 459 CURVE SMOOTH",
"432 410 LINE",
"468 410 LINE",
"468 563 LINE",
"432 563 LINE",
"432 512 LINE",
"404 552 OFFCURVE",
"329 572 OFFCURVE",
"274 572 CURVE SMOOTH",
"176 572 OFFCURVE",
"90 521 OFFCURVE",
"90 421 CURVE SMOOTH",
"90 310 OFFCURVE",
"162 283 OFFCURVE",
"285 270 CURVE SMOOTH",
"393 259 OFFCURVE",
"460 238 OFFCURVE",
"460 146 CURVE SMOOTH",
"460 83 OFFCURVE",
"406 23 OFFCURVE",
"314 23 CURVE SMOOTH",
"219 23 OFFCURVE",
"127 58 OFFCURVE",
"127 121 CURVE SMOOTH",
"127 189 LINE",
"91 189 LINE",
"91 0 LINE",
"127 0 LINE",
"127 60 LINE",
"164 11 OFFCURVE",
"242 -11 OFFCURVE"
);
}
);
width = 558;
},
{
anchors = (
{
name = bot;
position = "{295, 0}";
},
{
name = top;
position = "{273, 563}";
}
);
layerId = "BE4F947C-73D7-4684-AEED-17801393DA53";
paths = (
{
closed = 1;
nodes = (
"294 -10 CURVE SMOOTH",
"417 -10 OFFCURVE",
"485 65 OFFCURVE",
"485 151 CURVE SMOOTH",
"485 279 OFFCURVE",
"398 304 OFFCURVE",
"285 322 CURVE SMOOTH",
"196 335 OFFCURVE",
"141 353 OFFCURVE",
"141 422 CURVE SMOOTH",
"141 477 OFFCURVE",
"179 516 OFFCURVE",
"262 516 CURVE SMOOTH",
"324 516 OFFCURVE",
"369 493 OFFCURVE",
"389 456 CURVE SMOOTH",
"389 404 LINE",
"453 404 LINE",
"453 564 LINE",
"389 564 LINE",
"389 522 LINE",
"359 556 OFFCURVE",
"303 573 OFFCURVE",
"254 573 CURVE SMOOTH",
"147 573 OFFCURVE",
"68 523 OFFCURVE",
"68 420 CURVE SMOOTH",
"68 299 OFFCURVE",
"162 271 OFFCURVE",
"271 256 CURVE SMOOTH",
"361 244 OFFCURVE",
"407 222 OFFCURVE",
"407 149 CURVE SMOOTH",
"407 95 OFFCURVE",
"371 48 OFFCURVE",
"290 48 CURVE SMOOTH",
"213 48 OFFCURVE",
"155 82 OFFCURVE",
"136 125 CURVE",
"136 190 LINE",
"71 190 LINE",
"71 0 LINE",
"136 0 LINE",
"136 55 LINE",
"170 12 OFFCURVE",
"226 -10 OFFCURVE"
);
}
);
width = 522;
},
{
anchors = (
{
name = bot;
position = "{326, 0}";
},
{
name = top;
position = "{285, 561}";
}
);
layerId = "EFCDB4D9-E20B-4A8D-9DB5-150AD166B0AE";
paths = (
{
closed = 1;
nodes = (
"329 -11 CURVE SMOOTH",
"497 -11 OFFCURVE",
"547 98 OFFCURVE",
"539 193 CURVE SMOOTH",
"532 269 OFFCURVE",
"514 310 OFFCURVE",
"345 367 CURVE SMOOTH",
"257 396 OFFCURVE",
"254 410 OFFCURVE",
"254 432 CURVE SMOOTH",
"253 449 OFFCURVE",
"268 464 OFFCURVE",
"291 464 CURVE SMOOTH",
"344 464 OFFCURVE",
"387 429 OFFCURVE",
"390 427 CURVE",
"390 391 LINE",
"510 391 LINE",
"510 562 LINE",
"390 562 LINE",
"390 522 LINE",
"378 543 OFFCURVE",
"343 573 OFFCURVE",
"262 573 CURVE SMOOTH",
"93 573 OFFCURVE",
"48 475 OFFCURVE",
"48 411 CURVE SMOOTH",
"49 325 OFFCURVE",
"74 275 OFFCURVE",
"259 217 CURVE SMOOTH",
"332 193 OFFCURVE",
"357 187 OFFCURVE",
"357 148 CURVE SMOOTH",
"357 110 OFFCURVE",
"324 101 OFFCURVE",
"294 101 CURVE SMOOTH",
"246 101 OFFCURVE",
"205 124 OFFCURVE",
"183 138 CURVE",
"183 219 LINE",
"53 219 LINE",
"53 0 LINE",
"183 0 LINE",
"183 34 LINE",
"211 5 OFFCURVE",
"277 -11 OFFCURVE"
);
}
);
width = 589;
}
);
unicode = 0053;
userData = {
com.typemytype.robofont.layerData = {
b = {
anchors = (
);
components = (
);
contours = (
{
points = (
{
segmentType = curve;
smooth = 1;
x = 636;
y = "-23";
},
{
smooth = 0;
x = 930;
y = "-23";
},
{
smooth = 0;
x = 1026;
y = 171;
},
{
segmentType = curve;
smooth = 1;
x = 1026;
y = 295;
},
{
smooth = 0;
x = 1026;
y = 543;
},
{
smooth = 0;
x = 829;
y = 599;
},
{
segmentType = curve;
smooth = 1;
x = 606;
y = 622;
},
{
smooth = 0;
x = 405;
y = 643;
},
{
smooth = 0;
x = 269;
y = 667;
},
{
segmentType = curve;
smooth = 1;
x = 269;
y = 851;
},
{
smooth = 0;
x = 269;
y = 998;
},
{
smooth = 0;
x = 360;
y = 1104;
},
{
segmentType = curve;
smooth = 1;
x = 573;
y = 1104;
},
{
smooth = 0;
x = 719;
y = 1104;
},
{
smooth = 0;
x = 885;
y = 1024;
},
{
segmentType = curve;
smooth = 1;
x = 885;
y = 941;
},
{
segmentType = line;
smooth = 0;
x = 885;
y = 839;
},
{
segmentType = line;
smooth = 0;
x = 959;
y = 839;
},
{
segmentType = line;
smooth = 0;
x = 959;
y = 1152;
},
{
segmentType = line;
smooth = 0;
x = 885;
y = 1152;
},
{
segmentType = line;
smooth = 0;
x = 885;
y = 1049;
},
{
smooth = 0;
x = 828;
y = 1131;
},
{
smooth = 0;
x = 673;
y = 1172;
},
{
segmentType = curve;
smooth = 1;
x = 561;
y = 1172;
},
{
smooth = 0;
x = 360;
y = 1172;
},
{
smooth = 0;
x = 184;
y = 1066;
},
{
segmentType = curve;
smooth = 1;
x = 184;
y = 863;
},
{
smooth = 0;
x = 184;
y = 635;
},
{
smooth = 0;
x = 332;
y = 579;
},
{
segmentType = curve;
smooth = 1;
x = 584;
y = 553;
},
{
smooth = 0;
x = 805;
y = 531;
},
{
smooth = 0;
x = 942;
y = 488;
},
{
segmentType = curve;
smooth = 1;
x = 942;
y = 300;
},
{
smooth = 0;
x = 942;
y = 169;
},
{
smooth = 0;
x = 831;
y = 47;
},
{
segmentType = curve;
smooth = 1;
x = 644;
y = 47;
},
{
smooth = 0;
x = 448;
y = 47;
},
{
smooth = 0;
x = 261;
y = 118;
},
{
segmentType = curve;
smooth = 1;
x = 261;
y = 247;
},
{
segmentType = line;
smooth = 0;
x = 261;
y = 387;
},
{
segmentType = line;
smooth = 0;
x = 187;
y = 387;
},
{
segmentType = line;
smooth = 0;
x = 187;
y = "-1";
},
{
segmentType = line;
smooth = 0;
x = 261;
y = "-1";
},
{
segmentType = line;
smooth = 0;
x = 261;
y = 122;
},
{
smooth = 0;
x = 335;
y = 22;
},
{
smooth = 0;
x = 496;
y = "-23";
}
);
}
);
lib = {
};
name = S;
unicodes = (
);
width = 1143;
};
};
org.robofab.postScriptHintData = {
};
};
},
{
glyphname = T;
lastChange = "2016-08-04 10:04:12 +0000";
layers = (
{
anchors = (
{
name = bot;
position = "{276, 0}";
},
{
name = mid;
position = "{278, 338}";
},
{
name = top;
position = "{277, 563}";
}
);
layerId = "98C086B7-81AA-4491-8494-0C6A76849168";
paths = (
{
closed = 1;
nodes = (
"25 377 LINE",
"51 377 LINE",
"51 541 LINE",
"262 541 LINE",
"262 22 LINE",
"177 22 LINE",
"177 0 LINE",
"376 0 LINE",
"376 22 LINE",
"292 22 LINE",
"292 541 LINE",
"508 541 LINE",
"508 377 LINE",
"535 377 LINE",
"535 563 LINE",
"25 563 LINE"
);
}
);
width = 560;
},
{
associatedMasterId = "98C086B7-81AA-4491-8494-0C6A76849168";
layerId = "FA640D9F-518F-4944-B985-6F6C486767D6";
name = b;
width = 560;
},
{
anchors = (
{
name = bot;
position = "{281, 0}";
},
{
name = mid;
position = "{279, 315}";
},
{
name = top;
position = "{278, 563}";
}
);
layerId = "BE4F947C-73D7-4684-AEED-17801393DA53";
paths = (
{
closed = 1;
nodes = (
"25 367 LINE",
"86 367 LINE",
"86 510 LINE",
"240 510 LINE",
"240 53 LINE",
"162 53 LINE",
"162 0 LINE",
"399 0 LINE",
"399 53 LINE",
"321 53 LINE",
"321 510 LINE",
"472 510 LINE",
"472 367 LINE",
"533 367 LINE",
"533 563 LINE",
"25 563 LINE"
);
}
);
width = 559;
},
{
anchors = (
{
name = bot;
position = "{360, 0}";
},
{
name = mid;
position = "{347, 259}";
},
{
name = top;
position = "{348, 563}";
}
);
layerId = "EFCDB4D9-E20B-4A8D-9DB5-150AD166B0AE";
paths = (
{
closed = 1;
nodes = (
"-1 563 LINE",
"-1 306 LINE",
"128 306 LINE",
"128 453 LINE",
"247 453 LINE",
"247 109 LINE",
"162 109 LINE",
"162 0 LINE",
"532 0 LINE",
"532 109 LINE",
"448 109 LINE",
"448 453 LINE",
"563 453 LINE",
"563 306 LINE",
"689 306 LINE",
"689 563 LINE"
);
}
);
width = 688;
}
);
unicode = 0054;
userData = {
com.typemytype.robofont.layerData = {
b = {
anchors = (
);
components = (
);
contours = (
);
lib = {
};
name = T;
unicodes = (
);
width = 1147;
};
};
org.robofab.postScriptHintData = {
};
};
},
{
glyphname = U;
lastChange = "2016-08-04 10:04:12 +0000";
layers = (
{
anchors = (
{
name = top;
position = "{366, 563}";
}
);
layerId = "98C086B7-81AA-4491-8494-0C6A76849168";
paths = (
{
closed = 1;
nodes = (
"360 -11 CURVE SMOOTH",
"512 -11 OFFCURVE",
"619 65 OFFCURVE",
"619 182 CURVE SMOOTH",
"619 541 LINE",
"696 541 LINE",
"696 563 LINE",
"517 563 LINE",
"517 541 LINE",
"590 541 LINE",
"590 182 LINE SMOOTH",
"590 81 OFFCURVE",
"497 13 OFFCURVE",
"360 13 CURVE SMOOTH",
"233 13 OFFCURVE",
"146 82 OFFCURVE",
"146 183 CURVE SMOOTH",
"146 541 LINE",
"221 541 LINE",
"221 563 LINE",
"42 563 LINE",
"42 541 LINE",
"116 541 LINE",
"116 183 LINE SMOOTH",
"116 68 OFFCURVE",
"213 -11 OFFCURVE"
);
}
);
width = 729;
},
{
associatedMasterId = "98C086B7-81AA-4491-8494-0C6A76849168";
layerId = "A6EB9B77-C65C-40EA-B7C7-00898C4AC30D";
name = b;
width = 739;
},
{
anchors = (
{
name = top;
position = "{344, 563}";
}
);
layerId = "BE4F947C-73D7-4684-AEED-17801393DA53";
paths = (
{
closed = 1;
nodes = (
"337 -10 CURVE SMOOTH",
"476 -10 OFFCURVE",
"574 58 OFFCURVE",
"574 197 CURVE SMOOTH",
"574 510 LINE",
"650 510 LINE",
"650 563 LINE",
"431 563 LINE",
"431 510 LINE",
"505 510 LINE",
"505 194 LINE SMOOTH",
"505 104 OFFCURVE",
"444 50 OFFCURVE",
"339 50 CURVE SMOOTH",
"241 50 OFFCURVE",
"183 104 OFFCURVE",
"183 193 CURVE SMOOTH",
"183 510 LINE",
"258 510 LINE",
"258 563 LINE",
"27 563 LINE",
"27 510 LINE",
"102 510 LINE",
"102 204 LINE SMOOTH",
"102 82 OFFCURVE",
"169 -10 OFFCURVE"
);
}
);
width = 670;
},
{
anchors = (
{
name = ogonek;
position = "{424, 0}";
},
{
name = top;
position = "{443, 563}";
}
);
layerId = "EFCDB4D9-E20B-4A8D-9DB5-150AD166B0AE";
paths = (
{
closed = 1;
nodes = (
"414 -11 CURVE SMOOTH",
"607 -11 OFFCURVE",
"703 78 OFFCURVE",
"703 243 CURVE SMOOTH",
"703 453 LINE",
"790 453 LINE",
"790 563 LINE",
"487 563 LINE",
"487 453 LINE",
"579 453 LINE",
"579 244 LINE SMOOTH",
"579 156 OFFCURVE",
"531 110 OFFCURVE",
"441 110 CURVE SMOOTH",
"356 110 OFFCURVE",
"312 155 OFFCURVE",
"312 244 CURVE SMOOTH",
"312 453 LINE",
"414 453 LINE",
"414 563 LINE",
"23 563 LINE",
"23 453 LINE",
"110 453 LINE",
"110 241 LINE SMOOTH",
"110 71 OFFCURVE",
"220 -11 OFFCURVE"
);
}
);
width = 814;
}
);
unicode = 0055;
userData = {
com.typemytype.robofont.layerData = {
b = {
anchors = (
);
components = (
);
contours = (
);
lib = {
};
name = U;
unicodes = (
);
width = 1514;
};
};
org.robofab.postScriptHintData = {
};
};
},
{
glyphname = V;
lastChange = "2016-08-04 10:04:12 +0000";
layers = (
{
layerId = "98C086B7-81AA-4491-8494-0C6A76849168";
paths = (
{
closed = 1;
nodes = (
"289 0 LINE",
"320 0 LINE",
"525 541 LINE",
"585 541 LINE",
"585 563 LINE",
"414 563 LINE",
"414 541 LINE",
"490 541 LINE",
"305 37 LINE",
"118 541 LINE",
"196 541 LINE",
"196 563 LINE",
"19 563 LINE",
"19 541 LINE",
"86 541 LINE"
);
}
);
width = 606;
},
{
associatedMasterId = "98C086B7-81AA-4491-8494-0C6A76849168";
layerId = "AABE73E1-EF53-4A1E-9764-24D1E57A483F";
name = b;
width = 600;
},
{
layerId = "BE4F947C-73D7-4684-AEED-17801393DA53";
paths = (
{
closed = 1;
nodes = (
"289 0 LINE",
"360 0 LINE",
"560 510 LINE",
"629 510 LINE",
"629 563 LINE",
"415 563 LINE",
"415 510 LINE",
"487 510 LINE",
"330 89 LINE",
"171 510 LINE",
"245 510 LINE",
"245 563 LINE",
"16 563 LINE",
"16 510 LINE",
"87 510 LINE"
);
}
);
width = 646;
},
{
layerId = "EFCDB4D9-E20B-4A8D-9DB5-150AD166B0AE";
paths = (
{
closed = 1;
nodes = (
"99 453 LINE",
"328 0 LINE",
"463 0 LINE",
"667 453 LINE",
"758 453 LINE",
"758 563 LINE",
"458 563 LINE",
"458 453 LINE",
"539 453 LINE",
"426 207 LINE",
"316 453 LINE",
"393 453 LINE",
"393 563 LINE",
"27 563 LINE",
"27 453 LINE"
);
}
);
width = 779;
}
);
unicode = 0056;
userData = {
com.typemytype.robofont.layerData = {
b = {
anchors = (
);
components = (
);
contours = (
);
lib = {
};
name = V;
unicodes = (
);
width = 1228;
};
};
org.robofab.postScriptHintData = {
};
};
},
{
glyphname = W;
lastChange = "2016-08-04 10:04:12 +0000";
layers = (
{
anchors = (
{
name = top;
position = "{479, 563}";
}
);
layerId = "98C086B7-81AA-4491-8494-0C6A76849168";
paths = (
{
closed = 1;
nodes = (
"286 0 LINE",
"318 0 LINE",
"478 480 LINE",
"636 0 LINE",
"667 0 LINE",
"847 541 LINE",
"918 541 LINE",
"918 563 LINE",
"741 563 LINE",
"741 541 LINE",
"817 541 LINE",
"652 38 LINE",
"490 534 LINE",
"467 534 LINE",
"303 38 LINE",
"135 541 LINE",
"213 541 LINE",
"213 563 LINE",
"35 563 LINE",
"35 541 LINE",
"103 541 LINE"
);
}
);
width = 953;
},
{
associatedMasterId = "98C086B7-81AA-4491-8494-0C6A76849168";
layerId = "EE6182E2-4987-40ED-BE67-A56F584A3ACB";
name = b;
width = 958;
},
{
anchors = (
{
name = top;
position = "{469, 563}";
}
);
layerId = "BE4F947C-73D7-4684-AEED-17801393DA53";
paths = (
{
closed = 1;
nodes = (
"253 0 LINE",
"323 0 LINE",
"463 426 LINE",
"604 0 LINE",
"674 0 LINE",
"829 510 LINE",
"899 510 LINE",
"899 563 LINE",
"689 563 LINE",
"689 510 LINE",
"762 510 LINE",
"643 104 LINE",
"497 553 LINE",
"438 553 LINE",
"293 104 LINE",
"171 510 LINE",
"244 510 LINE",
"244 563 LINE",
"24 563 LINE",
"24 510 LINE",
"93 510 LINE"
);
}
);
width = 922;
},
{
anchors = (
{
name = top;
position = "{549, 563}";
}
);
layerId = "EFCDB4D9-E20B-4A8D-9DB5-150AD166B0AE";
paths = (
{
closed = 1;
nodes = (
"103 453 LINE",
"273 0 LINE",
"364 0 LINE",
"504 267 LINE",
"646 0 LINE",
"743 0 LINE",
"899 453 LINE",
"972 453 LINE",
"972 563 LINE",
"713 563 LINE",
"713 453 LINE",
"787 453 LINE",
"713 247 LINE",
"566 543 LINE",
"529 543 LINE",
"371 247 LINE",
"304 453 LINE",
"365 453 LINE",
"365 563 LINE",
"32 563 LINE",
"32 453 LINE"
);
}
);
width = 1003;
}
);
unicode = 0057;
userData = {
com.typemytype.robofont.layerData = {
b = {
anchors = (
);
components = (
);
contours = (
);
lib = {
};
name = W;
unicodes = (
);
width = 1962;
};
};
org.robofab.postScriptHintData = {
};
};
},
{
glyphname = X;
lastChange = "2016-08-04 10:04:12 +0000";
layers = (
{
layerId = "98C086B7-81AA-4491-8494-0C6A76849168";
paths = (
{
closed = 1;
nodes = (
"54 0 LINE",
"228 0 LINE",
"228 21 LINE",
"151 21 LINE",
"314 270 LINE",
"481 21 LINE",
"406 21 LINE",
"406 0 LINE",
"581 0 LINE",
"581 21 LINE",
"508 21 LINE",
"331 286 LINE",
"499 541 LINE",
"571 541 LINE",
"571 563 LINE",
"394 563 LINE",
"394 541 LINE",
"470 541 LINE",
"317 307 LINE",
"160 541 LINE",
"234 541 LINE",
"234 563 LINE",
"60 563 LINE",
"60 541 LINE",
"133 541 LINE",
"301 290 LINE",
"122 21 LINE",
"54 21 LINE"
);
}
);
width = 632;
},
{
associatedMasterId = "98C086B7-81AA-4491-8494-0C6A76849168";
layerId = "2A356CFA-972F-4E35-A1B9-EC5913808293";
name = b;
width = 631;
},
{
layerId = "BE4F947C-73D7-4684-AEED-17801393DA53";
paths = (
{
closed = 1;
nodes = (
"30 0 LINE",
"253 0 LINE",
"253 50 LINE",
"182 50 LINE",
"311 243 LINE",
"441 50 LINE",
"371 50 LINE",
"371 0 LINE",
"607 0 LINE",
"607 50 LINE",
"528 50 LINE",
"359 289 LINE",
"517 512 LINE",
"594 512 LINE",
"594 563 LINE",
"375 563 LINE",
"375 512 LINE",
"444 512 LINE",
"323 334 LINE",
"200 512 LINE",
"268 512 LINE",
"268 563 LINE",
"37 563 LINE",
"37 512 LINE",
"114 512 LINE",
"273 288 LINE",
"108 50 LINE",
"30 50 LINE"
);
}
);
width = 637;
},
{
layerId = "EFCDB4D9-E20B-4A8D-9DB5-150AD166B0AE";
paths = (
{
closed = 1;
nodes = (
"18 110 LINE",
"18 0 LINE",
"316 0 LINE",
"316 110 LINE",
"248 110 LINE",
"347 195 LINE",
"438 110 LINE",
"383 110 LINE",
"383 0 LINE",
"752 0 LINE",
"752 110 LINE",
"680 110 LINE",
"487 299 LINE",
"650 452 LINE",
"732 452 LINE",
"732 563 LINE",
"440 563 LINE",
"440 452 LINE",
"497 452 LINE",
"416 376 LINE",
"334 452 LINE",
"378 452 LINE",
"378 563 LINE",
"27 563 LINE",
"27 452 LINE",
"86 452 LINE",
"274 272 LINE",
"93 110 LINE"
);
}
);
width = 769;
}
);
unicode = 0058;
userData = {
com.typemytype.robofont.layerData = {
b = {
anchors = (
);
components = (
);
contours = (
);
lib = {
};
name = X;
unicodes = (
);
width = 1293;
};
};
org.robofab.postScriptHintData = {
};
};
},
{
glyphname = Y;
lastChange = "2016-08-04 10:04:12 +0000";
layers = (
{
anchors = (
{
name = top;
position = "{311, 563}";
}
);
layerId = "98C086B7-81AA-4491-8494-0C6A76849168";
paths = (
{
closed = 1;
nodes = (
"210 0 LINE",
"405 0 LINE",
"405 22 LINE",
"322 22 LINE",
"322 227 LINE",
"531 541 LINE",
"606 541 LINE",
"606 563 LINE",
"422 563 LINE",
"422 541 LINE",
"500 541 LINE",
"309 252 LINE",
"116 541 LINE",
"190 541 LINE",
"190 563 LINE",
"7 563 LINE",
"7 541 LINE",
"83 541 LINE",
"292 227 LINE",
"292 22 LINE",
"210 22 LINE"
);
}
);
width = 615;
},
{
associatedMasterId = "98C086B7-81AA-4491-8494-0C6A76849168";
layerId = "F7EEFDF9-9A99-4B42-A834-ACCD2772A5D9";
name = b;
width = 612;
},
{
anchors = (
{
name = top;
position = "{322, 563}";
}
);
layerId = "BE4F947C-73D7-4684-AEED-17801393DA53";
paths = (
{
closed = 1;
nodes = (
"195 0 LINE",
"441 0 LINE",
"441 53 LINE",
"358 53 LINE",
"358 242 LINE",
"541 510 LINE",
"618 510 LINE",
"618 563 LINE",
"396 563 LINE",
"396 510 LINE",
"468 510 LINE",
"325 294 LINE",
"177 510 LINE",
"248 510 LINE",
"248 563 LINE",
"14 563 LINE",
"14 510 LINE",
"89 510 LINE",
"277 241 LINE",
"277 53 LINE",
"195 53 LINE"
);
}
);
width = 632;
},
{
anchors = (
{
name = top;
position = "{348, 561}";
}
);
layerId = "EFCDB4D9-E20B-4A8D-9DB5-150AD166B0AE";
paths = (
{
closed = 1;
nodes = (
"153 109 LINE",
"153 0 LINE",
"545 0 LINE",
"545 109 LINE",
"450 109 LINE",
"450 216 LINE",
"628 453 LINE",
"710 453 LINE",
"710 563 LINE",
"414 563 LINE",
"414 453 LINE",
"470 453 LINE",
"374 312 LINE",
"274 453 LINE",
"333 453 LINE",
"333 563 LINE",
"-19 563 LINE",
"-19 453 LINE",
"61 453 LINE",
"249 214 LINE",
"249 109 LINE"
);
}
);
width = 715;
}
);
unicode = 0059;
userData = {
com.typemytype.robofont.layerData = {
b = {
anchors = (
);
components = (
);
contours = (
);
lib = {
};
name = Y;
unicodes = (
);
width = 1254;
};
};
org.robofab.postScriptHintData = {
};
};
},
{
glyphname = Z;
lastChange = "2016-08-04 10:04:12 +0000";
layers = (
{
anchors = (
{
name = top;
position = "{315, 563}";
}
);
layerId = "98C086B7-81AA-4491-8494-0C6A76849168";
paths = (
{
closed = 1;
nodes = (
"69 0 LINE",
"531 0 LINE",
"531 178 LINE",
"506 178 LINE",
"506 22 LINE",
"103 22 LINE",
"518 541 LINE",
"518 563 LINE",
"83 563 LINE",
"83 392 LINE",
"108 392 LINE",
"108 541 LINE",
"484 541 LINE",
"69 23 LINE"
);
}
);
width = 602;
},
{
associatedMasterId = "98C086B7-81AA-4491-8494-0C6A76849168";
layerId = "61F6835A-2EC4-4FAD-8ADE-C2D12E527D9B";
name = b;
width = 606;
},
{
anchors = (
{
name = top;
position = "{305, 563}";
}
);
layerId = "BE4F947C-73D7-4684-AEED-17801393DA53";
paths = (
{
closed = 1;
nodes = (
"62 0 LINE",
"523 0 LINE",
"523 195 LINE",
"463 195 LINE",
"463 53 LINE",
"158 53 LINE",
"516 512 LINE",
"516 563 LINE",
"77 563 LINE",
"77 377 LINE",
"137 377 LINE",
"137 510 LINE",
"417 510 LINE",
"62 57 LINE"
);
}
);
width = 576;
},
{
anchors = (
{
name = top;
position = "{324, 563}";
}
);
layerId = "EFCDB4D9-E20B-4A8D-9DB5-150AD166B0AE";
paths = (
{
closed = 1;
nodes = (
"23 0 LINE",
"612 0 LINE",
"612 313 LINE",
"487 313 LINE",
"487 110 LINE",
"274 110 LINE",
"597 454 LINE",
"597 563 LINE",
"13 563 LINE",
"13 271 LINE",
"140 271 LINE",
"140 453 LINE",
"330 453 LINE",
"23 117 LINE"
);
}
);
width = 646;
}
);
unicode = 005A;
userData = {
com.typemytype.robofont.layerData = {
b = {
anchors = (
);
components = (
);
contours = (
);
lib = {
};
name = Z;
unicodes = (
);
width = 1241;
};
};
org.robofab.postScriptHintData = {
};
};
},
{
glyphname = a;
lastChange = "2016-08-04 10:04:12 +0000";
layers = (
{
anchors = (
{
name = top;
position = "{230, 393}";
}
);
layerId = "98C086B7-81AA-4491-8494-0C6A76849168";
paths = (
{
closed = 1;
nodes = (
"194 11 CURVE SMOOTH",
"126 11 OFFCURVE",
"89 55 OFFCURVE",
"89 105 CURVE SMOOTH",
"89 176 OFFCURVE",
"141 201 OFFCURVE",
"199 201 CURVE SMOOTH",
"245 201 OFFCURVE",
"294 191 OFFCURVE",
"345 183 CURVE",
"345 62 LINE",
"280 25 OFFCURVE",
"241 11 OFFCURVE"
);
},
{
closed = 1;
nodes = (
"193 -11 CURVE SMOOTH",
"239 -11 OFFCURVE",
"288 5 OFFCURVE",
"346 40 CURVE",
"346 40 OFFCURVE",
"353 -3 OFFCURVE",
"353 0 CURVE",
"434 0 LINE",
"434 22 LINE",
"374 22 LINE",
"374 271 LINE SMOOTH",
"374 330 OFFCURVE",
"344 403 OFFCURVE",
"227 403 CURVE SMOOTH",
"190 403 OFFCURVE",
"137 393 OFFCURVE",
"84 371 CURVE",
"93 349 LINE",
"134 366 OFFCURVE",
"183 381 OFFCURVE",
"230 381 CURVE SMOOTH",
"297 381 OFFCURVE",
"345 344 OFFCURVE",
"345 263 CURVE SMOOTH",
"345 204 LINE",
"296 213 OFFCURVE",
"245 221 OFFCURVE",
"198 221 CURVE SMOOTH",
"125 221 OFFCURVE",
"61 193 OFFCURVE",
"61 106 CURVE SMOOTH",
"61 36 OFFCURVE",
"114 -11 OFFCURVE"
);
}
);
width = 463;
},
{
associatedMasterId = "98C086B7-81AA-4491-8494-0C6A76849168";
layerId = "ED79803E-2BD5-4D46-A5D1-7F262DBD3A57";
name = b;
paths = (
{
closed = 1;
nodes = (
"191 -7 CURVE SMOOTH",
"248 -7 OFFCURVE",
"290 10 OFFCURVE",
"335 44 CURVE",
"343 0 LINE",
"435 0 LINE",
"435 28 LINE",
"373 28 LINE",
"373 278 LINE SMOOTH",
"373 328 OFFCURVE",
"347 400 OFFCURVE",
"225 400 CURVE SMOOTH",
"162 400 OFFCURVE",
"110 387 OFFCURVE",
"76 354 CURVE",
"93 326 LINE",
"121 354 OFFCURVE",
"166 369 OFFCURVE",
"224 369 CURVE SMOOTH",
"293 369 OFFCURVE",
"335 345 OFFCURVE",
"335 269 CURVE SMOOTH",
"335 209 LINE",
"297 216 OFFCURVE",
"263 222 OFFCURVE",
"227 222 CURVE SMOOTH",
"144 222 OFFCURVE",
"57 211 OFFCURVE",
"57 108 CURVE SMOOTH",
"57 47 OFFCURVE",
"101 -7 OFFCURVE"
);
},
{
closed = 1;
nodes = (
"196 24 CURVE SMOOTH",
"120 24 OFFCURVE",
"95 69 OFFCURVE",
"95 107 CURVE SMOOTH",
"95 190 OFFCURVE",
"169 192 OFFCURVE",
"226 192 CURVE SMOOTH",
"273 192 OFFCURVE",
"335 180 OFFCURVE",
"335 180 CURVE",
"335 74 LINE",
"296 37 OFFCURVE",
"250 24 OFFCURVE"
);
}
);
width = 464;
},
{
anchors = (
{
name = top;
position = "{217, 393}";
}
);
layerId = "BE4F947C-73D7-4684-AEED-17801393DA53";
paths = (
{
closed = 1;
nodes = (
"185 40 CURVE SMOOTH",
"137 40 OFFCURVE",
"109 70 OFFCURVE",
"109 110 CURVE SMOOTH",
"109 168 OFFCURVE",
"155 185 OFFCURVE",
"202 185 CURVE SMOOTH",
"244 185 OFFCURVE",
"278 178 OFFCURVE",
"306 172 CURVE",
"306 83 LINE",
"264 54 OFFCURVE",
"225 40 OFFCURVE"
);
},
{
closed = 1;
nodes = (
"174 -11 CURVE SMOOTH",
"228 -11 OFFCURVE",
"268 4 OFFCURVE",
"310 35 CURVE",
"310 35 OFFCURVE",
"314 -1 OFFCURVE",
"314 0 CURVE",
"441 0 LINE",
"441 53 LINE",
"379 53 LINE",
"379 264 LINE SMOOTH",
"379 348 OFFCURVE",
"318 403 OFFCURVE",
"214 403 CURVE SMOOTH",
"167 403 OFFCURVE",
"102 389 OFFCURVE",
"56 360 CURVE",
"78 312 LINE",
"121 335 OFFCURVE",
"176 348 OFFCURVE",
"213 348 CURVE SMOOTH",
"270 348 OFFCURVE",
"306 319 OFFCURVE",
"306 257 CURVE SMOOTH",
"306 216 LINE",
"269 224 OFFCURVE",
"232 229 OFFCURVE",
"197 229 CURVE SMOOTH",
"110 229 OFFCURVE",
"39 196 OFFCURVE",
"39 106 CURVE SMOOTH",
"39 41 OFFCURVE",
"92 -11 OFFCURVE"
);
}
);
width = 456;
},
{
anchors = (
{
name = ogonek;
position = "{385, 0}";
},
{
name = top;
position = "{225, 393}";
}
);
layerId = "EFCDB4D9-E20B-4A8D-9DB5-150AD166B0AE";
paths = (
{
closed = 1;
nodes = (
"170 -10 CURVE SMOOTH",
"208 -10 OFFCURVE",
"257 2 OFFCURVE",
"295 26 CURVE",
"311 0 LINE",
"492 0 LINE",
"492 110 LINE",
"440 110 LINE",
"440 243 LINE SMOOTH",
"440 354 OFFCURVE",
"344 402 OFFCURVE",
"232 402 CURVE SMOOTH",
"162 402 OFFCURVE",
"94 388 OFFCURVE",
"26 354 CURVE",
"67 253 LINE",
"134 280 OFFCURVE",
"175 290 OFFCURVE",
"210 290 CURVE SMOOTH",
"249 290 OFFCURVE",
"268 271 OFFCURVE",
"268 234 CURVE SMOOTH",
"268 226 LINE",
"254 229 OFFCURVE",
"230 232 OFFCURVE",
"207 232 CURVE SMOOTH",
"131 232 OFFCURVE",
"28 207 OFFCURVE",
"28 120 CURVE SMOOTH",
"28 28 OFFCURVE",
"97 -10 OFFCURVE"
);
},
{
closed = 1;
nodes = (
"225 76 CURVE SMOOTH",
"201 76 OFFCURVE",
"182 90 OFFCURVE",
"182 114 CURVE SMOOTH",
"182 147 OFFCURVE",
"205 161 OFFCURVE",
"232 161 CURVE SMOOTH",
"241 161 OFFCURVE",
"256 158 OFFCURVE",
"268 153 CURVE",
"268 90 LINE",
"253 80 OFFCURVE",
"237 76 OFFCURVE"
);
}
);
width = 507;
}
);
unicode = 0061;
userData = {
com.typemytype.robofont.layerData = {
b = {
anchors = (
);
components = (
);
contours = (
{
points = (
{
segmentType = curve;
smooth = 1;
x = 391;
y = "-14";
},
{
smooth = 0;
x = 507;
y = "-14";
},
{
smooth = 0;
x = 593;
y = 21;
},
{
segmentType = curve;
smooth = 0;
x = 687;
y = 91;
},
{
segmentType = line;
smooth = 0;
x = 703;
y = "-1";
},
{
segmentType = line;
smooth = 0;
x = 890;
y = "-1";
},
{
segmentType = line;
smooth = 0;
x = 890;
y = 57;
},
{
segmentType = line;
smooth = 0;
x = 764;
y = 57;
},
{
segmentType = line;
smooth = 1;
x = 764;
y = 569;
},
{
smooth = 0;
x = 764;
y = 672;
},
{
smooth = 0;
x = 710;
y = 819;
},
{
segmentType = curve;
smooth = 1;
x = 461;
y = 819;
},
{
smooth = 0;
x = 332;
y = 819;
},
{
smooth = 0;
x = 226;
y = 792;
},
{
segmentType = curve;
smooth = 0;
x = 155;
y = 724;
},
{
segmentType = line;
smooth = 0;
x = 190;
y = 668;
},
{
smooth = 0;
x = 247;
y = 726;
},
{
smooth = 0;
x = 339;
y = 755;
},
{
segmentType = curve;
smooth = 1;
x = 459;
y = 755;
},
{
smooth = 0;
x = 600;
y = 755;
},
{
smooth = 0;
x = 687;
y = 706;
},
{
segmentType = curve;
smooth = 1;
x = 687;
y = 551;
},
{
segmentType = line;
smooth = 0;
x = 687;
y = 428;
},
{
smooth = 0;
x = 609;
y = 443;
},
{
smooth = 0;
x = 539;
y = 455;
},
{
segmentType = curve;
smooth = 1;
x = 465;
y = 455;
},
{
smooth = 0;
x = 295;
y = 455;
},
{
smooth = 0;
x = 117;
y = 433;
},
{
segmentType = curve;
smooth = 1;
x = 117;
y = 222;
},
{
smooth = 0;
x = 117;
y = 96;
},
{
smooth = 0;
x = 206;
y = "-14";
}
);
},
{
points = (
{
segmentType = curve;
smooth = 1;
x = 401;
y = 50;
},
{
smooth = 0;
x = 246;
y = 50;
},
{
smooth = 0;
x = 195;
y = 142;
},
{
segmentType = curve;
smooth = 1;
x = 195;
y = 220;
},
{
smooth = 0;
x = 195;
y = 390;
},
{
smooth = 0;
x = 346;
y = 393;
},
{
segmentType = curve;
smooth = 1;
x = 462;
y = 393;
},
{
smooth = 0;
x = 559;
y = 393;
},
{
smooth = 0;
x = 687;
y = 368;
},
{
segmentType = curve;
smooth = 0;
x = 687;
y = 368;
},
{
segmentType = line;
smooth = 0;
x = 687;
y = 151;
},
{
smooth = 0;
x = 606;
y = 76;
},
{
smooth = 0;
x = 511;
y = 50;
}
);
}
);
lib = {
};
name = a;
unicodes = (
);
width = 951;
};
};
org.robofab.postScriptHintData = {
};
};
},
{
glyphname = ae;
lastChange = "2016-08-04 10:04:12 +0000";
layers = (
{
anchors = (
{
name = top;
position = "{426, 393}";
}
);
layerId = "98C086B7-81AA-4491-8494-0C6A76849168";
paths = (
{
closed = 1;
nodes = (
"210 -11 CURVE SMOOTH",
"265 -11 OFFCURVE",
"338 -5 OFFCURVE",
"403 53 CURVE",
"440 7 OFFCURVE",
"492 -11 OFFCURVE",
"555 -11 CURVE SMOOTH",
"640 -11 OFFCURVE",
"678 14 OFFCURVE",
"736 69 CURVE",
"726 88 LINE",
"679 38 OFFCURVE",
"617 12 OFFCURVE",
"555 12 CURVE SMOOTH",
"442 12 OFFCURVE",
"392 73 OFFCURVE",
"393 191 CURVE",
"732 191 LINE",
"732 332 OFFCURVE",
"661 403 OFFCURVE",
"557 403 CURVE SMOOTH",
"473 403 OFFCURVE",
"406 360 OFFCURVE",
"386 278 CURVE",
"381 362 OFFCURVE",
"342 403 OFFCURVE",
"242 403 CURVE SMOOTH",
"180 403 OFFCURVE",
"125 382 OFFCURVE",
"88 348 CURVE",
"102 329 LINE",
"132 358 OFFCURVE",
"182 381 OFFCURVE",
"242 381 CURVE SMOOTH",
"324 381 OFFCURVE",
"366 351 OFFCURVE",
"366 261 CURVE SMOOTH",
"366 210 LINE",
"362 211 OFFCURVE",
"270 211 OFFCURVE",
"267 211 CURVE SMOOTH",
"154 211 OFFCURVE",
"70 191 OFFCURVE",
"70 105 CURVE SMOOTH",
"70 28 OFFCURVE",
"120 -11 OFFCURVE"
);
},
{
closed = 1;
nodes = (
"212 10 CURVE SMOOTH",
"134 10 OFFCURVE",
"98 44 OFFCURVE",
"98 105 CURVE SMOOTH",
"98 177 OFFCURVE",
"164 190 OFFCURVE",
"266 190 CURVE SMOOTH",
"269 190 OFFCURVE",
"363 190 OFFCURVE",
"366 190 CURVE",
"366 157 OFFCURVE",
"374 105 OFFCURVE",
"391 71 CURVE",
"347 27 OFFCURVE",
"289 10 OFFCURVE"
);
},
{
closed = 1;
nodes = (
"707 211 CURVE",
"393 211 LINE",
"397 299 OFFCURVE",
"449 381 OFFCURVE",
"557 381 CURVE SMOOTH",
"649 381 OFFCURVE",
"707 317 OFFCURVE"
);
}
);
width = 799;
},
{
associatedMasterId = "98C086B7-81AA-4491-8494-0C6A76849168";
layerId = "4CF60589-F849-4ECD-BC2E-899D9F09A7A8";
name = b;
width = 809;
},
{
anchors = (
{
name = top;
position = "{380, 393}";
}
);
layerId = "BE4F947C-73D7-4684-AEED-17801393DA53";
paths = (
{
closed = 1;
nodes = (
"187 -11 CURVE SMOOTH",
"240 -11 OFFCURVE",
"297 -1 OFFCURVE",
"366 48 CURVE",
"404 10 OFFCURVE",
"458 -10 OFFCURVE",
"521 -10 CURVE SMOOTH",
"603 -10 OFFCURVE",
"661 21 OFFCURVE",
"699 65 CURVE",
"672 109 LINE",
"624 65 OFFCURVE",
"574 47 OFFCURVE",
"523 47 CURVE SMOOTH",
"438 47 OFFCURVE",
"390 99 OFFCURVE",
"387 182 CURVE",
"702 182 LINE",
"702 317 OFFCURVE",
"631 403 OFFCURVE",
"517 403 CURVE SMOOTH",
"448 403 OFFCURVE",
"384 373 OFFCURVE",
"359 318 CURVE",
"343 374 OFFCURVE",
"290 403 OFFCURVE",
"217 403 CURVE SMOOTH",
"158 403 OFFCURVE",
"92 385 OFFCURVE",
"52 352 CURVE",
"76 305 LINE",
"114 333 OFFCURVE",
"170 348 OFFCURVE",
"214 348 CURVE SMOOTH",
"275 348 OFFCURVE",
"312 321 OFFCURVE",
"312 257 CURVE SMOOTH",
"312 218 LINE",
"289 222 OFFCURVE",
"237 225 OFFCURVE",
"216 225 CURVE SMOOTH",
"118 225 OFFCURVE",
"40 195 OFFCURVE",
"40 105 CURVE SMOOTH",
"40 17 OFFCURVE",
"124 -11 OFFCURVE"
);
},
{
closed = 1;
nodes = (
"197 37 CURVE SMOOTH",
"150 37 OFFCURVE",
"110 54 OFFCURVE",
"110 108 CURVE SMOOTH",
"110 167 OFFCURVE",
"157 180 OFFCURVE",
"220 180 CURVE SMOOTH",
"238 180 OFFCURVE",
"294 177 OFFCURVE",
"312 175 CURVE",
"314 147 OFFCURVE",
"322 114 OFFCURVE",
"335 88 CURVE",
"302 59 OFFCURVE",
"259 37 OFFCURVE"
);
},
{
closed = 1;
nodes = (
"628 227 CURVE",
"389 227 LINE",
"396 294 OFFCURVE",
"440 349 OFFCURVE",
"516 349 CURVE SMOOTH",
"585 349 OFFCURVE",
"625 300 OFFCURVE"
);
}
);
width = 742;
},
{
anchors = (
{
name = top;
position = "{370, 393}";
}
);
layerId = "EFCDB4D9-E20B-4A8D-9DB5-150AD166B0AE";
paths = (
{
closed = 1;
nodes = (
"216 -11 CURVE SMOOTH",
"266 -11 OFFCURVE",
"297 -1 OFFCURVE",
"351 35 CURVE",
"392 5 OFFCURVE",
"450 -10 OFFCURVE",
"521 -10 CURVE SMOOTH",
"588 -10 OFFCURVE",
"655 8 OFFCURVE",
"703 42 CURVE",
"662 128 LINE",
"629 113 OFFCURVE",
"585 100 OFFCURVE",
"548 100 CURVE SMOOTH",
"501 100 OFFCURVE",
"459 117 OFFCURVE",
"456 174 CURVE",
"703 174 LINE",
"703 320 OFFCURVE",
"628 403 OFFCURVE",
"502 403 CURVE SMOOTH",
"451 403 OFFCURVE",
"410 395 OFFCURVE",
"373 378 CURVE",
"334 395 OFFCURVE",
"291 402 OFFCURVE",
"243 402 CURVE SMOOTH",
"173 402 OFFCURVE",
"105 388 OFFCURVE",
"38 354 CURVE",
"78 253 LINE",
"146 280 OFFCURVE",
"187 290 OFFCURVE",
"221 290 CURVE SMOOTH",
"260 290 OFFCURVE",
"278 271 OFFCURVE",
"278 234 CURVE SMOOTH",
"278 226 LINE",
"264 230 OFFCURVE",
"241 232 OFFCURVE",
"217 232 CURVE SMOOTH",
"142 232 OFFCURVE",
"39 207 OFFCURVE",
"39 120 CURVE SMOOTH",
"39 0 OFFCURVE",
"149 -11 OFFCURVE"
);
},
{
closed = 1;
nodes = (
"240 75 CURVE SMOOTH",
"211 75 OFFCURVE",
"192 91 OFFCURVE",
"192 114 CURVE SMOOTH",
"192 147 OFFCURVE",
"216 161 OFFCURVE",
"244 161 CURVE SMOOTH",
"262 161 OFFCURVE",
"280 156 OFFCURVE",
"280 156 CURVE",
"284 136 OFFCURVE",
"292 109 OFFCURVE",
"301 92 CURVE",
"284 83 OFFCURVE",
"261 75 OFFCURVE"
);
},
{
closed = 1;
nodes = (
"457 249 LINE",
"464 292 OFFCURVE",
"484 315 OFFCURVE",
"511 315 CURVE SMOOTH",
"545 315 OFFCURVE",
"566 292 OFFCURVE",
"563 249 CURVE"
);
}
);
width = 730;
}
);
unicode = 00E6;
userData = {
com.typemytype.robofont.layerData = {
b = {
anchors = (
);
components = (
);
contours = (
);
lib = {
};
name = ae;
unicodes = (
);
width = 1657;
};
};
org.robofab.postScriptHintData = {
};
};
},
{
glyphname = b;
lastChange = "2016-08-04 10:04:12 +0000";
layers = (
{
anchors = (
{
name = top;
position = "{295, 393}";
}
);
layerId = "98C086B7-81AA-4491-8494-0C6A76849168";
paths = (
{
closed = 1;
nodes = (
"31 0 LINE",
"129 0 LINE",
"129 46 LINE",
"167 10 OFFCURVE",
"219 -11 OFFCURVE",
"270 -11 CURVE SMOOTH",
"396 -11 OFFCURVE",
"479 70 OFFCURVE",
"479 201 CURVE SMOOTH",
"479 327 OFFCURVE",
"400 403 OFFCURVE",
"278 403 CURVE SMOOTH",
"229 403 OFFCURVE",
"173 383 OFFCURVE",
"129 349 CURVE",
"129 573 LINE",
"35 573 LINE",
"35 551 LINE",
"100 551 LINE",
"100 22 LINE",
"31 22 LINE"
);
},
{
closed = 1;
nodes = (
"129 71 CURVE",
"129 326 LINE",
"174 360 OFFCURVE",
"229 381 OFFCURVE",
"275 381 CURVE SMOOTH",
"382 381 OFFCURVE",
"450 310 OFFCURVE",
"450 195 CURVE SMOOTH",
"450 82 OFFCURVE",
"379 11 OFFCURVE",
"268 11 CURVE SMOOTH",
"220 11 OFFCURVE",
"168 34 OFFCURVE"
);
}
);
width = 509;
},
{
associatedMasterId = "98C086B7-81AA-4491-8494-0C6A76849168";
layerId = "5636BC78-B53F-4F94-BB52-9A1EF06E2614";
name = b;
width = 506;
},
{
anchors = (
{
name = top;
position = "{313, 393}";
}
);
layerId = "BE4F947C-73D7-4684-AEED-17801393DA53";
paths = (
{
closed = 1;
nodes = (
"25 0 LINE",
"172 0 LINE",
"172 33 LINE",
"205 4 OFFCURVE",
"246 -10 OFFCURVE",
"293 -10 CURVE SMOOTH",
"402 -10 OFFCURVE",
"497 67 OFFCURVE",
"497 202 CURVE SMOOTH",
"497 332 OFFCURVE",
"412 403 OFFCURVE",
"306 403 CURVE SMOOTH",
"261 403 OFFCURVE",
"212 387 OFFCURVE",
"172 358 CURVE",
"172 573 LINE",
"27 573 LINE",
"27 521 LINE",
"98 521 LINE",
"98 53 LINE",
"25 53 LINE"
);
},
{
closed = 1;
nodes = (
"172 85 CURVE",
"172 303 LINE",
"208 332 OFFCURVE",
"249 346 OFFCURVE",
"286 346 CURVE SMOOTH",
"363 346 OFFCURVE",
"420 292 OFFCURVE",
"420 196 CURVE SMOOTH",
"420 97 OFFCURVE",
"359 45 OFFCURVE",
"280 45 CURVE SMOOTH",
"244 45 OFFCURVE",
"204 60 OFFCURVE"
);
}
);
width = 522;
},
{
anchors = (
{
name = top;
position = "{412, 393}";
}
);
layerId = "EFCDB4D9-E20B-4A8D-9DB5-150AD166B0AE";
paths = (
{
closed = 1;
nodes = (
"267 368 CURVE",
"267 573 LINE",
"19 573 LINE",
"19 464 LINE",
"96 464 LINE",
"96 109 LINE",
"18 109 LINE",
"18 0 LINE",
"267 0 LINE",
"267 21 LINE",
"303 0 OFFCURVE",
"340 -10 OFFCURVE",
"379 -10 CURVE SMOOTH",
"487 -10 OFFCURVE",
"580 67 OFFCURVE",
"580 206 CURVE SMOOTH",
"580 316 OFFCURVE",
"514 403 OFFCURVE",
"385 403 CURVE SMOOTH",
"346 403 OFFCURVE",
"306 391 OFFCURVE"
);
},
{
closed = 1;
nodes = (
"267 84 CURVE",
"267 294 LINE",
"280 294 OFFCURVE",
"291 294 OFFCURVE",
"302 294 CURVE SMOOTH",
"386 294 OFFCURVE",
"399 231 OFFCURVE",
"399 195 CURVE SMOOTH",
"399 128 OFFCURVE",
"354 85 OFFCURVE",
"290 85 CURVE SMOOTH",
"283 85 OFFCURVE",
"276 85 OFFCURVE"
);
}
);
width = 601;
}
);
unicode = 0062;
userData = {
com.typemytype.robofont.layerData = {
b = {
anchors = (
);
components = (
);
contours = (
);
lib = {
};
name = b;
unicodes = (
);
width = 1037;
};
};
org.robofab.postScriptHintData = {
};
};
},
{
glyphname = c;
lastChange = "2016-08-04 10:04:12 +0000";
layers = (
{
anchors = (
{
name = bot;
position = "{218, 0}";
},
{
name = top;
position = "{237, 393}";
}
);
layerId = "98C086B7-81AA-4491-8494-0C6A76849168";
paths = (
{
closed = 1;
nodes = (
"59 197 CURVE SMOOTH",
"59 305 OFFCURVE",
"134 381 OFFCURVE",
"240 381 CURVE SMOOTH",
"309 381 OFFCURVE",
"363 338 OFFCURVE",
"373 278 CURVE",
"396 278 LINE",
"396 393 LINE",
"369 393 LINE",
"369 340 LINE",
"349 377 OFFCURVE",
"294 403 OFFCURVE",
"238 403 CURVE SMOOTH",
"117 403 OFFCURVE",
"30 318 OFFCURVE",
"30 198 CURVE SMOOTH",
"30 76 OFFCURVE",
"114 -11 OFFCURVE",
"233 -11 CURVE SMOOTH",
"304 -11 OFFCURVE",
"354 11 OFFCURVE",
"398 59 CURVE",
"395 82 LINE",
"347 33 OFFCURVE",
"303 12 OFFCURVE",
"234 12 CURVE SMOOTH",
"131 12 OFFCURVE",
"59 89 OFFCURVE"
);
}
);
width = 467;
},
{
associatedMasterId = "98C086B7-81AA-4491-8494-0C6A76849168";
layerId = "C84783A7-8A0D-4CAE-954B-9DC4859D09F0";
name = b;
paths = (
{
closed = 1;
nodes = (
"309 -7 OFFCURVE",
"370 16 OFFCURVE",
"424 69 CURVE",
"413 104 LINE",
"373 51 OFFCURVE",
"311 25 OFFCURVE",
"251 25 CURVE SMOOTH",
"154 25 OFFCURVE",
"83 94 OFFCURVE",
"83 198 CURVE SMOOTH",
"83 308 OFFCURVE",
"164 369 OFFCURVE",
"251 369 CURVE SMOOTH",
"344 369 OFFCURVE",
"375 321 OFFCURVE",
"379 278 CURVE",
"410 278 LINE",
"410 403 LINE",
"375 403 LINE",
"375 349 LINE",
"359 373 OFFCURVE",
"315 400 OFFCURVE",
"255 400 CURVE SMOOTH",
"131 400 OFFCURVE",
"44 317 OFFCURVE",
"44 198 CURVE SMOOTH",
"44 71 OFFCURVE",
"140 -7 OFFCURVE",
"251 -7 CURVE SMOOTH"
);
}
);
width = 467;
},
{
anchors = (
{
name = bot;
position = "{240, 0}";
},
{
name = top;
position = "{244, 393}";
}
);
layerId = "BE4F947C-73D7-4684-AEED-17801393DA53";
paths = (
{
closed = 1;
nodes = (
"103 201 CURVE SMOOTH",
"103 285 OFFCURVE",
"163 346 OFFCURVE",
"249 346 CURVE SMOOTH",
"311 346 OFFCURVE",
"356 311 OFFCURVE",
"368 254 CURVE",
"424 254 LINE",
"424 395 LINE",
"362 395 LINE",
"362 348 LINE",
"346 379 OFFCURVE",
"293 403 OFFCURVE",
"240 403 CURVE SMOOTH",
"115 403 OFFCURVE",
"26 319 OFFCURVE",
"26 199 CURVE SMOOTH",
"26 77 OFFCURVE",
"115 -10 OFFCURVE",
"240 -10 CURVE SMOOTH",
"323 -10 OFFCURVE",
"384 24 OFFCURVE",
"423 75 CURVE",
"392 120 LINE",
"356 79 OFFCURVE",
"317 48 OFFCURVE",
"247 48 CURVE SMOOTH",
"162 48 OFFCURVE",
"103 111 OFFCURVE"
);
}
);
width = 469;
},
{
anchors = (
{
name = bot;
position = "{273, 0}";
},
{
name = top;
position = "{286, 393}";
}
);
layerId = "EFCDB4D9-E20B-4A8D-9DB5-150AD166B0AE";
paths = (
{
closed = 1;
nodes = (
"266 -11 CURVE SMOOTH",
"324 -11 OFFCURVE",
"394 11 OFFCURVE",
"452 50 CURVE",
"411 139 LINE",
"368 115 OFFCURVE",
"319 100 OFFCURVE",
"277 99 CURVE SMOOTH",
"221 99 OFFCURVE",
"195 137 OFFCURVE",
"195 202 CURVE SMOOTH",
"195 267 OFFCURVE",
"226 295 OFFCURVE",
"263 295 CURVE SMOOTH",
"294 294 OFFCURVE",
"325 274 OFFCURVE",
"341 205 CURVE",
"442 205 LINE",
"442 392 LINE",
"331 392 LINE",
"327 367 LINE",
"308 391 OFFCURVE",
"268 403 OFFCURVE",
"235 403 CURVE SMOOTH",
"102 403 OFFCURVE",
"21 319 OFFCURVE",
"21 201 CURVE SMOOTH",
"21 66 OFFCURVE",
"110 -11 OFFCURVE"
);
}
);
width = 484;
}
);
unicode = 0063;
userData = {
com.typemytype.robofont.layerData = {
b = {
anchors = (
);
components = (
);
contours = (
{
points = (
{
smooth = 0;
x = 633;
y = "-14";
},
{
smooth = 0;
x = 758;
y = 33;
},
{
segmentType = curve;
smooth = 0;
x = 868;
y = 142;
},
{
segmentType = line;
smooth = 0;
x = 845;
y = 213;
},
{
smooth = 0;
x = 763;
y = 105;
},
{
smooth = 0;
x = 637;
y = 51;
},
{
segmentType = curve;
smooth = 1;
x = 515;
y = 51;
},
{
smooth = 0;
x = 316;
y = 51;
},
{
smooth = 0;
x = 169;
y = 193;
},
{
segmentType = curve;
smooth = 1;
x = 169;
y = 406;
},
{
smooth = 0;
x = 169;
y = 630;
},
{
smooth = 0;
x = 336;
y = 755;
},
{
segmentType = curve;
smooth = 1;
x = 515;
y = 755;
},
{
smooth = 0;
x = 705;
y = 755;
},
{
smooth = 0;
x = 768;
y = 657;
},
{
segmentType = curve;
smooth = 0;
x = 776;
y = 570;
},
{
segmentType = line;
smooth = 0;
x = 840;
y = 570;
},
{
segmentType = line;
smooth = 0;
x = 840;
y = 825;
},
{
segmentType = line;
smooth = 0;
x = 767;
y = 825;
},
{
segmentType = line;
smooth = 0;
x = 767;
y = 714;
},
{
smooth = 0;
x = 736;
y = 764;
},
{
smooth = 0;
x = 645;
y = 819;
},
{
segmentType = curve;
smooth = 1;
x = 522;
y = 819;
},
{
smooth = 0;
x = 268.9680;
y = 819;
},
{
smooth = 0;
x = 90;
y = 650;
},
{
segmentType = curve;
smooth = 1;
x = 90;
y = 406;
},
{
smooth = 0;
x = 90;
y = 145;
},
{
smooth = 0;
x = 286;
y = "-14";
},
{
segmentType = curve;
smooth = 1;
x = 515;
y = "-14";
}
);
}
);
lib = {
};
name = c;
unicodes = (
);
width = 956;
};
};
org.robofab.postScriptHintData = {
};
};
},
{
glyphname = d;
lastChange = "2016-08-04 10:04:12 +0000";
layers = (
{
anchors = (
{
name = caron.alt;
position = "{410, 393}";
},
{
name = mid;
position = "{397, 469}";
},
{
name = top;
position = "{226, 393}";
}
);
layerId = "98C086B7-81AA-4491-8494-0C6A76849168";
paths = (
{
closed = 1;
nodes = (
"383 0 LINE",
"479 0 LINE",
"479 22 LINE",
"412 22 LINE",
"412 573 LINE",
"317 573 LINE",
"317 551 LINE",
"383 551 LINE",
"383 349 LINE",
"341 381 OFFCURVE",
"280 403 OFFCURVE",
"226 403 CURVE SMOOTH",
"112 403 OFFCURVE",
"30 320 OFFCURVE",
"30 197 CURVE SMOOTH",
"30 74 OFFCURVE",
"118 -11 OFFCURVE",
"238 -11 CURVE SMOOTH",
"288 -11 OFFCURVE",
"344 11 OFFCURVE",
"383 43 CURVE"
);
},
{
closed = 1;
nodes = (
"383 327 CURVE",
"383 67 LINE",
"343 34 OFFCURVE",
"288 12 OFFCURVE",
"240 12 CURVE SMOOTH",
"135 12 OFFCURVE",
"59 86 OFFCURVE",
"59 193 CURVE SMOOTH",
"59 305 OFFCURVE",
"129 381 OFFCURVE",
"228 381 CURVE SMOOTH",
"280 381 OFFCURVE",
"340 359 OFFCURVE"
);
}
);
width = 497;
},
{
associatedMasterId = "98C086B7-81AA-4491-8494-0C6A76849168";
layerId = "ACDB2252-A5D0-43D0-960D-BB44F0773F9F";
name = b;
width = 494;
},
{
anchors = (
{
name = caron.alt;
position = "{480, 393}";
},
{
name = mid;
position = "{389, 459}";
},
{
name = top;
position = "{180, 393}";
}
);
layerId = "BE4F947C-73D7-4684-AEED-17801393DA53";
paths = (
{
closed = 1;
nodes = (
"354 0 LINE",
"490 0 LINE",
"490 53 LINE",
"428 53 LINE",
"428 573 LINE",
"284 573 LINE",
"284 521 LINE",
"354 521 LINE",
"354 362 LINE",
"315 388 OFFCURVE",
"267 403 OFFCURVE",
"221 403 CURVE SMOOTH",
"117 403 OFFCURVE",
"28 330 OFFCURVE",
"28 197 CURVE SMOOTH",
"28 66 OFFCURVE",
"121 -11 OFFCURVE",
"229 -11 CURVE SMOOTH",
"271 -11 OFFCURVE",
"317 3 OFFCURVE",
"354 29 CURVE"
);
},
{
closed = 1;
nodes = (
"354 309 CURVE",
"354 81 LINE",
"320 59 OFFCURVE",
"280 45 OFFCURVE",
"245 45 CURVE SMOOTH",
"167 45 OFFCURVE",
"105 97 OFFCURVE",
"105 191 CURVE SMOOTH",
"105 292 OFFCURVE",
"160 347 OFFCURVE",
"236 347 CURVE SMOOTH",
"274 347 OFFCURVE",
"317 333 OFFCURVE"
);
}
);
width = 513;
},
{
anchors = (
{
name = caron.alt;
position = "{469, 393}";
},
{
name = mid;
position = "{425, 431}";
},
{
name = top;
position = "{147, 393}";
}
);
layerId = "EFCDB4D9-E20B-4A8D-9DB5-150AD166B0AE";
paths = (
{
closed = 1;
nodes = (
"507 109 LINE",
"507 573 LINE",
"265 573 LINE",
"265 464 LINE",
"336 464 LINE",
"336 362 LINE",
"300 387 OFFCURVE",
"262 403 OFFCURVE",
"223 403 CURVE SMOOTH",
"98 403 OFFCURVE",
"21 313 OFFCURVE",
"21 186 CURVE SMOOTH",
"21 69 OFFCURVE",
"107 -11 OFFCURVE",
"246 -11 CURVE SMOOTH",
"282 -11 OFFCURVE",
"311 -1 OFFCURVE",
"336 15 CURVE",
"336 0 LINE",
"549 0 LINE",
"549 109 LINE"
);
},
{
closed = 1;
nodes = (
"201 199 CURVE SMOOTH",
"201 262 OFFCURVE",
"240 294 OFFCURVE",
"301 294 CURVE SMOOTH",
"312 294 OFFCURVE",
"323 293 OFFCURVE",
"336 292 CURVE",
"336 104 LINE",
"316 101 OFFCURVE",
"299 99 OFFCURVE",
"286 99 CURVE SMOOTH",
"234 99 OFFCURVE",
"201 141 OFFCURVE"
);
}
);
width = 570;
}
);
unicode = 0064;
userData = {
com.typemytype.robofont.layerData = {
b = {
anchors = (
);
components = (
);
contours = (
);
lib = {
};
name = d;
unicodes = (
);
width = 1011;
};
};
org.robofab.postScriptHintData = {
};
};
},
{
glyphname = eth;
lastChange = "2016-08-04 10:04:12 +0000";
layers = (
{
layerId = "98C086B7-81AA-4491-8494-0C6A76849168";
paths = (
{
closed = 1;
nodes = (
"216 -11 CURVE SMOOTH",
"317 -11 OFFCURVE",
"405 61 OFFCURVE",
"405 193 CURVE SMOOTH",
"405 396 OFFCURVE",
"188 564 OFFCURVE",
"75 662 CURVE",
"59 645 LINE",
"150 568 OFFCURVE",
"276 470 OFFCURVE",
"336 341 CURVE",
"302 373 OFFCURVE",
"250 393 OFFCURVE",
"210 393 CURVE SMOOTH",
"105 393 OFFCURVE",
"22 307 OFFCURVE",
"22 212 CURVE SMOOTH",
"22 100 OFFCURVE",
"83 -11 OFFCURVE"
);
},
{
closed = 1;
nodes = (
"216 15 CURVE SMOOTH",
"101 15 OFFCURVE",
"52 111 OFFCURVE",
"52 201 CURVE SMOOTH",
"52 316 OFFCURVE",
"136 370 OFFCURVE",
"213 370 CURVE SMOOTH",
"292 370 OFFCURVE",
"377 318 OFFCURVE",
"377 198 CURVE SMOOTH",
"377 109 OFFCURVE",
"332 15 OFFCURVE"
);
},
{
closed = 1;
nodes = (
"85 446 LINE",
"356 563 LINE",
"344 583 LINE",
"73 468 LINE"
);
}
);
width = 439;
},
{
associatedMasterId = "98C086B7-81AA-4491-8494-0C6A76849168";
layerId = "2A72380F-BC81-4E1E-84F6-11160416B8D7";
name = b;
width = 433;
},
{
layerId = "BE4F947C-73D7-4684-AEED-17801393DA53";
paths = (
{
closed = 1;
nodes = (
"242 -10 CURVE SMOOTH",
"357 -10 OFFCURVE",
"442 75 OFFCURVE",
"442 195 CURVE SMOOTH",
"442 417 OFFCURVE",
"258 554 OFFCURVE",
"114 669 CURVE",
"78 624 LINE",
"184 543 OFFCURVE",
"295 448 OFFCURVE",
"342 350 CURVE",
"330 360 OFFCURVE",
"291 385 OFFCURVE",
"229 385 CURVE SMOOTH",
"132 385 OFFCURVE",
"42 308 OFFCURVE",
"42 205 CURVE SMOOTH",
"42 87 OFFCURVE",
"112 -10 OFFCURVE"
);
},
{
closed = 1;
nodes = (
"242 49 CURVE SMOOTH",
"159 49 OFFCURVE",
"113 120 OFFCURVE",
"113 198 CURVE SMOOTH",
"113 282 OFFCURVE",
"167 331 OFFCURVE",
"238 331 CURVE SMOOTH",
"308 331 OFFCURVE",
"374 286 OFFCURVE",
"374 195 CURVE SMOOTH",
"374 122 OFFCURVE",
"335 49 OFFCURVE"
);
},
{
closed = 1;
nodes = (
"111 432 LINE",
"406 564 LINE",
"383 608 LINE",
"89 477 LINE"
);
}
);
width = 479;
},
{
layerId = "EFCDB4D9-E20B-4A8D-9DB5-150AD166B0AE";
paths = (
{
closed = 1;
nodes = (
"291 -11 CURVE SMOOTH",
"447 -11 OFFCURVE",
"537 102 OFFCURVE",
"537 225 CURVE SMOOTH",
"537 597 OFFCURVE",
"327 691 OFFCURVE",
"250 719 CURVE",
"189 640 LINE",
"272 589 OFFCURVE",
"350 524 OFFCURVE",
"408 363 CURVE",
"408 363 OFFCURVE",
"354 396 OFFCURVE",
"277 396 CURVE SMOOTH",
"122 396 OFFCURVE",
"76 273 OFFCURVE",
"76 190 CURVE SMOOTH",
"76 88 OFFCURVE",
"135 -11 OFFCURVE"
);
},
{
closed = 1;
nodes = (
"309 107 CURVE SMOOTH",
"263 107 OFFCURVE",
"235 143 OFFCURVE",
"235 208 CURVE SMOOTH",
"235 265 OFFCURVE",
"264 297 OFFCURVE",
"310 297 CURVE SMOOTH",
"355 297 OFFCURVE",
"380 264 OFFCURVE",
"380 208 CURVE SMOOTH",
"380 142 OFFCURVE",
"352 107 OFFCURVE"
);
},
{
closed = 1;
nodes = (
"235 448 LINE",
"535 594 LINE",
"491 692 LINE",
"189 546 LINE"
);
}
);
width = 525;
}
);
unicode = 00F0;
userData = {
com.typemytype.robofont.layerData = {
b = {
anchors = (
);
components = (
);
contours = (
);
lib = {
};
name = eth;
unicodes = (
);
width = 886;
};
};
org.robofab.postScriptHintData = {
};
};
},
{
glyphname = e;
lastChange = "2016-08-04 10:04:12 +0000";
layers = (
{
anchors = (
{
name = bot;
position = "{244, 0}";
},
{
name = top;
position = "{238, 393}";
}
);
layerId = "98C086B7-81AA-4491-8494-0C6A76849168";
paths = (
{
closed = 1;
nodes = (
"59 210 LINE",
"63 314 OFFCURVE",
"138 381 OFFCURVE",
"229 381 CURVE SMOOTH",
"309 381 OFFCURVE",
"382 327 OFFCURVE",
"394 210 CURVE"
);
},
{
closed = 1;
nodes = (
"237 -11 CURVE SMOOTH",
"298 -11 OFFCURVE",
"362 14 OFFCURVE",
"412 63 CURVE",
"402 85 LINE",
"368 44 OFFCURVE",
"300 12 OFFCURVE",
"238 12 CURVE SMOOTH",
"152 12 OFFCURVE",
"64 73 OFFCURVE",
"60 189 CURVE",
"421 189 LINE",
"417 347 OFFCURVE",
"317 403 OFFCURVE",
"229 403 CURVE SMOOTH",
"129 403 OFFCURVE",
"30 333 OFFCURVE",
"30 197 CURVE SMOOTH",
"30 66 OFFCURVE",
"129 -11 OFFCURVE"
);
}
);
width = 474;
},
{
associatedMasterId = "98C086B7-81AA-4491-8494-0C6A76849168";
layerId = "197A2161-2025-47E5-87FA-EC487ACEC851";
name = b;
paths = (
{
closed = 1;
nodes = (
"83 216 LINE",
"89 289 OFFCURVE",
"145 369 OFFCURVE",
"248 369 CURVE SMOOTH",
"341 369 OFFCURVE",
"392 301 OFFCURVE",
"400 216 CURVE"
);
},
{
closed = 1;
nodes = (
"435 187 LINE",
"434 293 OFFCURVE",
"380 400 OFFCURVE",
"245 400 CURVE SMOOTH",
"113 400 OFFCURVE",
"44 302 OFFCURVE",
"44 197 CURVE SMOOTH",
"44 73 OFFCURVE",
"139 -7 OFFCURVE",
"250 -7 CURVE SMOOTH",
"321 -7 OFFCURVE",
"372 17 OFFCURVE",
"424 68 CURVE",
"408 96 LINE",
"365 50 OFFCURVE",
"318 24 OFFCURVE",
"251 24 CURVE SMOOTH",
"169 24 OFFCURVE",
"89 79 OFFCURVE",
"83 187 CURVE"
);
}
);
width = 476;
},
{
anchors = (
{
name = bot;
position = "{237, 0}";
},
{
name = top;
position = "{236, 393}";
}
);
layerId = "BE4F947C-73D7-4684-AEED-17801393DA53";
paths = (
{
closed = 1;
nodes = (
"103 227 LINE",
"110 299 OFFCURVE",
"166 349 OFFCURVE",
"233 349 CURVE SMOOTH",
"294 349 OFFCURVE",
"345 304 OFFCURVE",
"353 227 CURVE"
);
},
{
closed = 1;
nodes = (
"241 -10 CURVE SMOOTH",
"314 -10 OFFCURVE",
"382 21 OFFCURVE",
"419 63 CURVE",
"393 108 LINE",
"355 73 OFFCURVE",
"304 47 OFFCURVE",
"244 47 CURVE SMOOTH",
"170 47 OFFCURVE",
"107 99 OFFCURVE",
"102 181 CURVE",
"426 181 LINE",
"425 322 OFFCURVE",
"338 403 OFFCURVE",
"233 403 CURVE SMOOTH",
"117 403 OFFCURVE",
"25 323 OFFCURVE",
"25 196 CURVE SMOOTH",
"25 72 OFFCURVE",
"119 -10 OFFCURVE"
);
}
);
width = 461;
},
{
anchors = (
{
name = bot;
position = "{251, 0}";
},
{
name = ogonek;
position = "{331, 0}";
},
{
name = top;
position = "{239, 393}";
}
);
layerId = "EFCDB4D9-E20B-4A8D-9DB5-150AD166B0AE";
paths = (
{
closed = 1;
nodes = (
"263 -10 CURVE SMOOTH",
"330 -10 OFFCURVE",
"396 8 OFFCURVE",
"443 42 CURVE",
"402 128 LINE",
"367 111 OFFCURVE",
"324 100 OFFCURVE",
"290 100 CURVE SMOOTH",
"241 100 OFFCURVE",
"201 117 OFFCURVE",
"197 174 CURVE",
"443 174 LINE",
"443 320 OFFCURVE",
"371 404 OFFCURVE",
"244 404 CURVE SMOOTH",
"101 404 OFFCURVE",
"20 327 OFFCURVE",
"20 192 CURVE SMOOTH",
"20 63 OFFCURVE",
"108 -10 OFFCURVE"
);
},
{
closed = 1;
nodes = (
"198 249 LINE",
"205 292 OFFCURVE",
"224 315 OFFCURVE",
"252 315 CURVE SMOOTH",
"288 315 OFFCURVE",
"306 292 OFFCURVE",
"303 249 CURVE"
);
}
);
width = 469;
}
);
unicode = 0065;
userData = {
com.typemytype.robofont.layerData = {
b = {
anchors = (
);
components = (
);
contours = (
{
points = (
{
segmentType = line;
smooth = 0;
x = 171;
y = 442;
},
{
smooth = 0;
x = 182;
y = 592;
},
{
smooth = 0;
x = 296;
y = 755;
},
{
segmentType = curve;
smooth = 1;
x = 507;
y = 755;
},
{
smooth = 0;
x = 699;
y = 755;
},
{
smooth = 0;
x = 803;
y = 616;
},
{
segmentType = curve;
smooth = 0;
x = 820;
y = 442;
}
);
},
{
points = (
{
segmentType = line;
smooth = 0;
x = 890;
y = 383;
},
{
smooth = 0;
x = 889;
y = 601;
},
{
smooth = 0;
x = 778.7680;
y = 819;
},
{
segmentType = curve;
smooth = 1;
x = 502;
y = 819;
},
{
smooth = 0;
x = 232;
y = 819;
},
{
smooth = 0;
x = 90;
y = 618;
},
{
segmentType = curve;
smooth = 1;
x = 90;
y = 403;
},
{
smooth = 0;
x = 90;
y = 150;
},
{
smooth = 0;
x = 284;
y = "-14";
},
{
segmentType = curve;
smooth = 1;
x = 511;
y = "-14";
},
{
smooth = 0;
x = 657;
y = "-14";
},
{
smooth = 0;
x = 761;
y = 34;
},
{
segmentType = curve;
smooth = 0;
x = 868;
y = 139;
},
{
segmentType = line;
smooth = 0;
x = 836;
y = 197;
},
{
smooth = 0;
x = 747;
y = 103;
},
{
smooth = 0;
x = 652;
y = 50;
},
{
segmentType = curve;
smooth = 1;
x = 515;
y = 50;
},
{
smooth = 0;
x = 347;
y = 50;
},
{
smooth = 0;
x = 182;
y = 162;
},
{
segmentType = curve;
smooth = 0;
x = 169;
y = 383;
}
);
}
);
lib = {
};
name = e;
unicodes = (
);
width = 975;
};
};
org.robofab.postScriptHintData = {
};
};
},
{
glyphname = f;
lastChange = "2016-08-04 10:04:12 +0000";
layers = (
{
anchors = (
{
name = top;
position = "{186, 528}";
}
);
layerId = "98C086B7-81AA-4491-8494-0C6A76849168";
paths = (
{
closed = 1;
nodes = (
"54 0 LINE",
"253 0 LINE",
"253 22 LINE",
"158 22 LINE",
"158 371 LINE",
"272 371 LINE",
"272 393 LINE",
"158 393 LINE",
"158 501 LINE SMOOTH",
"158 541 OFFCURVE",
"180 561 OFFCURVE",
"212 561 CURVE SMOOTH",
"244 561 OFFCURVE",
"262 543 OFFCURVE",
"267 508 CURVE",
"289 517 LINE",
"285 560 OFFCURVE",
"255 583 OFFCURVE",
"210 583 CURVE SMOOTH",
"159 583 OFFCURVE",
"127 553 OFFCURVE",
"127 502 CURVE SMOOTH",
"127 393 LINE",
"52 393 LINE",
"52 371 LINE",
"127 371 LINE",
"127 22 LINE",
"54 22 LINE"
);
}
);
width = 330;
},
{
associatedMasterId = "98C086B7-81AA-4491-8494-0C6A76849168";
layerId = "7DCE8888-F527-45DD-878B-5433D946ECB7";
name = b;
width = 328;
},
{
anchors = (
{
name = top;
position = "{190, 551}";
}
);
layerId = "BE4F947C-73D7-4684-AEED-17801393DA53";
paths = (
{
closed = 1;
nodes = (
"41 0 LINE",
"294 0 LINE",
"294 53 LINE",
"193 53 LINE",
"193 340 LINE",
"295 340 LINE",
"295 393 LINE",
"193 393 LINE",
"193 476 LINE SMOOTH",
"193 523 OFFCURVE",
"211 544 OFFCURVE",
"240 544 CURVE SMOOTH",
"272 544 OFFCURVE",
"283 522 OFFCURVE",
"289 488 CURVE",
"346 504 LINE",
"341 573 OFFCURVE",
"291 596 OFFCURVE",
"237 596 CURVE SMOOTH",
"156 596 OFFCURVE",
"119 549 OFFCURVE",
"119 477 CURVE SMOOTH",
"119 393 LINE",
"42 393 LINE",
"42 340 LINE",
"119 340 LINE",
"119 53 LINE",
"41 53 LINE"
);
}
);
width = 342;
},
{
anchors = (
{
name = top;
position = "{242, 593}";
}
);
layerId = "EFCDB4D9-E20B-4A8D-9DB5-150AD166B0AE";
paths = (
{
closed = 1;
nodes = (
"32 109 LINE",
"32 0 LINE",
"416 0 LINE",
"416 109 LINE",
"298 109 LINE",
"298 283 LINE",
"417 283 LINE",
"417 393 LINE",
"298 393 LINE",
"298 432 LINE SMOOTH",
"298 505 OFFCURVE",
"324 509 OFFCURVE",
"342 509 CURVE SMOOTH",
"377 509 OFFCURVE",
"377 492 OFFCURVE",
"384 451 CURVE",
"506 492 LINE",
"493 563 OFFCURVE",
"464 609 OFFCURVE",
"312 609 CURVE SMOOTH",
"137 609 OFFCURVE",
"126 482 OFFCURVE",
"126 391 CURVE SMOOTH",
"126 393 LINE",
"31 393 LINE",
"31 283 LINE",
"126 283 LINE",
"126 109 LINE"
);
}
);
width = 469;
}
);
unicode = 0066;
userData = {
com.typemytype.robofont.layerData = {
b = {
anchors = (
);
components = (
);
contours = (
);
lib = {
};
name = f;
unicodes = (
);
width = 671;
};
};
org.robofab.postScriptHintData = {
};
};
},
{
glyphname = g;
lastChange = "2016-08-04 10:04:12 +0000";
layers = (
{
anchors = (
{
name = top;
position = "{239, 393}";
}
);
layerId = "98C086B7-81AA-4491-8494-0C6A76849168";
paths = (
{
closed = 1;
nodes = (
"233 -184 CURVE SMOOTH",
"347 -184 OFFCURVE",
"417 -129 OFFCURVE",
"417 -8 CURVE SMOOTH",
"417 371 LINE",
"484 371 LINE",
"484 393 LINE",
"388 393 LINE",
"388 345 LINE",
"347 379 OFFCURVE",
"283 402 OFFCURVE",
"227 402 CURVE SMOOTH",
"112 402 OFFCURVE",
"31 321 OFFCURVE",
"31 201 CURVE SMOOTH",
"31 80 OFFCURVE",
"118 -3 OFFCURVE",
"238 -3 CURVE SMOOTH",
"290 -3 OFFCURVE",
"349 20 OFFCURVE",
"388 54 CURVE",
"388 -15 LINE SMOOTH",
"388 -105 OFFCURVE",
"338 -161 OFFCURVE",
"234 -161 CURVE SMOOTH",
"197 -161 OFFCURVE",
"153 -154 OFFCURVE",
"98 -138 CURVE",
"93 -161 LINE",
"144 -174 OFFCURVE",
"192 -184 OFFCURVE"
);
},
{
closed = 1;
nodes = (
"388 324 CURVE",
"388 77 LINE",
"349 42 OFFCURVE",
"290 19 OFFCURVE",
"240 19 CURVE SMOOTH",
"135 19 OFFCURVE",
"60 91 OFFCURVE",
"60 197 CURVE SMOOTH",
"60 306 OFFCURVE",
"129 381 OFFCURVE",
"229 381 CURVE SMOOTH",
"283 381 OFFCURVE",
"345 358 OFFCURVE"
);
}
);
width = 497;
},
{
associatedMasterId = "98C086B7-81AA-4491-8494-0C6A76849168";
layerId = "30F1FC07-52FB-4BAD-AB2A-4EBE47A26902";
name = b;
paths = (
{
closed = 1;
nodes = (
"249 -163 CURVE SMOOTH",
"353 -163 OFFCURVE",
"430 -110 OFFCURVE",
"430 7 CURVE",
"430 359 LINE",
"491 359 LINE",
"491 385 LINE",
"393 385 LINE",
"393 329 LINE",
"393 329 OFFCURVE",
"393 -1 OFFCURVE",
"393 -1 CURVE SMOOTH",
"393 -84 OFFCURVE",
"339 -132 OFFCURVE",
"251 -132 CURVE SMOOTH",
"217 -132 OFFCURVE",
"177 -125 OFFCURVE",
"133 -109 CURVE",
"125 -141 LINE",
"168 -155 OFFCURVE",
"210 -163 OFFCURVE"
);
}
);
width = 495;
},
{
anchors = (
{
name = top;
position = "{246, 393}";
}
);
layerId = "BE4F947C-73D7-4684-AEED-17801393DA53";
paths = (
{
closed = 1;
nodes = (
"235 -188 CURVE SMOOTH",
"350 -188 OFFCURVE",
"437 -137 OFFCURVE",
"437 -9 CURVE SMOOTH",
"437 340 LINE",
"503 340 LINE",
"503 393 LINE",
"362 393 LINE",
"362 358 LINE",
"327 386 OFFCURVE",
"274 402 OFFCURVE",
"230 402 CURVE SMOOTH",
"119 402 OFFCURVE",
"31 331 OFFCURVE",
"31 200 CURVE SMOOTH",
"31 72 OFFCURVE",
"121 -3 OFFCURVE",
"232 -3 CURVE SMOOTH",
"277 -3 OFFCURVE",
"325 12 OFFCURVE",
"363 40 CURVE",
"363 -14 LINE SMOOTH",
"363 -93 OFFCURVE",
"314 -129 OFFCURVE",
"233 -129 CURVE SMOOTH",
"194 -129 OFFCURVE",
"148 -120 OFFCURVE",
"102 -106 CURVE",
"87 -164 LINE",
"136 -179 OFFCURVE",
"188 -188 OFFCURVE"
);
},
{
closed = 1;
nodes = (
"362 307 CURVE",
"363 91 LINE",
"328 66 OFFCURVE",
"285 52 OFFCURVE",
"247 52 CURVE SMOOTH",
"169 52 OFFCURVE",
"108 103 OFFCURVE",
"108 195 CURVE SMOOTH",
"108 294 OFFCURVE",
"163 348 OFFCURVE",
"239 348 CURVE SMOOTH",
"279 348 OFFCURVE",
"324 332 OFFCURVE"
);
}
);
width = 513;
},
{
anchors = (
{
name = top;
position = "{285, 393}";
}
);
layerId = "EFCDB4D9-E20B-4A8D-9DB5-150AD166B0AE";
paths = (
{
closed = 1;
nodes = (
"235 -197 CURVE SMOOTH",
"372 -197 OFFCURVE",
"488 -152 OFFCURVE",
"488 44 CURVE SMOOTH",
"488 286 LINE",
"541 286 LINE",
"541 393 LINE",
"362 393 LINE",
"342 359 LINE",
"305 385 OFFCURVE",
"265 402 OFFCURVE",
"225 402 CURVE SMOOTH",
"100 402 OFFCURVE",
"22 314 OFFCURVE",
"22 189 CURVE SMOOTH",
"22 75 OFFCURVE",
"109 -3 OFFCURVE",
"248 -3 CURVE SMOOTH",
"272 -3 OFFCURVE",
"292 1 OFFCURVE",
"311 8 CURVE",
"311 4 OFFCURVE",
"311 11 OFFCURVE",
"311 8 CURVE SMOOTH",
"306 -58 OFFCURVE",
"286 -83 OFFCURVE",
"233 -83 CURVE SMOOTH",
"191 -83 OFFCURVE",
"155 -78 OFFCURVE",
"96 -60 CURVE",
"70 -168 LINE",
"123 -184 OFFCURVE",
"169 -197 OFFCURVE"
);
},
{
closed = 1;
nodes = (
"288 104 CURVE SMOOTH",
"235 104 OFFCURVE",
"203 146 OFFCURVE",
"203 203 CURVE SMOOTH",
"203 264 OFFCURVE",
"242 295 OFFCURVE",
"302 295 CURVE SMOOTH",
"305 295 OFFCURVE",
"308 297 OFFCURVE",
"311 299 CURVE",
"311 103 LINE",
"301 104 OFFCURVE",
"294 104 OFFCURVE"
);
}
);
width = 568;
}
);
unicode = 0067;
userData = {
com.typemytype.robofont.layerData = {
b = {
anchors = (
);
components = (
);
contours = (
{
points = (
{
segmentType = curve;
smooth = 1;
x = 510;
y = "-333";
},
{
smooth = 0;
x = 722;
y = "-333";
},
{
smooth = 0;
x = 880;
y = "-225";
},
{
segmentType = curve;
smooth = 0;
x = 880;
y = 15;
},
{
segmentType = line;
smooth = 0;
x = 880;
y = 735;
},
{
segmentType = line;
smooth = 0;
x = 1005;
y = 735;
},
{
segmentType = line;
smooth = 0;
x = 1005;
y = 789;
},
{
segmentType = line;
smooth = 0;
x = 804;
y = 789;
},
{
segmentType = line;
smooth = 0;
x = 804;
y = 673;
},
{
smooth = 0;
x = 804;
y = 673;
},
{
smooth = 0;
x = 804;
y = "-2";
},
{
segmentType = curve;
smooth = 1;
x = 804;
y = "-2";
},
{
smooth = 0;
x = 804;
y = "-173";
},
{
smooth = 0;
x = 695;
y = "-271";
},
{
segmentType = curve;
smooth = 1;
x = 515;
y = "-271";
},
{
smooth = 0;
x = 444;
y = "-271";
},
{
smooth = 0;
x = 362;
y = "-255";
},
{
segmentType = curve;
smooth = 0;
x = 272;
y = "-224";
},
{
segmentType = line;
smooth = 0;
x = 257;
y = "-289";
},
{
smooth = 0;
x = 345;
y = "-318";
},
{
smooth = 0;
x = 431;
y = "-333";
}
);
}
);
lib = {
};
name = g;
unicodes = (
);
width = 1013;
};
};
org.robofab.postScriptHintData = {
};
};
},
{
glyphname = h;
lastChange = "2016-08-04 10:04:12 +0000";
layers = (
{
anchors = (
{
name = mid;
position = "{109, 468}";
},
{
name = top;
position = "{252, 495}";
}
);
layerId = "98C086B7-81AA-4491-8494-0C6A76849168";
paths = (
{
closed = 1;
nodes = (
"14 0 LINE",
"187 0 LINE",
"187 22 LINE",
"115 22 LINE",
"115 327 LINE",
"173 358 OFFCURVE",
"230 380 OFFCURVE",
"277 380 CURVE SMOOTH",
"334 380 OFFCURVE",
"372 346 OFFCURVE",
"372 290 CURVE SMOOTH",
"372 22 LINE",
"287 22 LINE",
"287 0 LINE",
"476 0 LINE",
"476 22 LINE",
"400 22 LINE",
"400 282 LINE SMOOTH",
"400 357 OFFCURVE",
"353 403 OFFCURVE",
"280 403 CURVE SMOOTH",
"225 403 OFFCURVE",
"174 382 OFFCURVE",
"115 348 CURVE",
"115 573 LINE",
"17 573 LINE",
"17 551 LINE",
"86 551 LINE",
"86 22 LINE",
"14 22 LINE"
);
}
);
width = 478;
},
{
associatedMasterId = "98C086B7-81AA-4491-8494-0C6A76849168";
layerId = "301D9DDE-946A-4F17-AC5E-71844C78E13E";
name = b;
width = 471;
},
{
anchors = (
{
name = mid;
position = "{131, 456}";
},
{
name = top;
position = "{301, 518}";
}
);
layerId = "BE4F947C-73D7-4684-AEED-17801393DA53";
paths = (
{
closed = 1;
nodes = (
"21 0 LINE",
"232 0 LINE",
"232 53 LINE",
"168 53 LINE",
"168 299 LINE",
"209 326 OFFCURVE",
"256 345 OFFCURVE",
"298 345 CURVE SMOOTH",
"344 345 OFFCURVE",
"372 313 OFFCURVE",
"372 258 CURVE SMOOTH",
"372 53 LINE",
"307 53 LINE",
"307 0 LINE",
"518 0 LINE",
"518 53 LINE",
"446 53 LINE",
"446 272 LINE SMOOTH",
"446 357 OFFCURVE",
"388 403 OFFCURVE",
"316 403 CURVE SMOOTH",
"264 403 OFFCURVE",
"216 381 OFFCURVE",
"168 349 CURVE",
"168 573 LINE",
"22 573 LINE",
"22 521 LINE",
"94 521 LINE",
"94 53 LINE",
"21 53 LINE"
);
}
);
width = 520;
},
{
anchors = (
{
name = mid;
position = "{164, 415}";
},
{
name = top;
position = "{291, 569}";
}
);
layerId = "EFCDB4D9-E20B-4A8D-9DB5-150AD166B0AE";
paths = (
{
closed = 1;
nodes = (
"565 109 LINE",
"565 230 LINE SMOOTH",
"567 351 OFFCURVE",
"507 403 OFFCURVE",
"426 403 CURVE SMOOTH",
"364 403 OFFCURVE",
"309 380 OFFCURVE",
"254 326 CURVE",
"254 573 LINE",
"21 573 LINE",
"21 464 LINE",
"83 464 LINE",
"83 109 LINE",
"21 109 LINE",
"21 0 LINE",
"313 0 LINE",
"313 109 LINE",
"254 109 LINE",
"254 254 LINE",
"281 273 OFFCURVE",
"307 280 OFFCURVE",
"335 280 CURVE SMOOTH",
"369 280 OFFCURVE",
"394 262 OFFCURVE",
"394 212 CURVE SMOOTH",
"394 109 LINE",
"348 109 LINE",
"348 0 LINE",
"630 0 LINE",
"630 109 LINE"
);
}
);
width = 642;
}
);
unicode = 0068;
userData = {
com.typemytype.robofont.layerData = {
b = {
anchors = (
);
components = (
);
contours = (
);
lib = {
};
name = h;
unicodes = (
);
width = 965;
};
};
org.robofab.postScriptHintData = {
};
};
},
{
glyphname = i;
lastChange = "2016-08-04 10:04:12 +0000";
layers = (
{
layerId = "98C086B7-81AA-4491-8494-0C6A76849168";
paths = (
{
closed = 1;
nodes = (
"142 495 CURVE SMOOTH",
"158 495 OFFCURVE",
"169 505 OFFCURVE",
"169 520 CURVE SMOOTH",
"169 534 OFFCURVE",
"158 544 OFFCURVE",
"142 544 CURVE SMOOTH",
"126 544 OFFCURVE",
"116 534 OFFCURVE",
"116 520 CURVE SMOOTH",
"116 505 OFFCURVE",
"126 495 OFFCURVE"
);
},
{
closed = 1;
nodes = (
"49 0 LINE",
"248 0 LINE",
"248 22 LINE",
"164 22 LINE",
"164 393 LINE",
"50 393 LINE",
"50 371 LINE",
"135 371 LINE",
"135 22 LINE",
"49 22 LINE"
);
}
);
width = 269;
},
{
associatedMasterId = "98C086B7-81AA-4491-8494-0C6A76849168";
layerId = "60D81842-FC0F-40CA-927F-BBB65FF4D795";
name = b;
width = 259;
},
{
layerId = "BE4F947C-73D7-4684-AEED-17801393DA53";
paths = (
{
closed = 1;
nodes = (
"163 479 CURVE SMOOTH",
"193 479 OFFCURVE",
"217 501 OFFCURVE",
"217 530 CURVE SMOOTH",
"217 559 OFFCURVE",
"193 581 OFFCURVE",
"163 581 CURVE SMOOTH",
"133 581 OFFCURVE",
"109 559 OFFCURVE",
"109 530 CURVE SMOOTH",
"109 501 OFFCURVE",
"133 479 OFFCURVE"
);
},
{
closed = 1;
nodes = (
"60 0 LINE",
"280 0 LINE",
"280 53 LINE",
"209 53 LINE",
"209 393 LINE",
"61 393 LINE",
"61 340 LINE",
"136 340 LINE",
"136 53 LINE",
"60 53 LINE"
);
}
);
width = 305;
},
{
anchors = (
{
name = ogonek;
position = "{172, 0}";
},
{
name = top;
position = "{162, 392}";
}
);
layerId = "EFCDB4D9-E20B-4A8D-9DB5-150AD166B0AE";
paths = (
{
closed = 1;
nodes = (
"164 472 CURVE SMOOTH",
"224 472 OFFCURVE",
"263 509 OFFCURVE",
"262 567 CURVE SMOOTH",
"262 624 OFFCURVE",
"224 661 OFFCURVE",
"164 661 CURVE SMOOTH",
"104 661 OFFCURVE",
"65 624 OFFCURVE",
"65 567 CURVE SMOOTH",
"65 509 OFFCURVE",
"104 472 OFFCURVE"
);
},
{
closed = 1;
nodes = (
"33 109 LINE",
"33 0 LINE",
"309 0 LINE",
"309 109 LINE",
"261 109 LINE",
"261 393 LINE",
"39 393 LINE",
"39 283 LINE",
"89 283 LINE",
"89 109 LINE"
);
}
);
width = 335;
}
);
unicode = 0069;
userData = {
com.typemytype.robofont.layerData = {
b = {
anchors = (
);
components = (
);
contours = (
);
lib = {
};
name = i;
unicodes = (
);
width = 531;
};
};
org.robofab.postScriptHintData = {
};
};
},
{
glyphname = dotlessi;
lastChange = "2016-08-04 10:04:12 +0000";
layers = (
{
anchors = (
{
name = ogonek;
position = "{152, 0}";
},
{
name = top;
position = "{142, 393}";
}
);
layerId = "98C086B7-81AA-4491-8494-0C6A76849168";
paths = (
{
closed = 1;
nodes = (
"49 0 LINE",
"248 0 LINE",
"248 22 LINE",
"164 22 LINE",
"164 393 LINE",
"50 393 LINE",
"50 371 LINE",
"135 371 LINE",
"135 22 LINE",
"49 22 LINE"
);
}
);
width = 269;
},
{
associatedMasterId = "98C086B7-81AA-4491-8494-0C6A76849168";
layerId = "61CF8975-66A8-4949-9173-31B1BB6C6423";
name = b;
width = 250;
},
{
anchors = (
{
name = ogonek;
position = "{176, 0}";
},
{
name = top;
position = "{163, 393}";
}
);
layerId = "BE4F947C-73D7-4684-AEED-17801393DA53";
paths = (
{
closed = 1;
nodes = (
"60 0 LINE",
"280 0 LINE",
"280 53 LINE",
"209 53 LINE",
"209 393 LINE",
"61 393 LINE",
"61 340 LINE",
"136 340 LINE",
"136 53 LINE",
"60 53 LINE"
);
}
);
width = 305;
},
{
anchors = (
{
name = ogonek;
position = "{219, 0}";
},
{
name = top;
position = "{202, 392}";
}
);
layerId = "EFCDB4D9-E20B-4A8D-9DB5-150AD166B0AE";
paths = (
{
closed = 1;
nodes = (
"74 0 LINE",
"349 0 LINE",
"349 109 LINE",
"302 109 LINE",
"302 393 LINE",
"80 393 LINE",
"80 283 LINE",
"130 283 LINE",
"130 109 LINE",
"74 109 LINE"
);
}
);
width = 436;
}
);
unicode = 0131;
userData = {
com.typemytype.robofont.layerData = {
b = {
anchors = (
);
components = (
);
contours = (
);
lib = {
};
name = dotlessi;
unicodes = (
);
width = 513;
};
};
org.robofab.postScriptHintData = {
};
};
},
{
glyphname = j;
lastChange = "2016-08-04 10:04:12 +0000";
layers = (
{
layerId = "98C086B7-81AA-4491-8494-0C6A76849168";
paths = (
{
closed = 1;
nodes = (
"115 496 CURVE SMOOTH",
"131 496 OFFCURVE",
"142 506 OFFCURVE",
"142 521 CURVE SMOOTH",
"142 534 OFFCURVE",
"131 544 OFFCURVE",
"115 544 CURVE SMOOTH",
"100 544 OFFCURVE",
"88 534 OFFCURVE",
"88 521 CURVE SMOOTH",
"88 506 OFFCURVE",
"100 496 OFFCURVE"
);
},
{
closed = 1;
nodes = (
"10 -122 LINE",
"47 -122 LINE SMOOTH",
"131 -122 OFFCURVE",
"139 -76 OFFCURVE",
"139 -34 CURVE SMOOTH",
"139 -26 OFFCURVE",
"139 19 OFFCURVE",
"139 393 CURVE",
"31 393 LINE",
"31 373 LINE",
"108 373 LINE",
"108 11 OFFCURVE",
"108 -26 OFFCURVE",
"108 -30 CURVE SMOOTH",
"108 -78 OFFCURVE",
"104 -101 OFFCURVE",
"42 -101 CURVE SMOOTH",
"10 -101 LINE"
);
}
);
width = 202;
},
{
associatedMasterId = "98C086B7-81AA-4491-8494-0C6A76849168";
layerId = "3C2ACF56-46BD-42DA-B9FF-B57713FD3F4D";
name = b;
width = 194;
},
{
layerId = "BE4F947C-73D7-4684-AEED-17801393DA53";
paths = (
{
closed = 1;
nodes = (
"134 479 CURVE SMOOTH",
"165 479 OFFCURVE",
"188 501 OFFCURVE",
"188 531 CURVE SMOOTH",
"188 559 OFFCURVE",
"165 581 OFFCURVE",
"134 581 CURVE SMOOTH",
"104 581 OFFCURVE",
"80 559 OFFCURVE",
"80 531 CURVE SMOOTH",
"80 501 OFFCURVE",
"104 479 OFFCURVE"
);
},
{
closed = 1;
nodes = (
"5 -152 LINE",
"48 -152 LINE SMOOTH",
"175 -152 OFFCURVE",
"187 -85 OFFCURVE",
"187 4 CURVE SMOOTH",
"187 7 OFFCURVE",
"187 268 OFFCURVE",
"187 393 CURVE",
"32 393 LINE",
"32 340 LINE",
"112 340 LINE",
"112 220 OFFCURVE",
"112 -13 OFFCURVE",
"112 -14 CURVE SMOOTH",
"112 -69 OFFCURVE",
"101 -94 OFFCURVE",
"47 -94 CURVE SMOOTH",
"5 -94 LINE"
);
}
);
width = 249;
},
{
anchors = (
{
name = top;
position = "{181, 393}";
}
);
layerId = "EFCDB4D9-E20B-4A8D-9DB5-150AD166B0AE";
paths = (
{
closed = 1;
nodes = (
"179 473 CURVE SMOOTH",
"239 473 OFFCURVE",
"278 510 OFFCURVE",
"277 568 CURVE SMOOTH",
"277 625 OFFCURVE",
"239 662 OFFCURVE",
"179 662 CURVE SMOOTH",
"119 662 OFFCURVE",
"81 625 OFFCURVE",
"81 568 CURVE SMOOTH",
"81 510 OFFCURVE",
"119 473 OFFCURVE"
);
},
{
closed = 1;
nodes = (
"-10 -41 LINE",
"-10 -169 LINE",
"45 -169 LINE SMOOTH",
"330 -169 OFFCURVE",
"286 33 OFFCURVE",
"286 130 CURVE SMOOTH",
"286 393 LINE",
"35 393 LINE",
"35 283 LINE",
"107 283 LINE",
"107 47 LINE SMOOTH",
"107 -39 OFFCURVE",
"75 -41 OFFCURVE",
"19 -41 CURVE SMOOTH"
);
}
);
width = 316;
}
);
unicode = 006A;
userData = {
com.typemytype.robofont.layerData = {
b = {
anchors = (
);
components = (
);
contours = (
);
lib = {
};
name = j;
unicodes = (
);
width = 398;
};
};
org.robofab.postScriptHintData = {
};
};
},
{
glyphname = uni0237;
lastChange = "2016-08-04 10:04:12 +0000";
layers = (
{
anchors = (
{
name = top;
position = "{115, 393}";
}
);
layerId = "98C086B7-81AA-4491-8494-0C6A76849168";
paths = (
{
closed = 1;
nodes = (
"10 -122 LINE",
"47 -122 LINE SMOOTH",
"147 -122 OFFCURVE",
"138 -53 OFFCURVE",
"138 -13 CURVE SMOOTH",
"138 393 LINE",
"24 393 LINE",
"24 371 LINE",
"108 371 LINE",
"108 -18 LINE SMOOTH",
"108 -73 OFFCURVE",
"110 -101 OFFCURVE",
"42 -101 CURVE SMOOTH",
"10 -101 LINE"
);
}
);
width = 202;
},
{
associatedMasterId = "98C086B7-81AA-4491-8494-0C6A76849168";
layerId = "401DF5D5-DAFE-4A02-927E-DD969BE1BF22";
name = b;
width = 194;
},
{
anchors = (
{
name = top;
position = "{134, 393}";
}
);
layerId = "BE4F947C-73D7-4684-AEED-17801393DA53";
paths = (
{
closed = 1;
nodes = (
"5 -152 LINE",
"48 -152 LINE SMOOTH",
"181 -152 OFFCURVE",
"186 -78 OFFCURVE",
"186 11 CURVE SMOOTH",
"186 393 LINE",
"30 393 LINE",
"30 340 LINE",
"112 340 LINE",
"112 -10 LINE SMOOTH",
"112 -68 OFFCURVE",
"103 -94 OFFCURVE",
"47 -94 CURVE SMOOTH",
"5 -94 LINE"
);
}
);
width = 249;
},
{
anchors = (
{
name = top;
position = "{181, 393}";
}
);
layerId = "EFCDB4D9-E20B-4A8D-9DB5-150AD166B0AE";
paths = (
{
closed = 1;
nodes = (
"-10 -169 LINE",
"45 -169 LINE SMOOTH",
"330 -169 OFFCURVE",
"286 33 OFFCURVE",
"286 130 CURVE SMOOTH",
"286 393 LINE",
"35 393 LINE",
"35 283 LINE",
"107 283 LINE",
"107 47 LINE SMOOTH",
"107 -39 OFFCURVE",
"75 -41 OFFCURVE",
"19 -41 CURVE SMOOTH",
"-10 -41 LINE"
);
}
);
width = 316;
}
);
unicode = 0237;
userData = {
com.typemytype.robofont.layerData = {
b = {
anchors = (
);
components = (
);
contours = (
);
lib = {
};
name = uni0237;
unicodes = (
);
width = 398;
};
};
org.robofab.postScriptHintData = {
};
};
},
{
glyphname = k;
lastChange = "2016-08-04 10:04:12 +0000";
layers = (
{
anchors = (
{
name = bot;
position = "{260, 0}";
},
{
name = top;
position = "{279, 487}";
}
);
guideLines = (
{
position = "{231, 206}";
}
);
layerId = "98C086B7-81AA-4491-8494-0C6A76849168";
paths = (
{
closed = 1;
nodes = (
"355 0 LINE",
"457 0 LINE",
"457 22 LINE",
"368 22 LINE",
"167 205 LINE",
"381 371 LINE",
"454 371 LINE",
"454 393 LINE",
"267 393 LINE",
"267 371 LINE",
"348 371 LINE",
"132 207 LINE",
"132 573 LINE",
"34 573 LINE",
"34 551 LINE",
"103 551 LINE",
"103 22 LINE",
"30 22 LINE",
"30 0 LINE",
"204 0 LINE",
"204 22 LINE",
"132 22 LINE",
"132 205 LINE"
);
}
);
width = 478;
},
{
associatedMasterId = "98C086B7-81AA-4491-8494-0C6A76849168";
layerId = "5616521C-8DEC-405C-BBD6-F8E6B56D5679";
name = b;
width = 453;
},
{
anchors = (
{
name = bot;
position = "{267, 0}";
},
{
name = top;
position = "{341, 470}";
}
);
guideLines = (
{
position = "{231, 206}";
}
);
layerId = "BE4F947C-73D7-4684-AEED-17801393DA53";
paths = (
{
closed = 1;
nodes = (
"367 0 LINE",
"482 0 LINE",
"482 53 LINE",
"404 53 LINE",
"250 205 LINE",
"420 340 LINE",
"480 340 LINE",
"480 393 LINE",
"271 393 LINE",
"271 340 LINE",
"344 340 LINE",
"174 210 LINE",
"174 573 LINE",
"28 573 LINE",
"28 521 LINE",
"100 521 LINE",
"100 53 LINE",
"26 53 LINE",
"26 0 LINE",
"238 0 LINE",
"238 53 LINE",
"174 53 LINE",
"174 193 LINE"
);
}
);
width = 498;
},
{
anchors = (
{
name = bot;
position = "{332, 0}";
},
{
name = top;
position = "{430, 496}";
}
);
guideLines = (
{
position = "{231, 206}";
}
);
layerId = "EFCDB4D9-E20B-4A8D-9DB5-150AD166B0AE";
paths = (
{
closed = 1;
nodes = (
"529 110 LINE",
"422 219 LINE",
"514 285 LINE",
"578 285 LINE",
"578 393 LINE",
"310 393 LINE",
"310 285 LINE",
"381 285 LINE",
"254 203 LINE",
"254 573 LINE",
"21 573 LINE",
"21 464 LINE",
"83 464 LINE",
"83 109 LINE",
"21 109 LINE",
"21 0 LINE",
"313 0 LINE",
"313 109 LINE",
"254 109 LINE",
"254 197 LINE",
"428 0 LINE",
"601 0 LINE",
"601 110 LINE"
);
}
);
width = 624;
}
);
unicode = 006B;
userData = {
com.typemytype.robofont.guides = (
{
angle = 0;
isGlobal = 0;
magnetic = 5;
x = 474;
y = 421;
}
);
com.typemytype.robofont.layerData = {
b = {
anchors = (
);
components = (
);
contours = (
);
lib = {
};
name = k;
unicodes = (
);
width = 927;
};
};
org.robofab.postScriptHintData = {
};
};
},
{
glyphname = kgreenlandic;
lastChange = "2016-08-04 10:04:12 +0000";
layers = (
{
layerId = "98C086B7-81AA-4491-8494-0C6A76849168";
paths = (
{
closed = 1;
nodes = (
"342 0 LINE",
"440 0 LINE",
"440 22 LINE",
"357 22 LINE",
"181 200 LINE",
"368 371 LINE",
"437 371 LINE",
"437 393 LINE",
"259 393 LINE",
"259 371 LINE",
"332 371 LINE",
"145 201 LINE"
);
},
{
closed = 1;
nodes = (
"36 0 LINE",
"200 0 LINE",
"200 22 LINE",
"133 22 LINE",
"133 393 LINE",
"39 393 LINE",
"39 371 LINE",
"104 371 LINE",
"104 22 LINE",
"36 22 LINE"
);
}
);
width = 462;
},
{
associatedMasterId = "98C086B7-81AA-4491-8494-0C6A76849168";
layerId = "92780E13-E6AC-48FC-A53E-A06ACB00CCC4";
name = b;
width = 453;
},
{
layerId = "BE4F947C-73D7-4684-AEED-17801393DA53";
paths = (
{
closed = 1;
nodes = (
"399 0 LINE",
"504 0 LINE",
"504 53 LINE",
"433 53 LINE",
"263 197 LINE",
"432 340 LINE",
"500 340 LINE",
"500 393 LINE",
"282 393 LINE",
"282 340 LINE",
"350 340 LINE",
"177 193 LINE"
);
},
{
closed = 1;
nodes = (
"38 0 LINE",
"241 0 LINE",
"241 53 LINE",
"184 53 LINE",
"184 393 LINE",
"39 393 LINE",
"39 340 LINE",
"110 340 LINE",
"110 53 LINE",
"38 53 LINE"
);
}
);
width = 521;
},
{
layerId = "EFCDB4D9-E20B-4A8D-9DB5-150AD166B0AE";
paths = (
{
closed = 1;
nodes = (
"72 0 LINE",
"377 0 LINE",
"377 110 LINE",
"315 110 LINE",
"315 178 LINE",
"442 110 LINE",
"431 110 LINE",
"431 0 LINE",
"688 0 LINE",
"688 110 LINE",
"611 110 LINE",
"474 187 LINE",
"600 285 LINE",
"675 285 LINE",
"675 393 LINE",
"374 393 LINE",
"374 285 LINE",
"429 285 LINE",
"315 182 LINE",
"315 393 LINE",
"70 393 LINE",
"70 285 LINE",
"143 285 LINE",
"143 110 LINE",
"72 110 LINE"
);
}
);
width = 666;
}
);
unicode = 0138;
userData = {
com.typemytype.robofont.layerData = {
b = {
anchors = (
);
components = (
);
contours = (
);
lib = {
};
name = kgreenlandic;
unicodes = (
);
width = 927;
};
};
org.robofab.postScriptHintData = {
};
};
},
{
glyphname = l;
lastChange = "2016-08-04 10:04:12 +0000";
layers = (
{
anchors = (
{
name = bot;
position = "{116, 0}";
},
{
name = top;
position = "{115, 563}";
}
);
layerId = "98C086B7-81AA-4491-8494-0C6A76849168";
paths = (
{
closed = 1;
nodes = (
"28 0 LINE",
"202 0 LINE",
"202 22 LINE",
"129 22 LINE",
"129 573 LINE",
"31 573 LINE",
"31 551 LINE",
"101 551 LINE",
"101 22 LINE",
"28 22 LINE"
);
}
);
width = 224;
},
{
associatedMasterId = "98C086B7-81AA-4491-8494-0C6A76849168";
layerId = "FDCAA29B-C389-4C69-A9E2-0057C9386E97";
name = b;
width = 275;
},
{
anchors = (
{
name = bot;
position = "{135, 0}";
},
{
name = top;
position = "{137, 563}";
}
);
layerId = "BE4F947C-73D7-4684-AEED-17801393DA53";
paths = (
{
closed = 1;
nodes = (
"27 0 LINE",
"238 0 LINE",
"238 53 LINE",
"174 53 LINE",
"174 573 LINE",
"29 573 LINE",
"29 521 LINE",
"100 521 LINE",
"100 53 LINE",
"27 53 LINE"
);
}
);
width = 260;
},
{
anchors = (
{
name = bot;
position = "{176, 0}";
},
{
name = caron.alt;
position = "{218, 457}";
},
{
name = mid;
position = "{141, 322}";
},
{
name = top;
position = "{165, 563}";
}
);
layerId = "EFCDB4D9-E20B-4A8D-9DB5-150AD166B0AE";
paths = (
{
closed = 1;
nodes = (
"25 109 LINE",
"25 0 LINE",
"317 0 LINE",
"317 109 LINE",
"258 109 LINE",
"258 573 LINE",
"25 573 LINE",
"25 464 LINE",
"86 464 LINE",
"86 109 LINE"
);
}
);
width = 339;
}
);
unicode = 006C;
userData = {
com.typemytype.robofont.layerData = {
b = {
anchors = (
);
components = (
);
contours = (
);
lib = {
};
name = l;
unicodes = (
);
width = 563;
};
};
org.robofab.postScriptHintData = {
};
};
},
{
glyphname = lslash;
lastChange = "2016-08-04 10:04:12 +0000";
layers = (
{
components = (
{
name = l;
}
);
layerId = "98C086B7-81AA-4491-8494-0C6A76849168";
paths = (
{
closed = 1;
nodes = (
"25 220 LINE",
"200 328 LINE",
"200 357 LINE",
"25 248 LINE"
);
}
);
width = 223;
},
{
associatedMasterId = "98C086B7-81AA-4491-8494-0C6A76849168";
layerId = "9E718AB3-263B-4644-93E7-9BC3B3B8EC74";
name = b;
width = 247;
},
{
components = (
{
name = l;
}
);
layerId = "BE4F947C-73D7-4684-AEED-17801393DA53";
paths = (
{
closed = 1;
nodes = (
"24 192 LINE",
"246 307 LINE",
"246 371 LINE",
"24 253 LINE"
);
}
);
width = 254;
},
{
components = (
{
name = l;
}
);
layerId = "EFCDB4D9-E20B-4A8D-9DB5-150AD166B0AE";
paths = (
{
closed = 1;
nodes = (
"3 182 LINE",
"313 352 LINE",
"313 482 LINE",
"3 309 LINE"
);
}
);
width = 283;
}
);
unicode = 0142;
userData = {
com.typemytype.robofont.layerData = {
b = {
anchors = (
);
components = (
);
contours = (
);
lib = {
};
name = lslash;
unicodes = (
);
width = 506;
};
};
org.robofab.postScriptHintData = {
};
};
},
{
glyphname = m;
lastChange = "2016-08-04 10:04:12 +0000";
layers = (
{
anchors = (
{
name = top;
position = "{396, 393}";
}
);
layerId = "98C086B7-81AA-4491-8494-0C6A76849168";
paths = (
{
closed = 1;
nodes = (
"18 0 LINE",
"217 0 LINE",
"217 22 LINE",
"133 22 LINE",
"133 330 LINE",
"195 362 OFFCURVE",
"252 380 OFFCURVE",
"287 380 CURVE SMOOTH",
"346 380 OFFCURVE",
"383 346 OFFCURVE",
"383 290 CURVE SMOOTH",
"383 22 LINE",
"298 22 LINE",
"298 0 LINE",
"486 0 LINE",
"486 22 LINE",
"412 22 LINE",
"412 282 LINE SMOOTH",
"412 298 OFFCURVE",
"409 313 OFFCURVE",
"405 326 CURVE",
"459 361 OFFCURVE",
"518 380 OFFCURVE",
"567 380 CURVE",
"626 380 OFFCURVE",
"664 346 OFFCURVE",
"664 290 CURVE SMOOTH",
"664 22 LINE",
"579 22 LINE",
"579 0 LINE",
"767 0 LINE",
"767 22 LINE",
"692 22 LINE",
"692 282 LINE SMOOTH",
"692 357 OFFCURVE",
"645 403 OFFCURVE",
"572 403 CURVE SMOOTH",
"508 403 OFFCURVE",
"458 381 OFFCURVE",
"397 345 CURVE",
"378 383 OFFCURVE",
"341 403 OFFCURVE",
"292 403 CURVE SMOOTH",
"249 403 OFFCURVE",
"189 384 OFFCURVE",
"133 352 CURVE",
"133 393 LINE",
"19 393 LINE",
"19 371 LINE",
"104 371 LINE",
"104 22 LINE",
"18 22 LINE"
);
}
);
width = 770;
},
{
associatedMasterId = "98C086B7-81AA-4491-8494-0C6A76849168";
layerId = "15F53033-239C-4FF3-9A8A-7B87A1265565";
name = b;
width = 767;
},
{
anchors = (
{
name = top;
position = "{417, 393}";
}
);
layerId = "BE4F947C-73D7-4684-AEED-17801393DA53";
paths = (
{
closed = 1;
nodes = (
"22 0 LINE",
"242 0 LINE",
"242 53 LINE",
"171 53 LINE",
"171 305 LINE",
"213 329 OFFCURVE",
"256 345 OFFCURVE",
"292 345 CURVE SMOOTH",
"338 345 OFFCURVE",
"367 313 OFFCURVE",
"367 258 CURVE SMOOTH",
"367 53 LINE",
"301 53 LINE",
"301 0 LINE",
"512 0 LINE",
"512 53 LINE",
"440 53 LINE",
"440 272 LINE SMOOTH",
"440 282 OFFCURVE",
"439 292 OFFCURVE",
"437 300 CURVE",
"477 327 OFFCURVE",
"522 345 OFFCURVE",
"565 345 CURVE",
"611 345 OFFCURVE",
"640 313 OFFCURVE",
"640 258 CURVE SMOOTH",
"640 53 LINE",
"574 53 LINE",
"574 0 LINE",
"785 0 LINE",
"785 53 LINE",
"713 53 LINE",
"713 272 LINE SMOOTH",
"713 357 OFFCURVE",
"655 403 OFFCURVE",
"584 403 CURVE SMOOTH",
"525 403 OFFCURVE",
"475 377 OFFCURVE",
"423 341 CURVE",
"402 382 OFFCURVE",
"360 403 OFFCURVE",
"311 403 CURVE SMOOTH",
"265 403 OFFCURVE",
"217 384 OFFCURVE",
"171 355 CURVE",
"171 393 LINE",
"22 393 LINE",
"22 340 LINE",
"98 340 LINE",
"98 53 LINE",
"22 53 LINE"
);
}
);
width = 787;
},
{
anchors = (
{
name = top;
position = "{509, 393}";
}
);
layerId = "EFCDB4D9-E20B-4A8D-9DB5-150AD166B0AE";
paths = (
{
closed = 1;
nodes = (
"918 109 LINE",
"918 230 LINE SMOOTH",
"920 351 OFFCURVE",
"854 403 OFFCURVE",
"769 403 CURVE SMOOTH",
"697 403 OFFCURVE",
"634 376 OFFCURVE",
"571 313 CURVE",
"549 375 OFFCURVE",
"497 403 OFFCURVE",
"434 403 CURVE SMOOTH",
"373 403 OFFCURVE",
"318 383 OFFCURVE",
"264 338 CURVE",
"264 393 LINE",
"26 393 LINE",
"26 283 LINE",
"81 283 LINE",
"81 109 LINE",
"21 109 LINE",
"21 0 LINE",
"315 0 LINE",
"315 109 LINE",
"264 109 LINE",
"264 263 LINE",
"289 275 OFFCURVE",
"313 280 OFFCURVE",
"337 280 CURVE SMOOTH",
"373 280 OFFCURVE",
"400 262 OFFCURVE",
"400 212 CURVE SMOOTH",
"400 109 LINE",
"351 109 LINE",
"351 0 LINE",
"653 0 LINE",
"653 109 LINE",
"583 109 LINE",
"583 230 LINE SMOOTH",
"583 238 OFFCURVE",
"583 246 OFFCURVE",
"583 253 CURVE",
"613 273 OFFCURVE",
"642 280 OFFCURVE",
"672 280 CURVE SMOOTH",
"708 280 OFFCURVE",
"735 262 OFFCURVE",
"735 212 CURVE SMOOTH",
"735 109 LINE",
"686 109 LINE",
"686 0 LINE",
"987 0 LINE",
"987 109 LINE"
);
}
);
width = 999;
}
);
unicode = 006D;
userData = {
com.typemytype.robofont.layerData = {
b = {
anchors = (
);
components = (
);
contours = (
);
lib = {
};
name = m;
unicodes = (
);
width = 1571;
};
};
org.robofab.postScriptHintData = {
};
};
},
{
glyphname = n;
lastChange = "2016-08-04 10:04:12 +0000";
layers = (
{
anchors = (
{
name = bot;
position = "{268, 0}";
},
{
name = top;
position = "{291, 393}";
}
);
layerId = "98C086B7-81AA-4491-8494-0C6A76849168";
paths = (
{
closed = 1;
nodes = (
"18 0 LINE",
"217 0 LINE",
"217 22 LINE",
"133 22 LINE",
"133 327 LINE",
"198 360 OFFCURVE",
"259 380 OFFCURVE",
"294 380 CURVE SMOOTH",
"353 380 OFFCURVE",
"390 346 OFFCURVE",
"390 290 CURVE SMOOTH",
"390 22 LINE",
"305 22 LINE",
"305 0 LINE",
"494 0 LINE",
"494 22 LINE",
"419 22 LINE",
"419 282 LINE SMOOTH",
"419 357 OFFCURVE",
"372 403 OFFCURVE",
"299 403 CURVE SMOOTH",
"254 403 OFFCURVE",
"192 382 OFFCURVE",
"133 348 CURVE",
"133 393 LINE",
"19 393 LINE",
"19 371 LINE",
"104 371 LINE",
"104 22 LINE",
"18 22 LINE"
);
}
);
width = 497;
},
{
associatedMasterId = "98C086B7-81AA-4491-8494-0C6A76849168";
layerId = "93A7830A-5E0C-41CA-AF46-BBEFED90B925";
name = b;
width = 493;
},
{
anchors = (
{
name = bot;
position = "{279, 0}";
},
{
name = top;
position = "{288, 393}";
}
);
layerId = "BE4F947C-73D7-4684-AEED-17801393DA53";
paths = (
{
closed = 1;
nodes = (
"22 0 LINE",
"242 0 LINE",
"242 53 LINE",
"171 53 LINE",
"171 304 LINE",
"214 329 OFFCURVE",
"258 345 OFFCURVE",
"294 345 CURVE SMOOTH",
"341 345 OFFCURVE",
"369 313 OFFCURVE",
"369 258 CURVE SMOOTH",
"369 53 LINE",
"304 53 LINE",
"304 0 LINE",
"515 0 LINE",
"515 53 LINE",
"442 53 LINE",
"442 272 LINE SMOOTH",
"442 357 OFFCURVE",
"385 403 OFFCURVE",
"313 403 CURVE SMOOTH",
"267 403 OFFCURVE",
"218 383 OFFCURVE",
"171 354 CURVE",
"171 393 LINE",
"22 393 LINE",
"22 340 LINE",
"98 340 LINE",
"98 53 LINE",
"22 53 LINE"
);
}
);
width = 517;
},
{
anchors = (
{
name = bot;
position = "{329, 0}";
},
{
name = top;
position = "{317, 393}";
}
);
layerId = "EFCDB4D9-E20B-4A8D-9DB5-150AD166B0AE";
paths = (
{
closed = 1;
nodes = (
"558 109 LINE",
"558 230 LINE SMOOTH",
"560 351 OFFCURVE",
"499 403 OFFCURVE",
"418 403 CURVE SMOOTH",
"357 403 OFFCURVE",
"302 380 OFFCURVE",
"249 329 CURVE",
"249 393 LINE",
"26 393 LINE",
"26 283 LINE",
"77 283 LINE",
"77 109 LINE",
"21 109 LINE",
"21 0 LINE",
"296 0 LINE",
"296 109 LINE",
"249 109 LINE",
"249 255 LINE",
"275 273 OFFCURVE",
"300 280 OFFCURVE",
"327 280 CURVE SMOOTH",
"361 280 OFFCURVE",
"386 262 OFFCURVE",
"386 212 CURVE SMOOTH",
"386 109 LINE",
"340 109 LINE",
"340 0 LINE",
"622 0 LINE",
"622 109 LINE"
);
}
);
width = 634;
}
);
unicode = 006E;
userData = {
com.typemytype.robofont.layerData = {
b = {
anchors = (
);
components = (
);
contours = (
);
lib = {
};
name = n;
unicodes = (
);
width = 1010;
};
};
org.robofab.postScriptHintData = {
};
};
},
{
glyphname = eng;
lastChange = "2016-08-04 10:04:12 +0000";
layers = (
{
layerId = "98C086B7-81AA-4491-8494-0C6A76849168";
paths = (
{
closed = 1;
nodes = (
"234 -179 LINE",
"348 -179 OFFCURVE",
"419 -125 OFFCURVE",
"419 -5 CURVE SMOOTH",
"419 282 LINE SMOOTH",
"419 357 OFFCURVE",
"372 403 OFFCURVE",
"299 403 CURVE SMOOTH",
"254 403 OFFCURVE",
"192 382 OFFCURVE",
"133 348 CURVE",
"133 393 LINE",
"19 393 LINE",
"19 371 LINE",
"104 371 LINE",
"104 22 LINE",
"18 22 LINE",
"18 0 LINE",
"217 0 LINE",
"217 22 LINE",
"133 22 LINE",
"133 327 LINE",
"198 360 OFFCURVE",
"259 380 OFFCURVE",
"294 380 CURVE SMOOTH",
"353 380 OFFCURVE",
"390 346 OFFCURVE",
"390 290 CURVE SMOOTH",
"390 -12 LINE SMOOTH",
"390 -102 OFFCURVE",
"341 -157 OFFCURVE",
"235 -157 CURVE"
);
}
);
width = 497;
},
{
layerId = "BE4F947C-73D7-4684-AEED-17801393DA53";
paths = (
{
closed = 1;
nodes = (
"235 -159 LINE",
"351 -159 OFFCURVE",
"442 -114 OFFCURVE",
"442 14 CURVE SMOOTH",
"442 272 LINE SMOOTH",
"442 357 OFFCURVE",
"385 403 OFFCURVE",
"313 403 CURVE SMOOTH",
"268 403 OFFCURVE",
"218 383 OFFCURVE",
"171 354 CURVE",
"171 393 LINE",
"22 393 LINE",
"22 340 LINE",
"98 340 LINE",
"98 53 LINE",
"22 53 LINE",
"22 0 LINE",
"242 0 LINE",
"242 53 LINE",
"171 53 LINE",
"171 304 LINE",
"214 329 OFFCURVE",
"258 345 OFFCURVE",
"294 345 CURVE SMOOTH",
"341 345 OFFCURVE",
"369 313 OFFCURVE",
"369 258 CURVE SMOOTH",
"369 9 LINE SMOOTH",
"369 -70 OFFCURVE",
"329 -106 OFFCURVE",
"235 -106 CURVE"
);
}
);
width = 517;
},
{
layerId = "EFCDB4D9-E20B-4A8D-9DB5-150AD166B0AE";
paths = (
{
closed = 1;
nodes = (
"246 326 CURVE",
"246 393 LINE",
"24 393 LINE",
"24 283 LINE",
"74 283 LINE",
"74 109 LINE",
"19 109 LINE",
"19 0 LINE",
"293 0 LINE",
"293 109 LINE",
"246 109 LINE",
"246 253 LINE",
"274 272 OFFCURVE",
"300 280 OFFCURVE",
"329 280 CURVE SMOOTH",
"362 280 OFFCURVE",
"387 262 OFFCURVE",
"387 212 CURVE SMOOTH",
"387 83 LINE SMOOTH",
"387 -19 OFFCURVE",
"363 -51 OFFCURVE",
"305 -51 CURVE",
"303 -172 LINE",
"439 -172 OFFCURVE",
"559 -125 OFFCURVE",
"559 76 CURVE SMOOTH",
"559 230 LINE SMOOTH",
"559 351 OFFCURVE",
"500 403 OFFCURVE",
"419 403 CURVE SMOOTH",
"356 403 OFFCURVE",
"301 379 OFFCURVE"
);
}
);
width = 633;
}
);
unicode = 014B;
userData = {
org.robofab.postScriptHintData = {
};
};
},
{
glyphname = o;
lastChange = "2016-08-04 10:04:12 +0000";
layers = (
{
anchors = (
{
name = top;
position = "{238, 393}";
}
);
layerId = "98C086B7-81AA-4491-8494-0C6A76849168";
paths = (
{
closed = 1;
nodes = (
"239 -11 CURVE SMOOTH",
"363 -11 OFFCURVE",
"451 76 OFFCURVE",
"451 199 CURVE SMOOTH",
"451 319 OFFCURVE",
"363 403 OFFCURVE",
"240 403 CURVE SMOOTH",
"117 403 OFFCURVE",
"30 318 OFFCURVE",
"30 199 CURVE SMOOTH",
"30 76 OFFCURVE",
"117 -11 OFFCURVE"
);
},
{
closed = 1;
nodes = (
"239 12 CURVE SMOOTH",
"133 12 OFFCURVE",
"59 89 OFFCURVE",
"59 199 CURVE SMOOTH",
"59 306 OFFCURVE",
"133 381 OFFCURVE",
"239 381 CURVE SMOOTH",
"346 381 OFFCURVE",
"422 306 OFFCURVE",
"422 199 CURVE SMOOTH",
"422 89 OFFCURVE",
"346 12 OFFCURVE"
);
}
);
width = 481;
},
{
associatedMasterId = "98C086B7-81AA-4491-8494-0C6A76849168";
layerId = "4658D3DE-51C9-4BAB-B9BB-A34B44564D6C";
name = b;
width = 481;
},
{
anchors = (
{
name = top;
position = "{237, 393}";
}
);
layerId = "BE4F947C-73D7-4684-AEED-17801393DA53";
paths = (
{
closed = 1;
nodes = (
"237 -11 CURVE SMOOTH",
"363 -11 OFFCURVE",
"452 76 OFFCURVE",
"452 198 CURVE SMOOTH",
"452 318 OFFCURVE",
"363 403 OFFCURVE",
"238 403 CURVE SMOOTH",
"113 403 OFFCURVE",
"25 318 OFFCURVE",
"25 198 CURVE SMOOTH",
"25 75 OFFCURVE",
"113 -11 OFFCURVE"
);
},
{
closed = 1;
nodes = (
"238 47 CURVE SMOOTH",
"158 47 OFFCURVE",
"101 109 OFFCURVE",
"101 197 CURVE SMOOTH",
"101 284 OFFCURVE",
"158 345 OFFCURVE",
"237 345 CURVE SMOOTH",
"318 345 OFFCURVE",
"375 284 OFFCURVE",
"375 198 CURVE SMOOTH",
"375 110 OFFCURVE",
"318 47 OFFCURVE"
);
}
);
width = 477;
},
{
anchors = (
{
name = ogonek;
position = "{271, 0}";
},
{
name = top;
position = "{251, 405}";
}
);
layerId = "EFCDB4D9-E20B-4A8D-9DB5-150AD166B0AE";
paths = (
{
closed = 1;
nodes = (
"262 -11 CURVE SMOOTH",
"407 -11 OFFCURVE",
"502 75 OFFCURVE",
"502 204 CURVE SMOOTH",
"502 324 OFFCURVE",
"407 403 OFFCURVE",
"262 403 CURVE SMOOTH",
"117 403 OFFCURVE",
"21 324 OFFCURVE",
"21 204 CURVE SMOOTH",
"21 75 OFFCURVE",
"117 -11 OFFCURVE"
);
},
{
closed = 1;
nodes = (
"262 98 CURVE SMOOTH",
"222 97 OFFCURVE",
"195 138 OFFCURVE",
"195 204 CURVE SMOOTH",
"195 259 OFFCURVE",
"222 295 OFFCURVE",
"262 295 CURVE SMOOTH",
"303 295 OFFCURVE",
"329 259 OFFCURVE",
"329 204 CURVE SMOOTH",
"329 138 OFFCURVE",
"303 97 OFFCURVE"
);
}
);
width = 524;
}
);
unicode = 006F;
userData = {
com.typemytype.robofont.layerData = {
b = {
anchors = (
);
components = (
);
contours = (
);
lib = {
};
name = o;
unicodes = (
);
width = 986;
};
};
org.robofab.postScriptHintData = {
};
};
},
{
glyphname = oslash;
lastChange = "2016-08-04 10:04:12 +0000";
layers = (
{
components = (
{
name = o;
}
);
layerId = "98C086B7-81AA-4491-8494-0C6A76849168";
paths = (
{
closed = 1;
nodes = (
"96 -70 LINE",
"408 438 LINE",
"395 448 LINE",
"83 -61 LINE"
);
}
);
width = 497;
},
{
associatedMasterId = "98C086B7-81AA-4491-8494-0C6A76849168";
layerId = "616AA737-71B6-47B9-8DFB-32EF48B3D552";
name = b;
width = 500;
},
{
components = (
{
name = o;
}
);
layerId = "BE4F947C-73D7-4684-AEED-17801393DA53";
paths = (
{
closed = 1;
nodes = (
"122 -63 LINE",
"394 436 LINE",
"359 453 LINE",
"87 -45 LINE"
);
}
);
width = 482;
},
{
components = (
{
name = o;
}
);
layerId = "EFCDB4D9-E20B-4A8D-9DB5-150AD166B0AE";
paths = (
{
closed = 1;
nodes = (
"164 -58 LINE",
"416 435 LINE",
"370 456 LINE",
"118 -37 LINE"
);
}
);
width = 526;
}
);
unicode = 00F8;
userData = {
com.typemytype.robofont.layerData = {
b = {
anchors = (
);
components = (
);
contours = (
);
lib = {
};
name = oslash;
unicodes = (
);
width = 1023;
};
};
org.robofab.postScriptHintData = {
};
};
},
{
glyphname = oe;
lastChange = "2016-08-04 10:04:12 +0000";
layers = (
{
layerId = "98C086B7-81AA-4491-8494-0C6A76849168";
paths = (
{
closed = 1;
nodes = (
"241 -11 CURVE SMOOTH",
"336 -11 OFFCURVE",
"410 42 OFFCURVE",
"438 123 CURVE",
"467 37 OFFCURVE",
"547 -11 OFFCURVE",
"631 -11 CURVE SMOOTH",
"692 -11 OFFCURVE",
"756 13 OFFCURVE",
"805 63 CURVE",
"794 84 LINE",
"761 43 OFFCURVE",
"693 11 OFFCURVE",
"632 11 CURVE SMOOTH",
"544 11 OFFCURVE",
"458 72 OFFCURVE",
"453 189 CURVE",
"815 189 LINE",
"811 346 OFFCURVE",
"713 403 OFFCURVE",
"623 403 CURVE SMOOTH",
"545 403 OFFCURVE",
"467 360 OFFCURVE",
"438 273 CURVE",
"410 352 OFFCURVE",
"336 403 OFFCURVE",
"241 403 CURVE SMOOTH",
"119 403 OFFCURVE",
"32 318 OFFCURVE",
"32 198 CURVE SMOOTH",
"32 76 OFFCURVE",
"118 -11 OFFCURVE"
);
},
{
closed = 1;
nodes = (
"241 11 CURVE SMOOTH",
"135 11 OFFCURVE",
"60 89 OFFCURVE",
"60 198 CURVE SMOOTH",
"60 306 OFFCURVE",
"135 381 OFFCURVE",
"241 381 CURVE SMOOTH",
"349 381 OFFCURVE",
"424 306 OFFCURVE",
"424 199 CURVE SMOOTH",
"424 89 OFFCURVE",
"349 11 OFFCURVE"
);
},
{
closed = 1;
nodes = (
"453 209 LINE",
"457 314 OFFCURVE",
"531 381 OFFCURVE",
"623 381 CURVE SMOOTH",
"705 381 OFFCURVE",
"777 327 OFFCURVE",
"788 209 CURVE"
);
}
);
width = 871;
},
{
associatedMasterId = "98C086B7-81AA-4491-8494-0C6A76849168";
layerId = "DF302722-D9D6-4C73-9606-08F33285D1FF";
name = b;
width = 958;
},
{
layerId = "BE4F947C-73D7-4684-AEED-17801393DA53";
paths = (
{
closed = 1;
nodes = (
"250 -11 CURVE SMOOTH",
"328 -11 OFFCURVE",
"390 27 OFFCURVE",
"424 86 CURVE",
"459 25 OFFCURVE",
"525 -11 OFFCURVE",
"603 -11 CURVE SMOOTH",
"677 -11 OFFCURVE",
"740 15 OFFCURVE",
"779 62 CURVE",
"742 101 LINE",
"709 66 OFFCURVE",
"655 43 OFFCURVE",
"606 43 CURVE SMOOTH",
"522 43 OFFCURVE",
"465 97 OFFCURVE",
"460 180 CURVE",
"787 180 LINE",
"786 317 OFFCURVE",
"715 403 OFFCURVE",
"597 403 CURVE SMOOTH",
"525 403 OFFCURVE",
"460 369 OFFCURVE",
"425 305 CURVE",
"391 366 OFFCURVE",
"328 403 OFFCURVE",
"250 403 CURVE SMOOTH",
"127 403 OFFCURVE",
"41 316 OFFCURVE",
"41 196 CURVE SMOOTH",
"41 76 OFFCURVE",
"125 -11 OFFCURVE"
);
},
{
closed = 1;
nodes = (
"250 45 CURVE SMOOTH",
"167 45 OFFCURVE",
"113 107 OFFCURVE",
"113 196 CURVE SMOOTH",
"113 284 OFFCURVE",
"167 346 OFFCURVE",
"250 346 CURVE SMOOTH",
"333 346 OFFCURVE",
"387 284 OFFCURVE",
"387 196 CURVE SMOOTH",
"387 107 OFFCURVE",
"333 45 OFFCURVE"
);
},
{
closed = 1;
nodes = (
"461 224 LINE",
"470 300 OFFCURVE",
"520 349 OFFCURVE",
"597 349 CURVE SMOOTH",
"667 349 OFFCURVE",
"710 302 OFFCURVE",
"719 224 CURVE"
);
}
);
width = 842;
},
{
layerId = "EFCDB4D9-E20B-4A8D-9DB5-150AD166B0AE";
paths = (
{
closed = 1;
nodes = (
"247 -11 CURVE SMOOTH",
"340 -11 OFFCURVE",
"384 31 OFFCURVE",
"401 61 CURVE",
"416 31 OFFCURVE",
"467 -10 OFFCURVE",
"567 -10 CURVE SMOOTH",
"634 -10 OFFCURVE",
"696 10 OFFCURVE",
"743 43 CURVE",
"705 130 LINE",
"668 113 OFFCURVE",
"625 101 OFFCURVE",
"588 101 CURVE SMOOTH",
"543 101 OFFCURVE",
"500 118 OFFCURVE",
"497 174 CURVE",
"743 174 LINE",
"743 322 OFFCURVE",
"666 404 OFFCURVE",
"542 404 CURVE SMOOTH",
"468 404 OFFCURVE",
"424 376 OFFCURVE",
"401 338 CURVE",
"373 381 OFFCURVE",
"309 403 OFFCURVE",
"252 403 CURVE SMOOTH",
"107 403 OFFCURVE",
"17 325 OFFCURVE",
"17 205 CURVE SMOOTH",
"17 74 OFFCURVE",
"102 -11 OFFCURVE"
);
},
{
closed = 1;
nodes = (
"252 99 CURVE SMOOTH",
"212 97 OFFCURVE",
"185 139 OFFCURVE",
"185 204 CURVE SMOOTH",
"185 259 OFFCURVE",
"212 294 OFFCURVE",
"252 294 CURVE SMOOTH",
"292 294 OFFCURVE",
"319 259 OFFCURVE",
"319 204 CURVE SMOOTH",
"319 139 OFFCURVE",
"292 97 OFFCURVE"
);
},
{
closed = 1;
nodes = (
"498 250 LINE",
"505 292 OFFCURVE",
"525 315 OFFCURVE",
"550 315 CURVE SMOOTH",
"583 315 OFFCURVE",
"604 292 OFFCURVE",
"601 250 CURVE"
);
}
);
width = 762;
}
);
unicode = 0153;
userData = {
com.typemytype.robofont.layerData = {
b = {
anchors = (
);
components = (
);
contours = (
);
lib = {
};
name = oe;
unicodes = (
);
width = 1961;
};
};
org.robofab.postScriptHintData = {
};
};
},
{
glyphname = p;
lastChange = "2016-08-04 10:04:12 +0000";
layers = (
{
anchors = (
{
name = top;
position = "{275, 393}";
}
);
layerId = "98C086B7-81AA-4491-8494-0C6A76849168";
paths = (
{
closed = 1;
nodes = (
"269 -11 CURVE SMOOTH",
"395 -11 OFFCURVE",
"477 70 OFFCURVE",
"477 201 CURVE SMOOTH",
"477 327 OFFCURVE",
"398 403 OFFCURVE",
"277 403 CURVE SMOOTH",
"228 403 OFFCURVE",
"171 382 OFFCURVE",
"127 349 CURVE",
"127 393 LINE",
"37 393 LINE",
"37 371 LINE",
"99 371 LINE",
"99 -133 LINE",
"30 -133 LINE",
"30 -154 LINE",
"195 -154 LINE",
"195 -133 LINE",
"127 -133 LINE",
"128 46 LINE",
"165 11 OFFCURVE",
"218 -11 OFFCURVE"
);
},
{
closed = 1;
nodes = (
"128 326 LINE",
"173 360 OFFCURVE",
"229 381 OFFCURVE",
"274 381 CURVE SMOOTH",
"380 381 OFFCURVE",
"448 310 OFFCURVE",
"448 195 CURVE SMOOTH",
"448 82 OFFCURVE",
"377 11 OFFCURVE",
"267 11 CURVE SMOOTH",
"218 11 OFFCURVE",
"167 34 OFFCURVE",
"128 71 CURVE"
);
}
);
width = 507;
},
{
associatedMasterId = "98C086B7-81AA-4491-8494-0C6A76849168";
layerId = "EC2539F8-2E40-4A56-A377-0A9FFC0FBFDB";
name = b;
width = 506;
},
{
anchors = (
{
name = top;
position = "{278, 393}";
}
);
layerId = "BE4F947C-73D7-4684-AEED-17801393DA53";
paths = (
{
closed = 1;
nodes = (
"282 -10 CURVE SMOOTH",
"390 -10 OFFCURVE",
"485 67 OFFCURVE",
"485 202 CURVE SMOOTH",
"485 332 OFFCURVE",
"400 403 OFFCURVE",
"294 403 CURVE SMOOTH",
"246 403 OFFCURVE",
"198 386 OFFCURVE",
"160 357 CURVE",
"159 393 LINE",
"21 393 LINE",
"21 340 LINE",
"90 340 LINE",
"90 -103 LINE",
"19 -103 LINE",
"19 -156 LINE",
"240 -156 LINE",
"240 -103 LINE",
"163 -103 LINE",
"164 30 LINE",
"190 7 OFFCURVE",
"234 -10 OFFCURVE"
);
},
{
closed = 1;
nodes = (
"163 306 LINE",
"198 334 OFFCURVE",
"245 346 OFFCURVE",
"274 346 CURVE SMOOTH",
"351 346 OFFCURVE",
"408 292 OFFCURVE",
"408 196 CURVE SMOOTH",
"408 97 OFFCURVE",
"348 45 OFFCURVE",
"269 45 CURVE SMOOTH",
"233 45 OFFCURVE",
"195 59 OFFCURVE",
"164 83 CURVE"
);
}
);
width = 512;
},
{
anchors = (
{
name = top;
position = "{280, 393}";
}
);
layerId = "EFCDB4D9-E20B-4A8D-9DB5-150AD166B0AE";
paths = (
{
closed = 1;
nodes = (
"250 373 CURVE",
"249 393 LINE",
"5 393 LINE",
"5 283 LINE",
"77 283 LINE",
"77 -90 LINE",
"5 -90 LINE",
"5 -199 LINE",
"337 -199 LINE",
"337 -90 LINE",
"249 -90 LINE",
"249 17 LINE",
"282 -1 OFFCURVE",
"317 -10 OFFCURVE",
"354 -10 CURVE SMOOTH",
"461 -10 OFFCURVE",
"554 67 OFFCURVE",
"554 206 CURVE SMOOTH",
"554 316 OFFCURVE",
"489 403 OFFCURVE",
"359 403 CURVE SMOOTH",
"323 403 OFFCURVE",
"286 392 OFFCURVE"
);
},
{
closed = 1;
nodes = (
"249 83 CURVE",
"250 296 LINE",
"260 295 OFFCURVE",
"268 294 OFFCURVE",
"277 294 CURVE SMOOTH",
"361 294 OFFCURVE",
"374 231 OFFCURVE",
"374 195 CURVE SMOOTH",
"374 128 OFFCURVE",
"328 85 OFFCURVE",
"264 85 CURVE SMOOTH",
"260 85 OFFCURVE",
"255 84 OFFCURVE"
);
}
);
width = 575;
}
);
unicode = 0070;
userData = {
com.typemytype.robofont.layerData = {
b = {
anchors = (
);
components = (
);
contours = (
);
lib = {
};
name = p;
unicodes = (
);
width = 1037;
};
};
org.robofab.postScriptHintData = {
};
};
},
{
glyphname = thorn;
lastChange = "2016-08-04 10:04:12 +0000";
layers = (
{
layerId = "98C086B7-81AA-4491-8494-0C6A76849168";
paths = (
{
closed = 1;
nodes = (
"28 -155 LINE",
"191 -155 LINE",
"191 -133 LINE",
"125 -133 LINE",
"125 49 LINE",
"164 12 OFFCURVE",
"218 -10 OFFCURVE",
"270 -10 CURVE SMOOTH",
"396 -10 OFFCURVE",
"477 71 OFFCURVE",
"477 202 CURVE SMOOTH",
"477 328 OFFCURVE",
"398 404 OFFCURVE",
"276 404 CURVE SMOOTH",
"227 404 OFFCURVE",
"170 383 OFFCURVE",
"125 349 CURVE",
"125 563 LINE",
"21 563 LINE",
"21 539 LINE",
"96 539 LINE",
"96 -133 LINE",
"28 -133 LINE"
);
},
{
closed = 1;
nodes = (
"268 13 CURVE SMOOTH",
"218 13 OFFCURVE",
"164 35 OFFCURVE",
"125 74 CURVE",
"125 325 LINE",
"171 360 OFFCURVE",
"227 382 OFFCURVE",
"274 382 CURVE SMOOTH",
"380 382 OFFCURVE",
"448 311 OFFCURVE",
"448 196 CURVE SMOOTH",
"448 83 OFFCURVE",
"378 13 OFFCURVE"
);
}
);
width = 508;
},
{
associatedMasterId = "98C086B7-81AA-4491-8494-0C6A76849168";
layerId = "6682C0CA-0632-4AE1-947D-C2ACDBF97AD3";
name = b;
width = 522;
},
{
layerId = "BE4F947C-73D7-4684-AEED-17801393DA53";
paths = (
{
closed = 1;
nodes = (
"20 -159 LINE",
"233 -159 LINE",
"233 -105 LINE",
"163 -105 LINE",
"163 54 LINE",
"200 17 OFFCURVE",
"251 -3 OFFCURVE",
"301 -3 CURVE SMOOTH",
"410 -3 OFFCURVE",
"504 74 OFFCURVE",
"504 209 CURVE SMOOTH",
"504 339 OFFCURVE",
"418 410 OFFCURVE",
"313 410 CURVE SMOOTH",
"262 410 OFFCURVE",
"208 391 OFFCURVE",
"163 353 CURVE",
"163 563 LINE",
"16 563 LINE",
"16 509 LINE",
"88 509 LINE",
"88 -105 LINE",
"20 -105 LINE"
);
},
{
closed = 1;
nodes = (
"288 52 CURVE SMOOTH",
"246 52 OFFCURVE",
"199 71 OFFCURVE",
"163 106 CURVE",
"163 295 LINE",
"203 333 OFFCURVE",
"251 354 OFFCURVE",
"293 354 CURVE SMOOTH",
"370 354 OFFCURVE",
"427 299 OFFCURVE",
"427 203 CURVE SMOOTH",
"427 104 OFFCURVE",
"367 52 OFFCURVE"
);
}
);
width = 537;
},
{
layerId = "EFCDB4D9-E20B-4A8D-9DB5-150AD166B0AE";
paths = (
{
closed = 1;
nodes = (
"267 375 CURVE",
"267 561 LINE",
"17 561 LINE",
"17 453 LINE",
"95 453 LINE",
"95 -89 LINE",
"24 -89 LINE",
"24 -197 LINE",
"267 -197 LINE",
"267 10 LINE",
"300 -5 OFFCURVE",
"332 -12 OFFCURVE",
"366 -12 CURVE SMOOTH",
"474 -12 OFFCURVE",
"567 65 OFFCURVE",
"567 204 CURVE SMOOTH",
"567 313 OFFCURVE",
"501 401 OFFCURVE",
"372 401 CURVE SMOOTH",
"338 401 OFFCURVE",
"303 391 OFFCURVE"
);
},
{
closed = 1;
nodes = (
"267 77 CURVE",
"267 298 LINE",
"276 294 OFFCURVE",
"282 292 OFFCURVE",
"290 292 CURVE SMOOTH",
"374 292 OFFCURVE",
"386 229 OFFCURVE",
"386 193 CURVE SMOOTH",
"386 126 OFFCURVE",
"341 83 OFFCURVE",
"277 83 CURVE SMOOTH",
"274 83 OFFCURVE",
"272 81 OFFCURVE"
);
}
);
width = 608;
}
);
unicode = 00FE;
userData = {
com.typemytype.robofont.layerData = {
b = {
anchors = (
);
components = (
);
contours = (
);
lib = {
};
name = thorn;
unicodes = (
);
width = 1069;
};
};
org.robofab.postScriptHintData = {
};
};
},
{
glyphname = q;
lastChange = "2016-08-04 10:04:12 +0000";
layers = (
{
layerId = "98C086B7-81AA-4491-8494-0C6A76849168";
paths = (
{
closed = 1;
nodes = (
"316 -161 LINE",
"481 -161 LINE",
"481 -139 LINE",
"413 -139 LINE",
"413 371 LINE",
"477 371 LINE",
"477 393 LINE",
"387 393 LINE",
"385 348 LINE",
"342 381 OFFCURVE",
"280 403 OFFCURVE",
"226 403 CURVE SMOOTH",
"112 403 OFFCURVE",
"30 320 OFFCURVE",
"30 197 CURVE SMOOTH",
"30 74 OFFCURVE",
"118 -11 OFFCURVE",
"238 -11 CURVE SMOOTH",
"288 -11 OFFCURVE",
"344 11 OFFCURVE",
"384 44 CURVE",
"384 -139 LINE",
"316 -139 LINE"
);
},
{
closed = 1;
nodes = (
"384 327 CURVE",
"384 67 LINE",
"344 34 OFFCURVE",
"288 12 OFFCURVE",
"240 12 CURVE SMOOTH",
"135 12 OFFCURVE",
"59 86 OFFCURVE",
"59 193 CURVE SMOOTH",
"59 305 OFFCURVE",
"129 381 OFFCURVE",
"228 381 CURVE SMOOTH",
"280 381 OFFCURVE",
"341 359 OFFCURVE"
);
}
);
width = 515;
},
{
associatedMasterId = "98C086B7-81AA-4491-8494-0C6A76849168";
layerId = "8045324C-77F6-4EA1-A203-0E1DBB13ACF8";
name = b;
width = 512;
},
{
layerId = "BE4F947C-73D7-4684-AEED-17801393DA53";
paths = (
{
closed = 1;
nodes = (
"288 -161 LINE",
"509 -161 LINE",
"509 -105 LINE",
"439 -105 LINE",
"439 340 LINE",
"508 340 LINE",
"508 393 LINE",
"366 393 LINE",
"365 354 LINE",
"324 385 OFFCURVE",
"271 403 OFFCURVE",
"221 403 CURVE SMOOTH",
"116 403 OFFCURVE",
"28 330 OFFCURVE",
"28 197 CURVE SMOOTH",
"28 66 OFFCURVE",
"121 -11 OFFCURVE",
"229 -11 CURVE SMOOTH",
"275 -11 OFFCURVE",
"325 6 OFFCURVE",
"365 37 CURVE",
"365 -105 LINE",
"288 -105 LINE"
);
},
{
closed = 1;
nodes = (
"365 302 CURVE",
"365 88 LINE",
"328 61 OFFCURVE",
"284 45 OFFCURVE",
"244 45 CURVE SMOOTH",
"166 45 OFFCURVE",
"104 97 OFFCURVE",
"104 191 CURVE SMOOTH",
"104 292 OFFCURVE",
"160 347 OFFCURVE",
"235 347 CURVE SMOOTH",
"277 347 OFFCURVE",
"324 331 OFFCURVE"
);
}
);
width = 530;
},
{
layerId = "EFCDB4D9-E20B-4A8D-9DB5-150AD166B0AE";
paths = (
{
closed = 1;
nodes = (
"251 -200 LINE",
"571 -200 LINE",
"571 -92 LINE",
"508 -92 LINE",
"508 283 LINE",
"536 283 LINE",
"536 393 LINE",
"335 393 LINE",
"336 362 LINE",
"300 386 OFFCURVE",
"262 403 OFFCURVE",
"223 403 CURVE SMOOTH",
"98 403 OFFCURVE",
"21 313 OFFCURVE",
"21 186 CURVE SMOOTH",
"21 69 OFFCURVE",
"107 -11 OFFCURVE",
"247 -11 CURVE SMOOTH",
"282 -11 OFFCURVE",
"311 -1 OFFCURVE",
"336 15 CURVE",
"336 -92 LINE",
"251 -92 LINE"
);
},
{
closed = 1;
nodes = (
"286 99 CURVE SMOOTH",
"234 99 OFFCURVE",
"201 141 OFFCURVE",
"201 199 CURVE SMOOTH",
"201 262 OFFCURVE",
"240 294 OFFCURVE",
"301 294 CURVE SMOOTH",
"312 294 OFFCURVE",
"324 293 OFFCURVE",
"336 292 CURVE",
"336 104 LINE",
"316 101 OFFCURVE",
"299 99 OFFCURVE"
);
}
);
width = 568;
}
);
unicode = 0071;
userData = {
com.typemytype.robofont.layerData = {
b = {
anchors = (
);
components = (
);
contours = (
);
lib = {
};
name = q;
unicodes = (
);
width = 1049;
};
};
org.robofab.postScriptHintData = {
};
};
},
{
glyphname = r;
lastChange = "2016-08-04 10:04:12 +0000";
layers = (
{
anchors = (
{
name = bot;
position = "{160, 0}";
},
{
name = top;
position = "{243, 393}";
}
);
layerId = "98C086B7-81AA-4491-8494-0C6A76849168";
paths = (
{
closed = 1;
nodes = (
"55 0 LINE",
"254 0 LINE",
"254 22 LINE",
"171 22 LINE",
"171 226 LINE SMOOTH",
"171 322 OFFCURVE",
"220 379 OFFCURVE",
"273 379 CURVE SMOOTH",
"299 379 OFFCURVE",
"317 372 OFFCURVE",
"338 360 CURVE",
"344 383 LINE",
"322 396 OFFCURVE",
"299 402 OFFCURVE",
"272 402 CURVE SMOOTH",
"233 402 OFFCURVE",
"192 379 OFFCURVE",
"171 315 CURVE",
"171 393 LINE",
"57 393 LINE",
"57 371 LINE",
"142 371 LINE",
"142 22 LINE",
"55 22 LINE"
);
}
);
width = 378;
},
{
associatedMasterId = "98C086B7-81AA-4491-8494-0C6A76849168";
layerId = "5735741B-75F4-4A95-84FD-953FB25D0145";
name = b;
paths = (
{
closed = 1;
nodes = (
"165 219 LINE",
"165 314 OFFCURVE",
"215 369 OFFCURVE",
"278 369 CURVE SMOOTH",
"300 369 OFFCURVE",
"318 362 OFFCURVE",
"344 350 CURVE",
"353 383 LINE",
"324 396 OFFCURVE",
"304 400 OFFCURVE",
"281 400 CURVE SMOOTH",
"228 400 OFFCURVE",
"186 375 OFFCURVE",
"154 284 CURVE"
);
}
);
width = 377;
},
{
anchors = (
{
name = bot;
position = "{148, 0}";
},
{
name = top;
position = "{226, 393}";
}
);
layerId = "BE4F947C-73D7-4684-AEED-17801393DA53";
paths = (
{
closed = 1;
nodes = (
"35 0 LINE",
"254 0 LINE",
"254 53 LINE",
"184 53 LINE",
"185 211 LINE SMOOTH",
"185 289 OFFCURVE",
"227 333 OFFCURVE",
"278 333 CURVE SMOOTH",
"302 333 OFFCURVE",
"324 326 OFFCURVE",
"347 311 CURVE",
"365 378 LINE",
"338 391 OFFCURVE",
"312 398 OFFCURVE",
"285 398 CURVE SMOOTH",
"245 398 OFFCURVE",
"208 378 OFFCURVE",
"184 321 CURVE",
"184 393 LINE",
"35 393 LINE",
"35 340 LINE",
"111 340 LINE",
"111 53 LINE",
"35 53 LINE"
);
}
);
width = 386;
},
{
anchors = (
{
name = bot;
position = "{161, 0}";
},
{
name = top;
position = "{227, 393}";
}
);
layerId = "EFCDB4D9-E20B-4A8D-9DB5-150AD166B0AE";
paths = (
{
closed = 1;
nodes = (
"250 307 CURVE",
"250 393 LINE",
"27 393 LINE",
"27 283 LINE",
"78 283 LINE",
"78 109 LINE",
"22 109 LINE",
"22 0 LINE",
"297 0 LINE",
"297 109 LINE",
"250 109 LINE",
"250 216 LINE SMOOTH",
"250 252 OFFCURVE",
"290 261 OFFCURVE",
"320 261 CURVE SMOOTH",
"352 261 OFFCURVE",
"387 250 OFFCURVE",
"402 241 CURVE",
"437 380 LINE",
"416 388 OFFCURVE",
"392 397 OFFCURVE",
"363 397 CURVE SMOOTH",
"326 397 OFFCURVE",
"283 378 OFFCURVE"
);
}
);
width = 436;
}
);
unicode = 0072;
userData = {
com.typemytype.robofont.layerData = {
b = {
anchors = (
);
components = (
);
contours = (
{
points = (
{
segmentType = line;
smooth = 0;
x = 338;
y = 449;
},
{
smooth = 0;
x = 338;
y = 643;
},
{
smooth = 0;
x = 441;
y = 756;
},
{
segmentType = curve;
smooth = 1;
x = 570;
y = 756;
},
{
smooth = 0;
x = 614;
y = 756;
},
{
smooth = 0;
x = 651;
y = 742;
},
{
segmentType = curve;
smooth = 0;
x = 704;
y = 716;
},
{
segmentType = line;
smooth = 0;
x = 722;
y = 784;
},
{
smooth = 0;
x = 664;
y = 810;
},
{
smooth = 0;
x = 622;
y = 820;
},
{
segmentType = curve;
smooth = 1;
x = 575;
y = 820;
},
{
smooth = 0;
x = 467;
y = 820;
},
{
smooth = 0;
x = 381;
y = 769;
},
{
segmentType = curve;
smooth = 0;
x = 316;
y = 582;
}
);
}
);
lib = {
};
name = r;
unicodes = (
);
width = 773;
};
};
org.robofab.postScriptHintData = {
};
};
},
{
glyphname = s;
lastChange = "2016-08-04 10:04:12 +0000";
layers = (
{
anchors = (
{
name = bot;
position = "{230, 0}";
},
{
name = top;
position = "{222, 393}";
}
);
layerId = "98C086B7-81AA-4491-8494-0C6A76849168";
paths = (
{
closed = 1;
nodes = (
"235 -11 CURVE SMOOTH",
"313 -11 OFFCURVE",
"390 22 OFFCURVE",
"390 96 CURVE SMOOTH",
"390 179 OFFCURVE",
"334 192 OFFCURVE",
"251 211 CURVE SMOOTH",
"186 225 LINE SMOOTH",
"139 235 OFFCURVE",
"102 253 OFFCURVE",
"102 296 CURVE SMOOTH",
"102 355 OFFCURVE",
"160 381 OFFCURVE",
"217 381 CURVE SMOOTH",
"262 381 OFFCURVE",
"320 359 OFFCURVE",
"341 330 CURVE",
"345 265 LINE",
"369 265 LINE",
"369 393 LINE",
"343 393 LINE",
"343 357 LINE",
"312 386 OFFCURVE",
"261 403 OFFCURVE",
"215 403 CURVE SMOOTH",
"141 403 OFFCURVE",
"73 371 OFFCURVE",
"73 295 CURVE SMOOTH",
"73 239 OFFCURVE",
"116 213 OFFCURVE",
"179 200 CURVE SMOOTH",
"244 187 LINE SMOOTH",
"327 169 OFFCURVE",
"363 155 OFFCURVE",
"363 94 CURVE SMOOTH",
"363 43 OFFCURVE",
"309 11 OFFCURVE",
"234 11 CURVE SMOOTH",
"177 11 OFFCURVE",
"127 29 OFFCURVE",
"96 65 CURVE",
"94 117 LINE",
"70 117 LINE",
"70 0 LINE",
"96 0 LINE",
"96 40 LINE",
"120 12 OFFCURVE",
"175 -11 OFFCURVE"
);
}
);
width = 446;
},
{
associatedMasterId = "98C086B7-81AA-4491-8494-0C6A76849168";
layerId = "E1CBBB34-E5D6-4D32-8D2A-BE34B4D90B52";
name = b;
width = 449;
},
{
anchors = (
{
name = bot;
position = "{231, 0}";
},
{
name = top;
position = "{213, 393}";
}
);
layerId = "BE4F947C-73D7-4684-AEED-17801393DA53";
paths = (
{
closed = 1;
nodes = (
"244 -10 CURVE SMOOTH",
"320 -10 OFFCURVE",
"394 25 OFFCURVE",
"394 104 CURVE SMOOTH",
"394 189 OFFCURVE",
"335 209 OFFCURVE",
"259 228 CURVE SMOOTH",
"208 239 LINE SMOOTH",
"155 252 OFFCURVE",
"133 265 OFFCURVE",
"133 295 CURVE SMOOTH",
"133 333 OFFCURVE",
"173 350 OFFCURVE",
"216 350 CURVE SMOOTH",
"253 350 OFFCURVE",
"298 334 OFFCURVE",
"319 310 CURVE",
"326 260 LINE",
"378 260 LINE",
"378 395 LINE",
"319 395 LINE",
"319 365 LINE",
"292 390 OFFCURVE",
"243 403 OFFCURVE",
"204 403 CURVE SMOOTH",
"121 403 OFFCURVE",
"59 363 OFFCURVE",
"59 293 CURVE SMOOTH",
"59 219 OFFCURVE",
"104 195 OFFCURVE",
"178 177 CURVE SMOOTH",
"233 165 LINE SMOOTH",
"296 151 OFFCURVE",
"323 141 OFFCURVE",
"323 98 CURVE SMOOTH",
"323 62 OFFCURVE",
"284 41 OFFCURVE",
"234 41 CURVE SMOOTH",
"188 41 OFFCURVE",
"140 59 OFFCURVE",
"116 93 CURVE",
"112 136 LINE",
"60 136 LINE",
"60 0 LINE",
"118 0 LINE",
"118 34 LINE",
"145 7 OFFCURVE",
"193 -10 OFFCURVE"
);
}
);
width = 432;
},
{
anchors = (
{
name = bot;
position = "{272, 0}";
},
{
name = top;
position = "{203, 393}";
}
);
layerId = "EFCDB4D9-E20B-4A8D-9DB5-150AD166B0AE";
paths = (
{
closed = 1;
nodes = (
"274 -11 CURVE SMOOTH",
"340 -11 OFFCURVE",
"422 10 OFFCURVE",
"421 119 CURVE SMOOTH",
"420 188 OFFCURVE",
"379 208 OFFCURVE",
"329 225 CURVE SMOOTH",
"261 249 LINE SMOOTH",
"229 260 OFFCURVE",
"209 265 OFFCURVE",
"209 285 CURVE SMOOTH",
"209 301 OFFCURVE",
"221 307 OFFCURVE",
"245 307 CURVE SMOOTH",
"267 307 OFFCURVE",
"308 294 OFFCURVE",
"322 283 CURVE",
"330 243 LINE",
"422 243 LINE",
"422 403 LINE",
"321 403 LINE",
"321 366 LINE",
"298 383 OFFCURVE",
"272 404 OFFCURVE",
"201 403 CURVE SMOOTH",
"148 403 OFFCURVE",
"39 380 OFFCURVE",
"39 287 CURVE SMOOTH",
"39 237 OFFCURVE",
"66 188 OFFCURVE",
"119 169 CURVE SMOOTH",
"221 136 LINE SMOOTH",
"245 127 OFFCURVE",
"260 119 OFFCURVE",
"260 104 CURVE SMOOTH",
"260 94 OFFCURVE",
"257 86 OFFCURVE",
"232 86 CURVE SMOOTH",
"196 86 OFFCURVE",
"140 105 OFFCURVE",
"126 126 CURVE",
"125 146 LINE",
"40 146 LINE",
"40 0 LINE",
"135 0 LINE",
"135 42 LINE",
"148 10 OFFCURVE",
"223 -11 OFFCURVE"
);
}
);
width = 464;
}
);
unicode = 0073;
userData = {
com.typemytype.robofont.layerData = {
b = {
anchors = (
);
components = (
);
contours = (
);
lib = {
};
name = s;
unicodes = (
);
width = 919;
};
};
org.robofab.postScriptHintData = {
};
};
},
{
glyphname = germandbls;
lastChange = "2016-08-04 10:04:12 +0000";
layers = (
{
layerId = "98C086B7-81AA-4491-8494-0C6A76849168";
paths = (
{
closed = 1;
nodes = (
"50 0 LINE",
"215 0 LINE",
"215 24 LINE",
"156 24 LINE",
"156 428 LINE SMOOTH",
"156 530 OFFCURVE",
"200 593 OFFCURVE",
"294 593 CURVE SMOOTH",
"389 593 OFFCURVE",
"434 549 OFFCURVE",
"434 479 CURVE SMOOTH",
"434 397 OFFCURVE",
"385 345 OFFCURVE",
"293 340 CURVE",
"293 323 LINE",
"427 323 OFFCURVE",
"507 266 OFFCURVE",
"507 173 CURVE SMOOTH",
"507 77 OFFCURVE",
"415 24 OFFCURVE",
"283 24 CURVE",
"283 0 LINE",
"440 0 OFFCURVE",
"536 69 OFFCURVE",
"536 173 CURVE SMOOTH",
"536 259 OFFCURVE",
"482 324 OFFCURVE",
"353 335 CURVE",
"419 350 OFFCURVE",
"462 404 OFFCURVE",
"462 479 CURVE SMOOTH",
"462 569 OFFCURVE",
"401 616 OFFCURVE",
"294 616 CURVE SMOOTH",
"184 616 OFFCURVE",
"125 549 OFFCURVE",
"125 426 CURVE SMOOTH",
"125 24 LINE",
"50 24 LINE"
);
}
);
width = 583;
},
{
associatedMasterId = "98C086B7-81AA-4491-8494-0C6A76849168";
layerId = "2DF8D8B5-3C5B-45A4-946A-8505120EBCB6";
name = b;
width = 585;
},
{
layerId = "BE4F947C-73D7-4684-AEED-17801393DA53";
paths = (
{
closed = 1;
nodes = (
"31 0 LINE",
"243 0 LINE",
"243 54 LINE",
"185 54 LINE",
"185 412 LINE SMOOTH",
"185 496 OFFCURVE",
"226 549 OFFCURVE",
"298 549 CURVE SMOOTH",
"363 549 OFFCURVE",
"399 514 OFFCURVE",
"399 459 CURVE SMOOTH",
"399 393 OFFCURVE",
"357 352 OFFCURVE",
"286 350 CURVE",
"286 298 LINE",
"392 298 OFFCURVE",
"456 252 OFFCURVE",
"456 178 CURVE SMOOTH",
"456 100 OFFCURVE",
"392 54 OFFCURVE",
"295 54 CURVE",
"295 0 LINE",
"443 0 OFFCURVE",
"536 69 OFFCURVE",
"536 178 CURVE SMOOTH",
"536 254 OFFCURVE",
"481 315 OFFCURVE",
"381 333 CURVE",
"438 352 OFFCURVE",
"474 401 OFFCURVE",
"474 463 CURVE SMOOTH",
"474 553 OFFCURVE",
"408 606 OFFCURVE",
"298 606 CURVE SMOOTH",
"178 606 OFFCURVE",
"105 533 OFFCURVE",
"105 410 CURVE SMOOTH",
"105 54 LINE",
"31 54 LINE"
);
}
);
width = 566;
},
{
layerId = "EFCDB4D9-E20B-4A8D-9DB5-150AD166B0AE";
paths = (
{
closed = 1;
nodes = (
"24 0 LINE",
"292 0 LINE",
"292 109 LINE",
"249 109 LINE",
"249 466 LINE SMOOTH",
"249 527 OFFCURVE",
"299 566 OFFCURVE",
"342 566 CURVE SMOOTH",
"375 566 OFFCURVE",
"410 548 OFFCURVE",
"410 507 CURVE SMOOTH",
"410 454 OFFCURVE",
"366 413 OFFCURVE",
"280 413 CURVE",
"280 320 LINE",
"364 316 OFFCURVE",
"402 272 OFFCURVE",
"409 216 CURVE SMOOTH",
"415 168 OFFCURVE",
"393 109 OFFCURVE",
"336 109 CURVE",
"336 0 LINE",
"552 0 OFFCURVE",
"608 102 OFFCURVE",
"601 231 CURVE SMOOTH",
"595 328 OFFCURVE",
"515 378 OFFCURVE",
"426 386 CURVE",
"510 404 OFFCURVE",
"553 467 OFFCURVE",
"553 524 CURVE SMOOTH",
"554 624 OFFCURVE",
"479 692 OFFCURVE",
"337 692 CURVE SMOOTH",
"156 692 OFFCURVE",
"79 600 OFFCURVE",
"79 453 CURVE SMOOTH",
"79 109 LINE",
"24 109 LINE"
);
}
);
width = 644;
}
);
unicode = 00DF;
userData = {
com.typemytype.robofont.layerData = {
b = {
anchors = (
);
components = (
);
contours = (
);
lib = {
};
name = germandbls;
unicodes = (
);
width = 1198;
};
};
org.robofab.postScriptHintData = {
};
};
},
{
glyphname = t;
lastChange = "2016-08-04 10:04:12 +0000";
layers = (
{
anchors = (
{
name = bot;
position = "{192, 4}";
},
{
name = top;
position = "{108, 488}";
}
);
layerId = "98C086B7-81AA-4491-8494-0C6A76849168";
paths = (
{
closed = 1;
nodes = (
"216 0 CURVE SMOOTH",
"257 0 LINE",
"257 22 LINE",
"218 22 LINE SMOOTH",
"151 22 OFFCURVE",
"123 44 OFFCURVE",
"123 109 CURVE SMOOTH",
"123 371 LINE",
"238 371 LINE",
"238 393 LINE",
"123 393 LINE",
"123 538 LINE",
"94 529 LINE",
"94 393 LINE",
"20 393 LINE",
"20 371 LINE",
"94 371 LINE",
"94 107 LINE SMOOTH",
"94 24 OFFCURVE",
"145 0 OFFCURVE"
);
}
);
width = 282;
},
{
associatedMasterId = "98C086B7-81AA-4491-8494-0C6A76849168";
layerId = "C992B93C-9989-44D7-9496-1CA58FCC7E5F";
name = b;
width = 279;
},
{
anchors = (
{
name = bot;
position = "{191, 1}";
},
{
name = top;
position = "{125, 521}";
}
);
layerId = "BE4F947C-73D7-4684-AEED-17801393DA53";
paths = (
{
closed = 1;
nodes = (
"199 0 CURVE SMOOTH",
"272 0 LINE",
"272 53 LINE",
"212 53 LINE SMOOTH",
"173 53 OFFCURVE",
"159 71 OFFCURVE",
"159 120 CURVE SMOOTH",
"159 340 LINE",
"263 340 LINE",
"263 393 LINE",
"159 393 LINE",
"159 556 LINE",
"85 527 LINE",
"85 393 LINE",
"20 393 LINE",
"20 340 LINE",
"85 340 LINE",
"85 116 LINE SMOOTH",
"85 37 OFFCURVE",
"124 0 OFFCURVE"
);
}
);
width = 301;
},
{
anchors = (
{
name = bot;
position = "{214, 0}";
},
{
name = caron.alt;
position = "{185, 541}";
},
{
name = mid;
position = "{156, 220}";
},
{
name = top;
position = "{159, 518}";
}
);
layerId = "EFCDB4D9-E20B-4A8D-9DB5-150AD166B0AE";
paths = (
{
closed = 1;
nodes = (
"199 0 CURVE SMOOTH",
"343 0 LINE",
"343 109 LINE",
"266 109 LINE SMOOTH",
"240 109 OFFCURVE",
"239 125 OFFCURVE",
"239 127 CURVE SMOOTH",
"239 283 LINE",
"344 283 LINE",
"344 393 LINE",
"239 393 LINE",
"239 554 LINE",
"67 531 LINE",
"67 393 LINE",
"5 393 LINE",
"5 283 LINE",
"68 283 LINE",
"68 120 LINE SMOOTH",
"68 36 OFFCURVE",
"116 0 OFFCURVE"
);
}
);
width = 375;
}
);
unicode = 0074;
userData = {
com.typemytype.robofont.layerData = {
b = {
anchors = (
);
components = (
);
contours = (
);
lib = {
};
name = t;
unicodes = (
);
width = 572;
};
};
org.robofab.postScriptHintData = {
};
};
},
{
glyphname = u;
lastChange = "2016-08-04 10:04:12 +0000";
layers = (
{
anchors = (
{
name = top;
position = "{238, 393}";
}
);
layerId = "98C086B7-81AA-4491-8494-0C6A76849168";
paths = (
{
closed = 1;
nodes = (
"215 -11 CURVE SMOOTH",
"276 -11 OFFCURVE",
"329 14 OFFCURVE",
"379 49 CURVE",
"382 0 LINE",
"480 0 LINE",
"480 21 LINE",
"407 21 LINE",
"407 393 LINE",
"304 393 LINE",
"304 371 LINE",
"377 371 LINE",
"377 71 LINE",
"328 37 OFFCURVE",
"282 12 OFFCURVE",
"217 12 CURVE SMOOTH",
"151 12 OFFCURVE",
"124 57 OFFCURVE",
"124 104 CURVE SMOOTH",
"124 393 LINE",
"18 393 LINE",
"18 371 LINE",
"94 371 LINE",
"94 103 LINE SMOOTH",
"94 62 OFFCURVE",
"116 -11 OFFCURVE"
);
}
);
width = 502;
},
{
associatedMasterId = "98C086B7-81AA-4491-8494-0C6A76849168";
layerId = "7FEFB9D3-4EE8-44F8-9B41-B0DBD2DD7A2A";
name = b;
width = 500;
},
{
anchors = (
{
name = top;
position = "{239, 393}";
}
);
layerId = "BE4F947C-73D7-4684-AEED-17801393DA53";
paths = (
{
closed = 1;
nodes = (
"208 -10 CURVE SMOOTH",
"259 -10 OFFCURVE",
"308 12 OFFCURVE",
"353 48 CURVE",
"355 0 LINE",
"499 0 LINE",
"499 53 LINE",
"426 53 LINE",
"426 393 LINE",
"282 393 LINE",
"282 340 LINE",
"353 340 LINE",
"353 104 LINE",
"315 69 OFFCURVE",
"273 49 OFFCURVE",
"225 49 CURVE SMOOTH",
"174 49 OFFCURVE",
"151 81 OFFCURVE",
"151 130 CURVE SMOOTH",
"151 393 LINE",
"11 393 LINE",
"11 340 LINE",
"77 340 LINE",
"77 122 LINE SMOOTH",
"77 50 OFFCURVE",
"115 -10 OFFCURVE"
);
}
);
width = 510;
},
{
anchors = (
{
name = ogonek;
position = "{476, 0}";
},
{
name = top;
position = "{281, 393}";
}
);
layerId = "EFCDB4D9-E20B-4A8D-9DB5-150AD166B0AE";
paths = (
{
closed = 1;
nodes = (
"216 -11 CURVE SMOOTH",
"286 -11 OFFCURVE",
"329 10 OFFCURVE",
"367 41 CURVE",
"367 0 LINE",
"593 0 LINE",
"593 109 LINE",
"539 109 LINE",
"539 393 LINE",
"309 393 LINE",
"309 283 LINE",
"367 283 LINE",
"367 136 LINE",
"347 122 OFFCURVE",
"317 109 OFFCURVE",
"292 109 CURVE SMOOTH",
"262 109 OFFCURVE",
"235 126 OFFCURVE",
"235 182 CURVE SMOOTH",
"235 393 LINE",
"11 393 LINE",
"11 283 LINE",
"63 283 LINE",
"63 144 LINE SMOOTH",
"63 68 OFFCURVE",
"94 -11 OFFCURVE"
);
}
);
width = 616;
}
);
unicode = 0075;
userData = {
com.typemytype.robofont.layerData = {
b = {
anchors = (
);
components = (
);
contours = (
);
lib = {
};
name = u;
unicodes = (
);
width = 1025;
};
};
org.robofab.postScriptHintData = {
};
};
},
{
glyphname = v;
lastChange = "2016-08-04 10:04:12 +0000";
layers = (
{
layerId = "98C086B7-81AA-4491-8494-0C6A76849168";
paths = (
{
closed = 1;
nodes = (
"243 0 LINE",
"276 0 LINE",
"437 371 LINE",
"506 371 LINE",
"506 393 LINE",
"324 393 LINE",
"324 371 LINE",
"406 371 LINE",
"261 23 LINE",
"111 371 LINE",
"194 371 LINE",
"194 393 LINE",
"8 393 LINE",
"8 371 LINE",
"80 371 LINE"
);
}
);
width = 515;
},
{
associatedMasterId = "98C086B7-81AA-4491-8494-0C6A76849168";
layerId = "F1FF1ABA-62FC-47FE-8C22-7F2E258D7325";
name = b;
width = 515;
},
{
layerId = "BE4F947C-73D7-4684-AEED-17801393DA53";
paths = (
{
closed = 1;
nodes = (
"224 0 LINE",
"291 0 LINE",
"444 340 LINE",
"507 340 LINE",
"507 393 LINE",
"309 393 LINE",
"309 340 LINE",
"372 340 LINE",
"263 76 LINE",
"153 340 LINE",
"217 340 LINE",
"217 393 LINE",
"7 393 LINE",
"7 340 LINE",
"74 340 LINE"
);
}
);
width = 514;
},
{
layerId = "EFCDB4D9-E20B-4A8D-9DB5-150AD166B0AE";
paths = (
{
closed = 1;
nodes = (
"77 283 LINE",
"229 0 LINE",
"379 0 LINE",
"527 283 LINE",
"584 283 LINE",
"584 393 LINE",
"353 393 LINE",
"353 283 LINE",
"396 283 LINE",
"332 157 LINE",
"266 283 LINE",
"302 283 LINE",
"302 393 LINE",
"18 393 LINE",
"18 283 LINE"
);
}
);
width = 602;
}
);
unicode = 0076;
userData = {
com.typemytype.robofont.layerData = {
b = {
anchors = (
);
components = (
);
contours = (
);
lib = {
};
name = v;
unicodes = (
);
width = 1054;
};
};
org.robofab.postScriptHintData = {
};
};
},
{
glyphname = w;
lastChange = "2016-08-04 10:04:12 +0000";
layers = (
{
anchors = (
{
name = top;
position = "{379, 393}";
}
);
layerId = "98C086B7-81AA-4491-8494-0C6A76849168";
paths = (
{
closed = 1;
nodes = (
"215 0 LINE",
"250 0 LINE",
"379 346 LINE",
"508 0 LINE",
"542 0 LINE",
"670 371 LINE",
"737 371 LINE",
"737 393 LINE",
"574 393 LINE",
"574 371 LINE",
"642 371 LINE",
"524 23 LINE",
"394 371 LINE",
"466 371 LINE",
"466 393 LINE",
"292 393 LINE",
"292 371 LINE",
"362 371 LINE",
"234 22 LINE",
"110 371 LINE",
"186 371 LINE",
"186 393 LINE",
"16 393 LINE",
"16 371 LINE",
"81 371 LINE"
);
}
);
width = 761;
},
{
associatedMasterId = "98C086B7-81AA-4491-8494-0C6A76849168";
layerId = "AA24764D-4BDC-46E3-8EE6-4F97266E5FD9";
name = b;
width = 769;
},
{
anchors = (
{
name = top;
position = "{361, 393}";
}
);
layerId = "BE4F947C-73D7-4684-AEED-17801393DA53";
paths = (
{
closed = 1;
nodes = (
"185 0 LINE",
"257 0 LINE",
"358 279 LINE",
"459 0 LINE",
"531 0 LINE",
"649 340 LINE",
"704 340 LINE",
"704 393 LINE",
"527 393 LINE",
"527 340 LINE",
"582 340 LINE",
"496 72 LINE",
"399 340 LINE",
"456 340 LINE",
"456 393 LINE",
"263 393 LINE",
"263 340 LINE",
"319 340 LINE",
"226 73 LINE",
"133 340 LINE",
"187 340 LINE",
"187 393 LINE",
"9 393 LINE",
"9 340 LINE",
"61 340 LINE"
);
}
);
width = 715;
},
{
anchors = (
{
name = top;
position = "{414, 393}";
}
);
layerId = "EFCDB4D9-E20B-4A8D-9DB5-150AD166B0AE";
paths = (
{
closed = 1;
nodes = (
"80 283 LINE",
"181 0 LINE",
"329 0 LINE",
"392 167 LINE",
"460 0 LINE",
"576 0 LINE",
"671 283 LINE",
"720 283 LINE",
"720 393 LINE",
"558 393 LINE",
"558 283 LINE",
"596 283 LINE",
"538 129 LINE",
"480 283 LINE",
"514 283 LINE",
"514 393 LINE",
"316 393 LINE",
"316 283 LINE",
"353 283 LINE",
"292 128 LINE",
"241 283 LINE",
"274 283 LINE",
"274 393 LINE",
"23 393 LINE",
"23 283 LINE"
);
}
);
width = 744;
}
);
unicode = 0077;
userData = {
com.typemytype.robofont.layerData = {
b = {
anchors = (
);
components = (
);
contours = (
);
lib = {
};
name = w;
unicodes = (
);
width = 1574;
};
};
org.robofab.postScriptHintData = {
};
};
},
{
glyphname = x;
lastChange = "2016-08-04 10:04:12 +0000";
layers = (
{
layerId = "98C086B7-81AA-4491-8494-0C6A76849168";
paths = (
{
closed = 1;
nodes = (
"24 0 LINE",
"202 0 LINE",
"202 22 LINE",
"127 22 LINE",
"263 187 LINE",
"403 22 LINE",
"317 22 LINE",
"317 0 LINE",
"505 0 LINE",
"505 22 LINE",
"431 22 LINE",
"280 201 LINE",
"419 371 LINE",
"500 371 LINE",
"500 393 LINE",
"312 393 LINE",
"312 371 LINE",
"391 371 LINE",
"266 218 LINE",
"137 371 LINE",
"216 371 LINE",
"216 393 LINE",
"36 393 LINE",
"36 371 LINE",
"108 371 LINE",
"249 203 LINE",
"97 22 LINE",
"24 22 LINE"
);
}
);
width = 527;
},
{
associatedMasterId = "98C086B7-81AA-4491-8494-0C6A76849168";
layerId = "CFCDE023-C911-4BD5-B00F-4084D53B4429";
name = b;
width = 531;
},
{
layerId = "BE4F947C-73D7-4684-AEED-17801393DA53";
paths = (
{
closed = 1;
nodes = (
"24 0 LINE",
"214 0 LINE",
"214 53 LINE",
"153 53 LINE",
"250 165 LINE",
"351 53 LINE",
"284 53 LINE",
"284 0 LINE",
"485 0 LINE",
"485 53 LINE",
"426 53 LINE",
"292 204 LINE",
"413 340 LINE",
"483 340 LINE",
"483 393 LINE",
"286 393 LINE",
"286 340 LINE",
"345 340 LINE",
"255 236 LINE",
"165 340 LINE",
"224 340 LINE",
"224 393 LINE",
"26 393 LINE",
"26 340 LINE",
"90 340 LINE",
"214 201 LINE",
"83 53 LINE",
"24 53 LINE"
);
}
);
width = 504;
},
{
layerId = "EFCDB4D9-E20B-4A8D-9DB5-150AD166B0AE";
paths = (
{
closed = 1;
nodes = (
"11 109 LINE",
"11 0 LINE",
"214 0 LINE",
"214 109 LINE",
"166 109 LINE",
"237 155 LINE",
"306 109 LINE",
"265 109 LINE",
"265 0 LINE",
"528 0 LINE",
"528 109 LINE",
"478 109 LINE",
"347 214 LINE",
"458 283 LINE",
"519 283 LINE",
"519 393 LINE",
"322 393 LINE",
"322 283 LINE",
"361 283 LINE",
"301 243 LINE",
"245 283 LINE",
"261 283 LINE",
"261 393 LINE",
"15 393 LINE",
"15 283 LINE",
"72 283 LINE",
"187 192 LINE",
"64 109 LINE"
);
}
);
width = 544;
}
);
unicode = 0078;
userData = {
com.typemytype.robofont.layerData = {
b = {
anchors = (
);
components = (
);
contours = (
);
lib = {
};
name = x;
unicodes = (
);
width = 1088;
};
};
org.robofab.postScriptHintData = {
};
};
},
{
glyphname = y;
lastChange = "2016-08-04 10:04:12 +0000";
layers = (
{
anchors = (
{
name = top;
position = "{276, 393}";
}
);
layerId = "98C086B7-81AA-4491-8494-0C6A76849168";
paths = (
{
closed = 1;
nodes = (
"115 -122 LINE",
"155 -122 LINE SMOOTH",
"224 -122 OFFCURVE",
"245 -107 OFFCURVE",
"271 -47 CURVE SMOOTH",
"450 371 LINE",
"514 371 LINE",
"514 393 LINE",
"337 393 LINE",
"337 371 LINE",
"420 371 LINE",
"281 41 LINE",
"134 371 LINE",
"205 371 LINE",
"205 393 LINE",
"23 393 LINE",
"23 371 LINE",
"104 371 LINE",
"258 30 LINE",
"276 30 LINE",
"245 -41 LINE SMOOTH",
"224 -88 OFFCURVE",
"213 -96 OFFCURVE",
"154 -96 CURVE SMOOTH",
"115 -96 LINE"
);
}
);
width = 523;
},
{
associatedMasterId = "98C086B7-81AA-4491-8494-0C6A76849168";
layerId = "BA24BF7A-8D51-43A0-B8F7-17A368B51314";
name = b;
width = 523;
},
{
anchors = (
{
name = top;
position = "{267, 393}";
}
);
layerId = "BE4F947C-73D7-4684-AEED-17801393DA53";
paths = (
{
closed = 1;
nodes = (
"101 -159 LINE",
"152 -159 LINE SMOOTH",
"254 -159 OFFCURVE",
"270 -115 OFFCURVE",
"306 -23 CURVE SMOOTH",
"452 340 LINE",
"516 340 LINE",
"516 393 LINE",
"311 393 LINE",
"311 340 LINE",
"379 340 LINE",
"274 73 LINE",
"156 340 LINE",
"214 340 LINE",
"214 393 LINE",
"8 393 LINE",
"8 340 LINE",
"81 340 LINE",
"227 25 LINE",
"258 25 LINE",
"237 -33 LINE SMOOTH",
"216 -93 OFFCURVE",
"197 -99 OFFCURVE",
"146 -99 CURVE SMOOTH",
"101 -99 LINE"
);
}
);
width = 519;
},
{
anchors = (
{
name = top;
position = "{301, 393}";
}
);
layerId = "EFCDB4D9-E20B-4A8D-9DB5-150AD166B0AE";
paths = (
{
closed = 1;
nodes = (
"105 -50 LINE",
"105 -172 LINE",
"169 -172 LINE SMOOTH",
"252 -172 OFFCURVE",
"291 -154 OFFCURVE",
"340 -68 CURVE SMOOTH",
"538 283 LINE",
"592 283 LINE",
"592 393 LINE",
"317 393 LINE",
"317 283 LINE",
"368 283 LINE",
"302 159 LINE",
"229 283 LINE",
"281 283 LINE",
"281 393 LINE",
"9 393 LINE",
"9 283 LINE",
"73 283 LINE",
"212 42 LINE",
"251 42 LINE",
"224 -6 LINE SMOOTH",
"200 -47 OFFCURVE",
"175 -50 OFFCURVE",
"158 -50 CURVE SMOOTH"
);
}
);
width = 602;
}
);
unicode = 0079;
userData = {
com.typemytype.robofont.layerData = {
b = {
anchors = (
);
components = (
);
contours = (
);
lib = {
};
name = y;
unicodes = (
);
width = 1072;
};
};
org.robofab.postScriptHintData = {
};
};
},
{
glyphname = z;
lastChange = "2016-08-04 10:04:12 +0000";
layers = (
{
anchors = (
{
name = top;
position = "{235, 393}";
}
);
layerId = "98C086B7-81AA-4491-8494-0C6A76849168";
paths = (
{
closed = 1;
nodes = (
"70 0 LINE",
"386 0 LINE",
"386 130 LINE",
"361 130 LINE",
"361 21 LINE",
"104 21 LINE",
"379 365 LINE",
"379 393 LINE",
"83 393 LINE",
"83 277 LINE",
"109 277 LINE",
"109 372 LINE",
"351 372 LINE",
"70 25 LINE"
);
}
);
width = 462;
},
{
associatedMasterId = "98C086B7-81AA-4491-8494-0C6A76849168";
layerId = "5C029C3C-8C5A-4E2A-B121-1F78AEF9B385";
name = b;
width = 466;
},
{
anchors = (
{
name = top;
position = "{232, 393}";
}
);
layerId = "BE4F947C-73D7-4684-AEED-17801393DA53";
paths = (
{
closed = 1;
nodes = (
"51 0 LINE",
"396 0 LINE",
"396 140 LINE",
"338 140 LINE",
"338 50 LINE",
"137 50 LINE",
"390 338 LINE",
"390 393 LINE",
"56 393 LINE",
"56 261 LINE",
"112 261 LINE",
"112 342 LINE",
"304 342 LINE",
"51 52 LINE"
);
}
);
width = 438;
},
{
anchors = (
{
name = top;
position = "{249, 393}";
}
);
layerId = "EFCDB4D9-E20B-4A8D-9DB5-150AD166B0AE";
paths = (
{
closed = 1;
nodes = (
"41 97 LINE",
"41 0 LINE",
"482 0 LINE",
"482 182 LINE",
"371 182 LINE",
"371 93 LINE",
"243 93 LINE",
"459 290 LINE",
"459 393 LINE",
"41 393 LINE",
"41 221 LINE",
"153 221 LINE",
"153 298 LINE",
"253 298 LINE"
);
}
);
width = 508;
}
);
unicode = 007A;
userData = {
com.typemytype.robofont.layerData = {
b = {
anchors = (
);
components = (
);
contours = (
);
lib = {
};
name = z;
unicodes = (
);
width = 955;
};
};
org.robofab.postScriptHintData = {
};
};
},
{
glyphname = f_j;
lastChange = "2016-08-04 10:04:12 +0000";
layers = (
{
layerId = "98C086B7-81AA-4491-8494-0C6A76849168";
paths = (
{
closed = 1;
nodes = (
"438 393 LINE",
"164 393 LINE",
"164 462 LINE SMOOTH",
"164 530 OFFCURVE",
"223 570 OFFCURVE",
"315 570 CURVE SMOOTH",
"347 570 OFFCURVE",
"396 563 OFFCURVE",
"407 539 CURVE",
"394 536 OFFCURVE",
"389 525 OFFCURVE",
"389 515 CURVE SMOOTH",
"389 500 OFFCURVE",
"402 490 OFFCURVE",
"420 490 CURVE SMOOTH",
"438 490 OFFCURVE",
"448 502 OFFCURVE",
"448 520 CURVE SMOOTH",
"448 564 OFFCURVE",
"395 591 OFFCURVE",
"316 591 CURVE SMOOTH",
"207 591 OFFCURVE",
"135 543 OFFCURVE",
"135 461 CURVE SMOOTH",
"135 393 LINE",
"53 393 LINE",
"53 371 LINE",
"135 371 LINE",
"135 22 LINE",
"55 22 LINE",
"55 0 LINE",
"261 0 LINE",
"261 22 LINE",
"164 22 LINE",
"164 371 LINE",
"407 371 LINE",
"407 -18 LINE SMOOTH",
"407 -73 OFFCURVE",
"409 -101 OFFCURVE",
"341 -101 CURVE SMOOTH",
"309 -101 LINE",
"309 -122 LINE",
"345 -122 LINE SMOOTH",
"447 -122 OFFCURVE",
"438 -53 OFFCURVE",
"438 -13 CURVE SMOOTH"
);
}
);
width = 521;
},
{
layerId = "BE4F947C-73D7-4684-AEED-17801393DA53";
paths = (
{
closed = 1;
nodes = (
"486 393 LINE",
"193 393 LINE",
"193 446 LINE SMOOTH",
"193 539 OFFCURVE",
"243 575 OFFCURVE",
"317 575 CURVE SMOOTH",
"354 575 OFFCURVE",
"395 564 OFFCURVE",
"412 545 CURVE",
"405 539 OFFCURVE",
"401 529 OFFCURVE",
"401 520 CURVE SMOOTH",
"401 495 OFFCURVE",
"422 476 OFFCURVE",
"448 476 CURVE SMOOTH",
"475 476 OFFCURVE",
"495 496 OFFCURVE",
"495 521 CURVE SMOOTH",
"495 580 OFFCURVE",
"412 618 OFFCURVE",
"317 618 CURVE SMOOTH",
"205 618 OFFCURVE",
"119 566 OFFCURVE",
"119 447 CURVE SMOOTH",
"119 393 LINE",
"49 393 LINE",
"49 340 LINE",
"119 340 LINE",
"119 53 LINE",
"51 53 LINE",
"51 0 LINE",
"280 0 LINE",
"280 53 LINE",
"193 53 LINE",
"193 340 LINE",
"412 340 LINE",
"412 -10 LINE SMOOTH",
"412 -68 OFFCURVE",
"403 -94 OFFCURVE",
"346 -94 CURVE SMOOTH",
"305 -94 LINE",
"305 -152 LINE",
"348 -152 LINE SMOOTH",
"481 -152 OFFCURVE",
"486 -78 OFFCURVE",
"486 11 CURVE SMOOTH"
);
}
);
width = 587;
}
);
userData = {
org.robofab.postScriptHintData = {
};
};
},
{
glyphname = uniFB00;
lastChange = "2016-08-04 10:04:12 +0000";
layers = (
{
layerId = "98C086B7-81AA-4491-8494-0C6A76849168";
paths = (
{
closed = 1;
nodes = (
"546 371 LINE",
"546 393 LINE",
"433 393 LINE",
"433 503 LINE SMOOTH",
"433 540 OFFCURVE",
"458 560 OFFCURVE",
"481 560 CURVE SMOOTH",
"505 560 OFFCURVE",
"533 553 OFFCURVE",
"538 508 CURVE",
"559 517 LINE",
"553 570 OFFCURVE",
"516 583 OFFCURVE",
"481 583 CURVE SMOOTH",
"444 583 OFFCURVE",
"404 555 OFFCURVE",
"404 500 CURVE SMOOTH",
"404 393 LINE",
"158 393 LINE",
"158 501 LINE SMOOTH",
"158 541 OFFCURVE",
"177 561 OFFCURVE",
"209 561 CURVE SMOOTH",
"241 561 OFFCURVE",
"258 543 OFFCURVE",
"262 508 CURVE",
"284 517 LINE",
"280 560 OFFCURVE",
"253 583 OFFCURVE",
"208 583 CURVE SMOOTH",
"156 583 OFFCURVE",
"127 553 OFFCURVE",
"127 502 CURVE SMOOTH",
"127 393 LINE",
"52 393 LINE",
"52 371 LINE",
"127 371 LINE",
"127 22 LINE",
"54 22 LINE",
"54 0 LINE",
"250 0 LINE",
"250 22 LINE",
"158 22 LINE",
"158 371 LINE",
"404 371 LINE",
"404 22 LINE",
"329 22 LINE",
"329 0 LINE",
"526 0 LINE",
"526 22 LINE",
"433 22 LINE",
"433 371 LINE"
);
}
);
width = 655;
},
{
layerId = "BE4F947C-73D7-4684-AEED-17801393DA53";
paths = (
{
closed = 1;
nodes = (
"587 340 LINE",
"587 393 LINE",
"491 393 LINE",
"491 476 LINE SMOOTH",
"491 523 OFFCURVE",
"510 543 OFFCURVE",
"536 543 CURVE SMOOTH",
"565 543 OFFCURVE",
"580 525 OFFCURVE",
"585 488 CURVE",
"642 504 LINE",
"637 576 OFFCURVE",
"583 596 OFFCURVE",
"534 596 CURVE SMOOTH",
"458 596 OFFCURVE",
"417 549 OFFCURVE",
"417 477 CURVE SMOOTH",
"417 393 LINE",
"193 393 LINE",
"193 476 LINE SMOOTH",
"193 523 OFFCURVE",
"210 544 OFFCURVE",
"239 544 CURVE SMOOTH",
"271 544 OFFCURVE",
"282 522 OFFCURVE",
"287 488 CURVE",
"344 504 LINE",
"339 573 OFFCURVE",
"290 596 OFFCURVE",
"237 596 CURVE SMOOTH",
"156 596 OFFCURVE",
"119 549 OFFCURVE",
"119 477 CURVE SMOOTH",
"119 393 LINE",
"42 393 LINE",
"42 340 LINE",
"119 340 LINE",
"119 53 LINE",
"44 53 LINE",
"44 0 LINE",
"277 0 LINE",
"277 53 LINE",
"193 53 LINE",
"193 340 LINE",
"417 340 LINE",
"417 53 LINE",
"348 53 LINE",
"348 0 LINE",
"582 0 LINE",
"582 53 LINE",
"491 53 LINE",
"491 340 LINE"
);
}
);
width = 657;
},
{
layerId = "EFCDB4D9-E20B-4A8D-9DB5-150AD166B0AE";
paths = (
{
closed = 1;
nodes = (
"31 0 LINE",
"420 0 LINE",
"420 109 LINE",
"298 109 LINE",
"298 283 LINE",
"582 283 LINE",
"582 109 LINE",
"485 109 LINE",
"485 0 LINE",
"873 0 LINE",
"873 109 LINE",
"753 109 LINE",
"753 283 LINE",
"874 283 LINE",
"874 393 LINE",
"753 393 LINE",
"753 432 LINE SMOOTH",
"753 505 OFFCURVE",
"760 509 OFFCURVE",
"778 509 CURVE SMOOTH",
"797 509 OFFCURVE",
"796 492 OFFCURVE",
"802 451 CURVE",
"925 492 LINE",
"912 563 OFFCURVE",
"884 609 OFFCURVE",
"767 609 CURVE SMOOTH",
"592 609 OFFCURVE",
"582 518 OFFCURVE",
"582 391 CURVE SMOOTH",
"582 393 LINE",
"298 393 LINE",
"298 432 LINE SMOOTH",
"298 505 OFFCURVE",
"324 509 OFFCURVE",
"342 509 CURVE SMOOTH",
"377 509 OFFCURVE",
"377 492 OFFCURVE",
"384 451 CURVE",
"506 492 LINE",
"493 563 OFFCURVE",
"464 609 OFFCURVE",
"312 609 CURVE SMOOTH",
"137 609 OFFCURVE",
"126 482 OFFCURVE",
"126 391 CURVE SMOOTH",
"126 393 LINE",
"31 393 LINE",
"31 283 LINE",
"126 283 LINE",
"126 109 LINE",
"31 109 LINE"
);
}
);
width = 888;
}
);
userData = {
org.robofab.postScriptHintData = {
};
};
},
{
glyphname = uniFB01;
lastChange = "2016-08-04 10:04:12 +0000";
layers = (
{
layerId = "98C086B7-81AA-4491-8494-0C6A76849168";
paths = (
{
closed = 1;
nodes = (
"55 0 LINE",
"261 0 LINE",
"261 22 LINE",
"164 22 LINE",
"164 371 LINE",
"409 371 LINE",
"409 22 LINE",
"334 22 LINE",
"334 0 LINE",
"513 0 LINE",
"513 22 LINE",
"438 22 LINE",
"438 393 LINE",
"164 393 LINE",
"164 462 LINE SMOOTH",
"164 530 OFFCURVE",
"223 570 OFFCURVE",
"315 570 CURVE SMOOTH",
"347 570 OFFCURVE",
"396 563 OFFCURVE",
"407 539 CURVE",
"394 536 OFFCURVE",
"389 525 OFFCURVE",
"389 515 CURVE SMOOTH",
"389 500 OFFCURVE",
"402 490 OFFCURVE",
"420 490 CURVE SMOOTH",
"438 490 OFFCURVE",
"448 502 OFFCURVE",
"448 520 CURVE SMOOTH",
"448 564 OFFCURVE",
"395 591 OFFCURVE",
"316 591 CURVE SMOOTH",
"207 591 OFFCURVE",
"135 543 OFFCURVE",
"135 461 CURVE SMOOTH",
"135 393 LINE",
"53 393 LINE",
"53 371 LINE",
"135 371 LINE",
"135 22 LINE",
"55 22 LINE"
);
}
);
width = 519;
},
{
associatedMasterId = "98C086B7-81AA-4491-8494-0C6A76849168";
layerId = "6F36691D-949A-482A-AF0D-474391033D54";
name = b;
width = 510;
},
{
layerId = "BE4F947C-73D7-4684-AEED-17801393DA53";
paths = (
{
closed = 1;
nodes = (
"51 0 LINE",
"280 0 LINE",
"280 53 LINE",
"193 53 LINE",
"193 340 LINE",
"413 340 LINE",
"413 53 LINE",
"341 53 LINE",
"341 0 LINE",
"554 0 LINE",
"554 53 LINE",
"486 53 LINE",
"486 393 LINE",
"193 393 LINE",
"193 446 LINE SMOOTH",
"193 539 OFFCURVE",
"243 575 OFFCURVE",
"317 575 CURVE SMOOTH",
"354 575 OFFCURVE",
"395 564 OFFCURVE",
"412 545 CURVE",
"405 539 OFFCURVE",
"401 529 OFFCURVE",
"401 520 CURVE SMOOTH",
"401 495 OFFCURVE",
"422 476 OFFCURVE",
"448 476 CURVE SMOOTH",
"475 476 OFFCURVE",
"495 496 OFFCURVE",
"495 521 CURVE SMOOTH",
"495 580 OFFCURVE",
"412 618 OFFCURVE",
"317 618 CURVE SMOOTH",
"205 618 OFFCURVE",
"119 566 OFFCURVE",
"119 447 CURVE SMOOTH",
"119 393 LINE",
"49 393 LINE",
"49 340 LINE",
"119 340 LINE",
"119 53 LINE",
"51 53 LINE"
);
}
);
width = 571;
},
{
layerId = "EFCDB4D9-E20B-4A8D-9DB5-150AD166B0AE";
paths = (
{
closed = 1;
nodes = (
"49 0 LINE",
"420 0 LINE",
"420 109 LINE",
"319 109 LINE",
"319 283 LINE",
"515 283 LINE",
"515 109 LINE",
"459 109 LINE",
"459 0 LINE",
"734 0 LINE",
"734 109 LINE",
"687 109 LINE",
"687 393 LINE",
"319 393 LINE",
"319 442 LINE SMOOTH",
"319 529 OFFCURVE",
"373 560 OFFCURVE",
"437 560 CURVE SMOOTH",
"509 560 OFFCURVE",
"524 538 OFFCURVE",
"520 541 CURVE",
"513 527 OFFCURVE",
"509 514 OFFCURVE",
"509 501 CURVE SMOOTH",
"509 469 OFFCURVE",
"536 443 OFFCURVE",
"593 443 CURVE SMOOTH",
"661 443 OFFCURVE",
"685 483 OFFCURVE",
"685 521 CURVE SMOOTH",
"685 599 OFFCURVE",
"573 641 OFFCURVE",
"445 641 CURVE SMOOTH",
"345 641 OFFCURVE",
"147 622 OFFCURVE",
"147 415 CURVE SMOOTH",
"147 393 LINE",
"50 393 LINE",
"50 283 LINE",
"147 283 LINE",
"147 109 LINE",
"49 109 LINE"
);
}
);
width = 755;
}
);
unicode = FB01;
userData = {
com.typemytype.robofont.layerData = {
b = {
anchors = (
);
components = (
);
contours = (
);
lib = {
};
name = fi;
unicodes = (
);
width = 1044;
};
};
org.robofab.postScriptHintData = {
};
};
},
{
glyphname = uniFB02;
lastChange = "2016-08-04 10:04:12 +0000";
layers = (
{
layerId = "98C086B7-81AA-4491-8494-0C6A76849168";
paths = (
{
closed = 1;
nodes = (
"55 0 LINE",
"261 0 LINE",
"261 22 LINE",
"164 22 LINE",
"164 371 LINE",
"268 371 LINE",
"268 393 LINE",
"164 393 LINE",
"164 471 LINE SMOOTH",
"164 541 OFFCURVE",
"226 583 OFFCURVE",
"319 583 CURVE SMOOTH",
"385 583 OFFCURVE",
"427 569 OFFCURVE",
"427 546 CURVE SMOOTH",
"427 22 LINE",
"427 19 OFFCURVE",
"430 0 OFFCURVE",
"433 0 CURVE",
"554 0 LINE",
"554 22 LINE",
"456 22 LINE",
"456 546 LINE SMOOTH",
"456 583 OFFCURVE",
"402 606 OFFCURVE",
"319 606 CURVE SMOOTH",
"209 606 OFFCURVE",
"135 555 OFFCURVE",
"135 467 CURVE SMOOTH",
"135 393 LINE",
"53 393 LINE",
"53 371 LINE",
"135 371 LINE",
"135 22 LINE",
"55 22 LINE"
);
}
);
width = 598;
},
{
associatedMasterId = "98C086B7-81AA-4491-8494-0C6A76849168";
layerId = "433C6A46-4146-4B1B-B725-224C7F708248";
name = b;
width = 597;
},
{
layerId = "BE4F947C-73D7-4684-AEED-17801393DA53";
paths = (
{
closed = 1;
nodes = (
"51 0 LINE",
"280 0 LINE",
"280 53 LINE",
"193 53 LINE",
"193 340 LINE",
"281 340 LINE",
"281 393 LINE",
"193 393 LINE",
"193 466 LINE SMOOTH",
"193 524 OFFCURVE",
"263 553 OFFCURVE",
"334 553 CURVE SMOOTH",
"383 553 OFFCURVE",
"420 542 OFFCURVE",
"420 522 CURVE SMOOTH",
"420 53 LINE",
"420 31 OFFCURVE",
"440 0 OFFCURVE",
"466 0 CURVE",
"576 0 LINE",
"576 53 LINE",
"495 53 LINE",
"495 542 LINE SMOOTH",
"495 587 OFFCURVE",
"424 614 OFFCURVE",
"338 614 CURVE SMOOTH",
"228 614 OFFCURVE",
"119 565 OFFCURVE",
"119 462 CURVE SMOOTH",
"119 393 LINE",
"49 393 LINE",
"49 340 LINE",
"119 340 LINE",
"119 53 LINE",
"51 53 LINE"
);
}
);
width = 605;
},
{
layerId = "EFCDB4D9-E20B-4A8D-9DB5-150AD166B0AE";
paths = (
{
closed = 1;
nodes = (
"29 0 LINE",
"400 0 LINE",
"400 109 LINE",
"298 109 LINE",
"298 283 LINE",
"400 283 LINE",
"400 393 LINE",
"298 393 LINE",
"298 472 LINE SMOOTH",
"298 528 OFFCURVE",
"344 555 OFFCURVE",
"420 555 CURVE SMOOTH",
"450 555 OFFCURVE",
"477 555 OFFCURVE",
"477 505 CURVE SMOOTH",
"477 110 LINE SMOOTH",
"477 52 OFFCURVE",
"491 0 OFFCURVE",
"575 0 CURVE SMOOTH",
"712 0 LINE",
"712 110 LINE",
"648 110 LINE",
"649 556 LINE SMOOTH",
"649 632 OFFCURVE",
"544 668 OFFCURVE",
"428 668 CURVE SMOOTH",
"286 668 OFFCURVE",
"127 630 OFFCURVE",
"127 448 CURVE SMOOTH",
"127 393 LINE",
"29 393 LINE",
"29 283 LINE",
"127 283 LINE",
"127 109 LINE",
"29 109 LINE"
);
}
);
width = 743;
}
);
unicode = FB02;
userData = {
com.typemytype.robofont.layerData = {
b = {
anchors = (
);
components = (
);
contours = (
);
lib = {
};
name = fl;
unicodes = (
);
width = 1223;
};
};
org.robofab.postScriptHintData = {
};
};
},
